<svg xmlns="http://www.w3.org/2000/svg" xmlns:xlink="http://www.w3.org/1999/xlink" width="399.065" height="35.092" viewBox="0 0 399.065 35.092">
  <defs>
    <clipPath id="clip-path">
      <path id="Path_20549" data-name="Path 20549" d="M0,0H232V34.477H0Z" fill="#fff"/>
    </clipPath>
    <linearGradient id="linear-gradient" x1="0.084" y1="1.024" x2="0.905" y2="-0.011" gradientUnits="objectBoundingBox">
      <stop offset="0.08" stop-color="#9945ff"/>
      <stop offset="0.3" stop-color="#8752f3"/>
      <stop offset="0.5" stop-color="#5497d5"/>
      <stop offset="0.6" stop-color="#43b4ca"/>
      <stop offset="0.72" stop-color="#28e0b9"/>
      <stop offset="0.97" stop-color="#19fb9b"/>
    </linearGradient>
    <linearGradient id="linear-gradient-2" x1="0.198" y1="1" x2="0.643" y2="0.065" xlink:href="#linear-gradient"/>
  </defs>
  <g id="Group_1495" data-name="Group 1495" transform="translate(7706.065 -5955.762)">
    <g id="solana-sol-seeklogo" transform="translate(-7539 5955.762)" clip-path="url(#clip-path)">
      <path id="Path_20547" data-name="Path 20547" d="M40.1,27.183l-6.364,6.824a1.472,1.472,0,0,1-1.077.47H2.491a.74.74,0,0,1-.542-1.243L8.3,26.41a1.472,1.472,0,0,1,1.077-.47H39.549a.736.736,0,0,1,.549,1.243ZM33.735,13.438a1.487,1.487,0,0,0-1.077-.47H2.491a.74.74,0,0,0-.542,1.243L8.3,21.038a1.487,1.487,0,0,0,1.077.47H39.549a.74.74,0,0,0,.539-1.243ZM2.491,8.536H32.658a1.472,1.472,0,0,0,1.077-.47L40.1,1.242A.736.736,0,0,0,39.549,0H9.382A1.472,1.472,0,0,0,8.3.47L1.948,7.294a.74.74,0,0,0,.542,1.243Z" transform="translate(-1.122 0)" fill="url(#linear-gradient)"/>
      <path id="Path_20548" data-name="Path 20548" d="M172.526,21.63H156.387V16.314h20.334V11H156.333A5.3,5.3,0,0,0,151,16.275v5.387a5.3,5.3,0,0,0,5.333,5.283h16.161V32.26h-21.11v5.315h21.142A5.3,5.3,0,0,0,177.86,32.3V26.912a5.3,5.3,0,0,0-5.333-5.283ZM203.793,11h-16.2a5.3,5.3,0,0,0-5.347,5.276V32.3a5.3,5.3,0,0,0,5.347,5.276h16.2a5.3,5.3,0,0,0,5.333-5.276V16.275A5.305,5.305,0,0,0,203.793,11Zm-.04,21.261H187.632V16.314h16.114l.007,15.946ZM260.536,11h-15.8a5.3,5.3,0,0,0-5.333,5.276v21.3h5.387V28.845h15.73v8.731H265.9v-21.3A5.3,5.3,0,0,0,260.536,11Zm-.04,12.53h-15.73V16.314H260.5ZM323.438,11h-15.8a5.3,5.3,0,0,0-5.333,5.276v21.3h5.387V28.845h15.694v8.731h5.387v-21.3A5.305,5.305,0,0,0,323.438,11Zm-.054,12.53h-15.73V16.314h15.73ZM292.139,32.26h-2.155l-7.7-19.034A3.551,3.551,0,0,0,278.991,11h-4.78a3.538,3.538,0,0,0-3.555,3.52V37.575h5.387V16.314H278.2l7.7,19.034a3.561,3.561,0,0,0,3.3,2.212h4.78a3.537,3.537,0,0,0,3.555-3.52V11h-5.4ZM219.271,11h-5.387V32.3a5.3,5.3,0,0,0,5.351,5.276H235.4V32.26H219.271Z" transform="translate(-96.771 -7.049)" fill="url(#linear-gradient-2)"/>
    </g>
    <path id="Path_20550" data-name="Path 20550" d="M-62.172-13.959c0-3.861-2.541-6.666-8.184-6.666h-5.709V0h2.805V-6.831l2.706-.033C-65.406-6.93-62.172-9.306-62.172-13.959Zm-2.838.132c0,2.673-1.782,4.224-5.247,4.29l-3,.066v-8.547h2.772C-66.825-18.018-65.01-16.6-65.01-13.827Zm19.635,6.27c0-4.884-2.937-8.085-7.26-8.085-4.356,0-7.458,3.234-7.458,8.085,0,4.884,3,8.052,7.293,8.052C-48.543.495-45.375-2.706-45.375-7.557Zm-2.673.033c0,3.267-1.65,5.577-4.653,5.577-2.97,0-4.719-2.409-4.719-5.643,0-3.267,1.65-5.61,4.653-5.61C-49.8-13.2-48.048-10.758-48.048-7.524ZM-36.6.066l3.7-11.286L-29.04.066h2.475l4.554-15.18h-3L-27.786-3.861l-3.861-11.187h-2.475l-3.5,11.154-3.2-11.22h-2.9L-39.072.066Zm18.909-7.293,10.164-.066A9.042,9.042,0,0,0-7.194-9.7c0-3.6-2.112-5.907-5.775-5.907-4.224,0-7.458,3.333-7.458,8.217,0,4.62,3.1,7.887,7.656,7.887A9.916,9.916,0,0,0-7.689-.759l-.495-2.508A8.389,8.389,0,0,1-12.7-2.013,4.9,4.9,0,0,1-17.688-7.1Zm.132-1.98a4.384,4.384,0,0,1,4.323-4.026c2.376,0,3.432,1.485,3.432,3.729v.231Zm16.665-.66C.231-11.946,1.617-13,3.069-13a4.648,4.648,0,0,1,2.409.693l.693-2.541a5.446,5.446,0,0,0-2.838-.759c-1.914,0-3.168.99-4.224,2.673v-2.673L-3.6-15.18V0H-.891ZM10.4-7.227l10.164-.066a9.042,9.042,0,0,0,.33-2.409c0-3.6-2.112-5.907-5.775-5.907-4.224,0-7.458,3.333-7.458,8.217,0,4.62,3.1,7.887,7.656,7.887A9.916,9.916,0,0,0,20.394-.759L19.9-3.267a8.389,8.389,0,0,1-4.521,1.254A4.9,4.9,0,0,1,10.4-7.1Zm.132-1.98a4.384,4.384,0,0,1,4.323-4.026c2.376,0,3.432,1.485,3.432,3.729v.231Zm23.925-5.907a11.666,11.666,0,0,0-3.267-.495c-4.521,0-7.689,3.531-7.689,8.118,0,4.554,2.475,7.986,6.732,7.986a6.08,6.08,0,0,0,4.224-1.881V0h2.706V-22.671l-2.706.429Zm0,3.036v8.613a5.5,5.5,0,0,1-3.663,1.452c-2.805,0-4.488-2.211-4.488-5.544,0-3.1,1.716-5.61,4.785-5.61A5.217,5.217,0,0,1,34.452-12.078ZM63.03-7.623c0-4.554-2.475-7.986-6.732-7.986a6.08,6.08,0,0,0-4.224,1.881v-8.943l-2.706.429V.495L52.074,0a12.871,12.871,0,0,0,3.267.495C59.862.495,63.03-3.036,63.03-7.623Zm-2.805.066c0,3.1-1.716,5.61-4.785,5.61a5.217,5.217,0,0,1-3.366-1.089v-8.613A5.5,5.5,0,0,1,55.737-13.1C58.542-13.1,60.225-10.89,60.225-7.557Zm18.381-7.557H75.735L71.478-3.366,67.089-15.114h-2.9L70.059-.33l-.924,2.343c-1.023,2.64-1.749,3.267-2.9,3.267a5.767,5.767,0,0,1-2.409-.726L63.03,7.062a7.638,7.638,0,0,0,3.2.792c2.343,0,3.861-1.155,5.313-4.983L72.567.165Z" transform="translate(-7630 5983)" fill="#fff"/>
  </g>
</svg>
