<svg xmlns="http://www.w3.org/2000/svg" width="236" height="236" viewBox="0 0 236 236">
  <g id="Group_1494" data-name="Group 1494" transform="translate(6742.755 3209.755)">
    <g id="Group_1490" data-name="Group 1490" transform="translate(-6742.306 -3209.306)">
      <rect id="Rectangle_3651" data-name="Rectangle 3651" width="236" height="236" transform="translate(-0.449 -0.449)" fill="none"/>
      <g id="Group_1488" data-name="Group 1488" transform="translate(0.001 34.742)">
        <g id="Group_1489" data-name="Group 1489" transform="translate(0 0)">
          <path id="Path_20376" data-name="Path 20376" d="M3.986,285.744A134.861,134.861,0,0,1,.574,269.8a110.485,110.485,0,0,1,.3-24.768c.069-.666.1-1.336.147-2l.839-3.968c1.092,1.6.6,3.374.475,5.065-.839,11.068-.3,22.006,3.02,32.678,2.747,8.816,6.222,17.309,11.51,24.953.643.969,1.118.544,1.6-.175a44.482,44.482,0,0,1,3.391-4.635c1.078-.695,1.5-2.351,3.18-2.166a1.153,1.153,0,0,1,.134.568,81.394,81.394,0,0,0-4.815,10.172c-1.4,3.906-2.276,7.843-1.545,12.089.775-.078.959-.735,1.332-1.139,3.468-3.757,7.723-6.428,12.162-8.846a1.2,1.2,0,0,1,.973-.1c.554.921-.248,1.291-.752,1.719a34.442,34.442,0,0,0-3.247,2.678,24.374,24.374,0,0,0-5.174,5.036,41.772,41.772,0,0,0-4.567,12.09,12.468,12.468,0,0,0,1.778-2.006c.514-.617,1-1.252,1.5-1.882.312-.4.625-1.09,1.2-.828.687.312.4,1.046.243,1.611a13.676,13.676,0,0,1-1.837,4.21A7.861,7.861,0,0,1,15.305,334a5.087,5.087,0,0,1-4.583-2.52c3.434,5.8,7.042,11.484,13.152,15.013a6.145,6.145,0,0,1,.674.444c.364.28.96.557.74,1.06-.258.588-.914.422-1.444.3a12.111,12.111,0,0,1-1.732-.549,62.093,62.093,0,0,1-6.875-2.844c-.178-.417.049-1.033-.6-1.228-4.949-3-6.317-7.852-6.822-13.153a8.178,8.178,0,0,1,.09-1.734c.157-.711.444-1.256,1.315-.764,1.669,1.677,3.3,3.386,6.04,2.889,1.978-.359,2.377-.833,2.083-2.821a4.12,4.12,0,0,1-.126-.793,16.445,16.445,0,0,0-2.2-9.364c-1.291-2.254-1.057-4.985-.342-7.47.464-1.61.384-2.874-.922-3.967a59.339,59.339,0,0,1-7.975-14.83c-.727-1.92-1.766-3.785-1.794-5.931" transform="translate(0 -222.568)" fill="#c06d0f"/>
          <path id="Path_20377" data-name="Path 20377" d="M34.859,98.077C31.1,93.429,28.838,87.96,26.471,82.565a86.63,86.63,0,0,1-6.833-41.073,54.959,54.959,0,0,0,.3-6.817A73.127,73.127,0,0,1,22.4,21.1c.284-.946.577-2.323,2.085-1.054l1.132,1.3c1,1.447,2.2,2.737,3.209,4.177,2.74,2.985,5.122,6.274,7.865,9.257a1.081,1.081,0,0,1,.331,1.09c-.783.53-1.078,1.12-.378,1.971,1.191,1.447,2.031,3.151,3.3,4.547.479.526,1.122,1.032.735,1.91-.808.351-1.231-.31-1.723-.7a38.8,38.8,0,0,1-9.391-10.578,7.708,7.708,0,0,0-1.614-2.268,6,6,0,0,0-1.465,2.436A39.655,39.655,0,0,0,24.566,41.5c-.086.643-.036,1.359-.791,1.694-1.163-.19-1.117.7-1.2,1.4a58.692,58.692,0,0,0,.709,18.855c2.171,10.838,6.914,20.62,12.011,30.277A8.3,8.3,0,0,1,36.348,95.9c.231,1.18.072,2.181-1.489,2.177" transform="translate(-18.082 -18.185)" fill="#12101b"/>
          <path id="Path_20378" data-name="Path 20378" d="M2546.8,281.764c-.2,7.052-.437,14.1-1.99,21.022-.633,2.811-1.367,5.6-2.057,8.4-.551,4.413-2.781,8.219-4.475,12.212-1.918,4.535-4.807,8.536-7.24,12.789-1.01,5.19-1.59,10.473-3.477,15.466a31.252,31.252,0,0,1-1.652,3.875c-.129.514-.943.937-.436,1.493.422.463,1.078.053,1.631-.049a13.857,13.857,0,0,0,5.092-2.344c.611-.376,1.262-1.073,2-.573a2,2,0,0,1,.449,2.415c-1.568,4.962-3.4,9.8-7.26,13.541-.809.786-1.59,1.6-2.529,2.446,1.971-.368,3.537-1.362,5.275-1.886a11.248,11.248,0,0,0,3.566-1.816c.416-.241.871-.485,1.318-.186a1.283,1.283,0,0,1,.4,1.457,7.561,7.561,0,0,1-.766,1.857c-3.42,6.9-8.664,12.222-14.594,16.961a12.814,12.814,0,0,0-1.6,1.277c1.883-.52,3.67-1.042,5.438-1.623.607-.2,1.422-.655,1.842.041.41.679-.4,1.172-.791,1.684a6.49,6.49,0,0,1-.547.591c-4.576,4.447-9.988,7.7-15.455,10.883-3.727,2.169-7.613,4.014-11.475,5.909-1.115.548-1.389,1.012-1.262,2.4.295,3.165-3.594,5.155-5.463,6.231-1.227.465-2.045,2.006-3.68,1.419-.334-1.439.98-1.878,1.668-2.665a8.953,8.953,0,0,1,2.1-1.515c.9-.454,1.732-1.034,2.623-1.5.238-.132.15.239.072-.019-.006-.027-.074-.023-.174.047a4.563,4.563,0,0,1-4.752.577,4.775,4.775,0,0,0-3.17.146c-.811.224-2,.828-2.338-.149-.32-.929,1.02-1.2,1.744-1.56,5.672-2.812,11.295-5.707,16.738-8.951,4.693-2.8,9.123-5.967,13.881-9.367-1.518.506-2.436,1.357-3.553,1.79-.434.168-.945.416-1.314,0-.412-.464.035-.88.3-1.24a14.019,14.019,0,0,1,1.525-1.612c6.145-6.125,12.422-12.128,17.314-18.8a41.564,41.564,0,0,1-15.492,4.751c-1.1.1-2.229.722-3.35.046-.3-.628.238-.862.561-1.2a32.572,32.572,0,0,1,3.189-1.709,49.078,49.078,0,0,0,16.93-15.5c.137-.205.34-.408.289-.7-3.377,3.683-6.359,4.181-10.521,1.728-3.08-1.813-5.283-4.536-7.445-7.291a1.308,1.308,0,0,1-.264-1.324c.826-.5,1.4.113,2,.485,1.2.745,2.34,1.566,3.523,2.33.787.509,1.258.366,1.277-.65a4.815,4.815,0,0,1,.02-.607c.074-.584-.02-1.378.7-1.508.758-.138,1.135.571,1.469,1.167.262.469.393,1,.9,1.844,1.869-6.594,4.416-12.691,4.588-19.389a7.178,7.178,0,0,0-1.682-4.42c-2.076-3.038-3.975-6.19-6.01-9.252-.432-.646-1.068-1.249-.812-2.166,1.148-.563,1.547.439,2.021,1.059,1.756,2.292,3.385,4.676,5.148,6.962,1.314,1.7,1.359,1.7,2.691-.078.4-.539.768-1.1,1.119-1.676,6.871-10.832,12.334-22.214,13.879-35.147a141.44,141.44,0,0,0,1.014-14.457c.018-.973-.27-2.043.607-2.846.717,2.787.285,5.672.715,8.484" transform="translate(-2311.758 -254.429)" fill="#c37010"/>
          <path id="Path_20379" data-name="Path 20379" d="M691.583,12.6Q699.74,11.02,707.9,9.448c1.583-.3,3.173-.574,4.759-.859,1.659-.292,1.4.561.745,1.393a6.6,6.6,0,0,1-4.167,2.537c-3.27.343-6.332,1.672-9.6,2.03a15.449,15.449,0,0,1-2.161.3c1.191.079,2.417-.687,3.582.105.209,1.133-.72.954-1.282,1a14.967,14.967,0,0,1-4.225-.025c-4.181-.835-8.134.133-12.111,1.217a76.358,76.358,0,0,0-25.889,12.745c-1.4,1.045-2.924,1.911-4.379,2.877-1.436.954-2.879,1.7-4.7,1.057-.956-.337-1.686.362-2.315.944a13.827,13.827,0,0,0-4.763,8.618c-.179,1.443-.067,3.141-1.623,4.1a1.817,1.817,0,0,1-.487-2.025,18.8,18.8,0,0,0,.2-4.474c-2.252,4.843-4.953,9.435-7.659,14.028-1.3,2.2-2.712,4.32-4.165,6.417a5.529,5.529,0,0,1-1.256,1.3c-.37.272-.771.655-1.261.349a1.253,1.253,0,0,1-.426-1.269c.116-1.584,1.1-2.87,1.5-4.362a16.227,16.227,0,0,1,1.8-3.8c2.362-4.5,5.438-8.622,7.027-13.53a6.917,6.917,0,0,1,1.9-3.045,15.884,15.884,0,0,0,3.826-3.419,2.2,2.2,0,0,0,.356-2.41,3.455,3.455,0,0,1,1.548-2.235,35.3,35.3,0,0,1,6.579-5.4,4.891,4.891,0,0,1,2.949-1.025c.888.383,1.539,1.131,2.4,1.549a3.277,3.277,0,0,0,2.474-.576,128.949,128.949,0,0,1,21.836-8.125c4.2-1.067,8.472-1.8,12.677-2.838" transform="translate(-581.609 -7.942)" fill="#2c292e"/>
          <path id="Path_20380" data-name="Path 20380" d="M2841.352,46.727q1.8-1.323,3.6-2.646c.645.768.027,1.369-.273,2a43.921,43.921,0,0,1-9.965,13.276c-.541.5-1.039,1.05-1.562,1.569-4.572,3.634-9.027,7.42-13.953,10.591-1.279.425-2.3,1.593-3.812,1.361a9.986,9.986,0,0,0-2.943-2.05,7.457,7.457,0,0,1-2.547-1.919,2.925,2.925,0,0,1,.309-4.559c1.447-1.293,3.258-2.118,4.578-3.572a8.51,8.51,0,0,1,3.309-1.366c8.223-2.4,15.322-6.939,22.293-11.709a2.216,2.216,0,0,0,.971-.979" transform="translate(-2615.174 -41.04)" fill="#54585c"/>
          <path id="Path_20381" data-name="Path 20381" d="M3155.346,37.4c2.7-2.938,5.713-5.593,7.971-8.925a41.333,41.333,0,0,0,4.139-7.677c.443-.489.889-.978,1.568-1.725a58.1,58.1,0,0,1,2.982,17.536c-.2,4.96-.32,9.917-.771,14.87-1.107,12.169-5.441,23.179-11.623,33.567a26.372,26.372,0,0,1-2.955,4.522c-1.057.145-1.047-.588-.979-1.27a6.084,6.084,0,0,1,.73-2.289c1.645-3.08,2.98-6.305,4.488-9.449A89.612,89.612,0,0,0,3167.43,58a11.077,11.077,0,0,0,.092-5.931,37.626,37.626,0,0,1,.25-5.227,52.925,52.925,0,0,0-.766-12.828,16.889,16.889,0,0,0-.537-2.742c-.262-1.22-.811-1.216-1.605-.426-2.039,2.023-4.053,4.07-6.1,6.079-.607.593-1.111,1.371-2.092,1.424a2.844,2.844,0,0,1-1.324-.955" transform="translate(-2937.68 -17.755)" fill="#15121c"/>
          <path id="Path_20382" data-name="Path 20382" d="M112.027,50.106c-1.038-1.4-2.505-2.526-2.847-4.381l6.729,5.2c2.084,1.079,4.107,2.269,6.15,3.421a53.012,53.012,0,0,0,15.338,5.34,7.132,7.132,0,0,1,3.232,1,45.648,45.648,0,0,0,4.807,3.621,2.151,2.151,0,0,1,.894,2.921,16.126,16.126,0,0,0-1.035,4.7c-.254,2.259-1.235,2.912-3.4,2.185-1.453-.488-2.767-1.391-4.366-1.435a6.3,6.3,0,0,1-3.541-2.293c1.014-4.11-.788-6.537-4.515-8.13-1.968-.841-3.94-1.714-5.88-2.636a28.578,28.578,0,0,1-9.418-7.425,8.732,8.732,0,0,0-2.146-2.093" transform="translate(-101.648 -42.571)" fill="#404247"/>
          <path id="Path_20383" data-name="Path 20383" d="M231.145,81.237c-3.546-.925-7.123-1.748-10.631-2.8a42.9,42.9,0,0,1-13.771-7.279,2.082,2.082,0,0,1,.765.077c10.981,5.964,23.04,8.424,35.118,10.821.987.2,2,.277,2.993.427a3.193,3.193,0,0,0,3.072-1.088c1.836-2.057,4.405-2.56,6.867-3.5,4.9-1.875,10.092-2.135,15.074-3.447,9.738-2.565,19.516-4.965,29.426-6.783.784-.144,1.6-.143,2.4-.209-3.322,1.476-6.934,1.9-10.414,2.779A121.687,121.687,0,0,0,270.7,77.775c-1.514.7-3.086,1.278-4.622,1.935-.514.22-.919.355-.9-.444.052-.972.953-1.385,1.411-2.161-1.195.133-2.262.883-3.49.578-3.461,1.067-6.053,3.384-8.5,5.907-.233.24-.257.851-.84.475-.564-1,.355-1.6.645-2.366a9.617,9.617,0,0,0,.8-2.4c-1.82.551-2.679,1.941-3.409,3.423-2.111,4.28-4.811,8.234-6.9,12.527a1.845,1.845,0,0,1-.9,1.043.733.733,0,0,1-.61-.589c-.1-2.092,1.014-3.869,1.548-5.792,1.789-6.433.968-5.249-3.806-6.3-2.377-.588-4.8-.956-7.2-1.387a8.088,8.088,0,0,1-2.778-.989" transform="translate(-192.48 -62.8)" fill="#b76a18"/>
          <path id="Path_20384" data-name="Path 20384" d="M2556.812,82.44c-1.406,2.536-3.99,3.661-6.262,5.124a73.956,73.956,0,0,1-20.018,9.157c-2.361,1.453-5.115,1.545-7.709,2.128-3.078.691-6.143,1.471-9.4,2.021.98,2.252,2.17,4.41,3.25,6.619,1.033,2.409,2.5,4.584,3.705,6.9.578,1.613,2.355,2.664,2.178,4.631-1.268.309-1.6-.782-2.066-1.5-2.07-3.135-4.064-6.322-6.064-9.5-2.756-4.388-5.547-8.747-10.186-11.467a1.908,1.908,0,0,1-.91-1.039.7.7,0,0,1,.143-.547c2.775.588,5.523,1.227,7.563,3.436a.983.983,0,0,0,1.09.291c7.15-2.087,14.59-2.958,21.705-5.247a85.884,85.884,0,0,0,22.98-11.007" transform="translate(-2330.634 -76.753)" fill="#bf711a"/>
          <path id="Path_20385" data-name="Path 20385" d="M2024.837,82.677c6.521.171,12.2,3,17.917,5.69.167.67.854.835,1.254,1.284.68.654,2.173,1.174,1.4,2.248-.635.878-1.674-.242-2.432-.674a47.308,47.308,0,0,0-15.063-5.464,39.5,39.5,0,0,1-4.107-1c-.684-.2-1.493-.333-1.582-1.3.62-1.089,1.608-.97,2.616-.793" transform="translate(-1882.721 -76.867)" fill="#ba6c1b"/>
          <path id="Path_20386" data-name="Path 20386" d="M1700.148,59.069l-2.415.477c-2.981.507-6.014.09-9.01.59a55.159,55.159,0,0,1-8.392.8c-.968,0-1.979.223-2.8-.531h-4l-.053-.318c3.881-.967,7.76-1.938,11.645-2.884.139-.034.338.175.508.271-.276.75-1.032.827-1.655.995,5.353-1.2,10.717-.569,16.074-.294.328.059.646.126.425.583-.106.1-.215.2-.323.306" transform="translate(-1558.034 -53.259)" fill="#0f0d0f"/>
          <path id="Path_20387" data-name="Path 20387" d="M2318.013,168c-.412-.332-1.266-.424-.7-1.287a29.472,29.472,0,0,1,10.637,5.347,5.773,5.773,0,0,0,2.174,1.366c-.014.091-.021.183-.035.274-.35.782.375,1.2.609,1.788.244.6.814,1.263.146,1.809s-1.223-.145-1.762-.493a21.642,21.642,0,0,1-3.414-3.076,34.814,34.814,0,0,0-7.656-5.729" transform="translate(-2157.279 -155.213)" fill="#b36b1a"/>
          <path id="Path_20388" data-name="Path 20388" d="M1819.292,5.083c-3.685.123-7.349-.5-11.054-.084-2.258.252-4.506.6-6.849.649l3.328-1.423a8.789,8.789,0,0,0,3.926-2.511c.678-.73.3-.979-.473-1.064A9.483,9.483,0,0,1,1811.354,0a5.9,5.9,0,0,1-2.3,2.71c-.342.294-.958.531-.815,1.037.187.66.893.42,1.385.449,3.2.189,6.406.352,9.606.523.142.06.2.133.166.22s-.065.141-.105.141" transform="translate(-1677.124 -0.004)" fill="#a86820"/>
          <path id="Path_20389" data-name="Path 20389" d="M2060.09,68.013c-.021-.119-.043-.24-.058-.361a3.528,3.528,0,0,1,2.759.529,4.313,4.313,0,0,1-2.425.257c.1-.263-.068-.356-.276-.425" transform="translate(-1917.924 -62.934)" fill="#e0c390"/>
          <path id="Path_20390" data-name="Path 20390" d="M466.852,1073.947c.159,1.538-.213,2.019-1.717,1.061a41.3,41.3,0,0,0-5.482-3.48c-2.065-.3-3.637-1.692-5.469-2.514a135.164,135.164,0,0,0-36.209-10.2,113.2,113.2,0,0,0-21.95-.75c-3.334.169-6.719-.083-10.027.617-4.563.9-9.22.984-13.822,1.566-5.469.693-10.934,1.451-16.444,1.76-3.562-.683-7.1-.149-10.593.432a66.063,66.063,0,0,1-19.084.79,4.138,4.138,0,0,0-2.543.265,16.548,16.548,0,0,0,2.9,2.5,118.918,118.918,0,0,1,10.365,8.348,56.123,56.123,0,0,1,4.193,4.637c.49.578,1.167,1.3.507,2.147-.617.79-1.466.428-2.243.22-.391-.1-.759-.278-1.14-.4-1.079-.354-1.668-1.48-2.993-2.01.243,1.829.512,3.324,1.637,4.583a37.544,37.544,0,0,1,8.31,15.183c.394,1.126.889,2.214,1.207,3.364.636,2.3.01,3.076-2.36,2.925a3.009,3.009,0,0,0-.974.107c-3.085.823-5.931,2.313-8.987,3.221a27.653,27.653,0,0,1-15.233-1.178,28.011,28.011,0,0,1-12.921-9.246,40.358,40.358,0,0,1-5.352-9.12,25.848,25.848,0,0,1-1.109-11.949c.348-2.386-.114-2.8-2.448-2.419a11.685,11.685,0,0,0-4.29,1.667c-2.568,1.58-4.993,3.454-8.039,4.126-1.065.233-1.57,1.192-2.254,1.928-1.019,1.1-1.738.936-2.46-.458a22.856,22.856,0,0,0,2.054-5.6c-1.8,2.086-3.08,4.154-5.063,5.666a32.545,32.545,0,0,1,4.75-13.356c4.184-3.131,9.138-4.381,14.045-5.742a78.186,78.186,0,0,0,7.94-2.871c5.04-2,8.438-6.08,12.366-9.491,1.163-1.01,2.1-2.27,3.342-3.2,1.336-1,2.1-.691,2.788.995-.41,1.533-1.539,2.588-2.5,3.761-.321.392-.859.8-.568,1.372.276.543.919.429,1.434.446,1.191.039,2.383.011,3.578-.046a84.661,84.661,0,0,0,10,.4,124.835,124.835,0,0,0,16.644-1.145c1.333-.147,2.7.142,4-.348,8.093-.781,16.181-1.579,24.318-1.856,3.018-.1,6.033-.391,9.061-.331q8.464-.1,16.912.434c12.075.757,24.135,1.67,35.789,5.291,3.58,1.256,7.175,2.482,10.734,3.8,1.961.967,3.929,1.925,5.873,2.929a40.409,40.409,0,0,1,7.38,6.063c1.306,1.489,2.337,3.028,2.144,5.114" transform="translate(-257.726 -974.311)" fill="#04030c"/>
          <path id="Path_20391" data-name="Path 20391" d="M155.8,1446.752c.82,1.12,1.618,1.184,2.263-.127a3.794,3.794,0,0,1,2.958-2.12c2.921-.559,5.162-2.5,7.564-4.044a14.8,14.8,0,0,1,5.691-1.776c1.147-.207,1.819.373,1.715,1.6-.107,1.265-.286,2.522-.391,3.786-.281,3.39.526,6.65,1.213,9.926-.406,2.507-.708,2.692-3.232,2.691a15.149,15.149,0,0,0-5.532.909c-3.206,1.242-4.674,4.544-3.865,8.564a12.815,12.815,0,0,1,.451,1.959c.05,1.205-.452,1.814-1.719,1.432-1.077-.328-2.176-.549-3.259-.837,1.315.4,2.722.485,3.92,1.265,1.882,4.132,5.609,6.143,9.367,8.1a29.987,29.987,0,0,1,2.708,1.31c.51.334,1.047.724.855,1.438-.169.629-.784.646-1.31.728-.2.032-.4.017-.6.039-.7.085-1.709-.263-1.994.531-.3.841.634,1.388,1.152,1.966a7.421,7.421,0,0,0,2.233,1.32c.4.217,1.141.292.733,1.089-2.659.97-5.282-.029-7.922-.146-.366-.016-.773-.352-1.067.155a.715.715,0,0,1-.387.372c-1.112,0-1.792-.825-2.613-1.365a69.623,69.623,0,0,1-7.082-5.238c-.7-.595-1.643-1.245-1.093-2.3.46-.887,1.408-.457,2.181-.321a8.628,8.628,0,0,0,1.2.071c1.556.024,2.993.674,4.517.86a16.266,16.266,0,0,1,1.794.484c-4.492-2.585-8.646-6.332-13.018-9.783-2.377-1.878-4.655-3.874-6.962-5.836a11.093,11.093,0,0,1-2.358-2.742c-.271-.452-.624-.989.234-1.267a22.978,22.978,0,0,1,4.617,1.89c3.26,1.189,6.412,2.684,9.914,3.4-6.935-3.844-11.392-9.8-14.637-16.868,1.783,1.539,3.6,2.928,6.141,2.478a8.525,8.525,0,0,0,5.622-3.589" transform="translate(-133.696 -1339.401)" fill="#100d17"/>
          <path id="Path_20392" data-name="Path 20392" d="M116.6,175.9c.493-.928.852-2.477,1.671-2.534,1.136-.079,1.473,1.5,2.039,2.434A40.171,40.171,0,0,0,131.071,187.5c2.569.838,4.285,2.937,6.425,4.406,1.065.731.141,1.287-.579,1.489-1.551.433-3.157.634-4.481.951a17.332,17.332,0,0,1,6.978,1.318c.811.327,1.8.712,1.716,1.735-.081.969-1.129,1-1.9,1.186a5.291,5.291,0,0,1-2.238.208c.211.14.424.078.6.166.7.358,1.759.564,1.635,1.526-.151,1.172-1.3.578-2.055.673,2.948.091,5.254,1.594,7.473,3.2.573.413,1.854,1.167.305,2.081-.148.088-.24.144-.14.222a3.624,3.624,0,0,1,.48.366c2.631,2.876,3.547,6.083,2.065,9.853A23.051,23.051,0,0,1,143.246,224a107.2,107.2,0,0,1-8.267,9.033c-.348.346-.631.955-1.309.531-1.315.427-1.838,1.8-2.947,2.469-1.673-1.035-3.368-2.052-3.757-4.229a7.611,7.611,0,0,1,2.611-1.839c3.029-1.744,4.268-4.505,4.591-7.816a9.347,9.347,0,0,0,.01-1.409c-.338-6.273-1.147-12.385-5.238-17.569-.792-1-2.295-2.178-.482-3.769.5-.439-.395-1.022-.742-1.455a74.616,74.616,0,0,1-10.1-17.582A11.065,11.065,0,0,1,116.6,175.9" transform="translate(-108.558 -161.406)" fill="#593b38"/>
          <path id="Path_20393" data-name="Path 20393" d="M362.909,498.544a123.426,123.426,0,0,0,9.121-9.663,47.636,47.636,0,0,0,9.162-11.315c.419-.694.562-1.722,1.728-1.652-.319,1.817-1.884,3.285-1.446,5.92,6.137-7.32,9.934-15.54,14.437-23.858.868,2.978-.1,5.421-.044,7.866.581.626.282,1.276-.012,1.87-1.25,2.533-1.765,5.368-3.234,7.81a2.976,2.976,0,0,0-.294.75c-.225.828-.7,1.744.4,2.294.97.482,1.651-.07,2.245-.8,2.96-3.65,5.687-7.493,9.2-10.676,1.248-1.13,2.5-2.254,3.834-3.266.65-.49,1.393-1.378,2.281-.57.8.731.252,1.667-.123,2.422a41.556,41.556,0,0,1-4.453,6.948,32.228,32.228,0,0,1-3.622,4.058,61.538,61.538,0,0,0-10.017,12.062c-2.015,2.668-3.807,5.492-5.732,8.223-.29.411-.706.963-.313,1.469s1,.172,1.5.067c1.575-.329,3.1-.854,4.658-1.242.823-.2,1.677-.594,2.5.042-.039,1.1-1.023,1.169-1.7,1.4a122.98,122.98,0,0,0-12.548,5.047,3.588,3.588,0,0,1-.764.261c-.785.173-1.687.5-2.148-.447-.442-.905.269-1.5.89-2.035,2.188-1.887,4.6-3.544,6.294-5.944.407-.575,1.059-1.052.965-2.072a38.842,38.842,0,0,0-3.706,2.8c-2.137,1.526-4.21,3.14-6.313,4.712a10.442,10.442,0,0,1-2.952,1.729c-1.493.484-2.406-.3-2.135-1.852a13.354,13.354,0,0,1,1.126-3.236,4.632,4.632,0,0,0,.5-2.847,23.39,23.39,0,0,0-2.693,3.6,12.292,12.292,0,0,1-1.567,2.1c-1.9,1.75-4.36,1.026-5.11-1.494q.041-.242.083-.484" transform="translate(-337.797 -426.384)" fill="#272730"/>
          <path id="Path_20394" data-name="Path 20394" d="M268.113,966.886c2.058,2.744,3.849,2.706,5.753-.1.94-1.386,1.916-2.748,2.878-4.12.257-.367.407-1.021.961-.858.684.2.341.912.406,1.405.218,1.664-1.112,2.848-1.374,4.363-.149.863-1.178,1.805-.2,2.577,1.008.795,1.963-.191,2.7-.724,3.519-2.557,6.953-5.23,10.413-7.866.213-.163.371-.417.6-.534.443-.22.9-.837,1.408-.336.435.431.152,1.023-.125,1.494a21.615,21.615,0,0,1-4.323,5.01c-1.042.937-2.2,1.746-3.294,2.626-.463.371-1.132.756-.8,1.445.357.733,1.048.375,1.59.148,2.35-.983,4.711-1.947,7.028-3,2.68-1.222,5.655-1.672,8.216-3.191a1.283,1.283,0,0,1,1.234-.838c.692-.01,1.384.1,1.591.861s-.432,1.175-.941,1.58c-.774.615-1.673,1.038-2.5,1.577-5.677,3-11.375,5.951-17.284,8.476a17.242,17.242,0,0,0-4.406,2.352c-.313.258-.676.457-1.078.125-5.633,2.691-10.7,6.134-14.586,11.146-2.549-4.277.648-16.473,6.127-23.611" transform="translate(-243.084 -894.241)" fill="#0b0a13"/>
          <path id="Path_20395" data-name="Path 20395" d="M64.459,392.75c.938,1.616,2.6,2.589,3.64,4.117-1.243,1.742-2.514,3.465-3.718,5.234-.6.884-1.091,1.209-1.67.028,1.35-.633,1.437-1.532.735-2.774a125.9,125.9,0,0,1-10.275-22.2c-2.946-8.887-4.742-17.97-3.357-27.417.144-.983-.16-2.028.422-2.952.213-.339.407-.8.882-.641.455.155.3.68.376,1.055.829.991.543,2.187.513,3.29a71.575,71.575,0,0,0,3.823,25.554,56.561,56.561,0,0,0,7.688,14.776c.423.584,1.04,1.086.941,1.929" transform="translate(-45.935 -322.237)" fill="#09070f"/>
          <path id="Path_20396" data-name="Path 20396" d="M377.856,919.119l2.512-1.646c.392-.257.958-.517.87-1.006-.125-.685-.819-.539-1.342-.573-.063-1.017.832-1.047,1.429-1.329a19.572,19.572,0,0,0,3.976-2.158,22.533,22.533,0,0,1,3.459-2.16c1.214-.254,2.073-1.178,3.153-1.671.7-.323,1.46-1.162,2.246-.086a1.95,1.95,0,0,1-.576,1.261,60.815,60.815,0,0,0-6.793,9,.681.681,0,0,1-.84.365c-.62-1.535-1.479-1.516-2.566-.436-2.089,2.08-4.393,3.969-6.392,6.1-4.657,4.961-10.581,7.407-16.859,9.257-4.8,1.413-9.664,2.6-13.89,5.457-.112.076-.374-.07-.566-.113a18.025,18.025,0,0,1,5.026-4.943,47.408,47.408,0,0,1,9.672-3.336c3.915-1.091,7.346-3.247,10.9-5.114a31.7,31.7,0,0,0,6.748-4.707c.926-.851.906-1.52-.166-2.164" transform="translate(-321.829 -845.326)" fill="#272730"/>
          <path id="Path_20397" data-name="Path 20397" d="M445.688,1069.227c.615.143,1.534-.368,1.8.392.258.73-.469,1.314-.98,1.842a30.788,30.788,0,0,1-7.662,5.4c-4.815,2.613-9.688,5.144-15.171,6.138-1.771.32-3.252,1.615-5.143,1.546,1.256-1.659,3.3-2.412,4.616-4a21.3,21.3,0,0,1,6.1-3.294c5.616-2.389,10.956-5.351,16.437-8.022" transform="translate(-389.661 -995.433)" fill="#2a2b33"/>
          <path id="Path_20398" data-name="Path 20398" d="M117.508,1718.677q-2.324-.842-4.649-1.684c-.569-.119-1.141-.494-1.7.02-.547-.021-1.125-.006-1.122-.794,0-.36.117-.713.513-.745.865-.068,1.765-.942,2.6.056a7.874,7.874,0,0,0,3.587,2.437c.446.151.763.178,1-.269.287.141.665.273.578.66-.09.4-.546.18-.807.319" transform="translate(-102.443 -1596.743)" fill="#fdedb1"/>
          <path id="Path_20399" data-name="Path 20399" d="M115.645,1522.527c-.12-.135-.241-.268-.361-.4,0-.667-.005-1.335.009-2,.008-.412.1-.93.545-.939.625-.014.629.557.615,1.04-.288-.114-.69-.646-.749.163-.052.709-.041,1.427-.058,2.139" transform="translate(-107.331 -1414.386)" fill="#fdedb1"/>
          <path id="Path_20400" data-name="Path 20400" d="M92.851,266.152c-5.942-7.111-9.346-15.4-11.4-24.341-1.605-7-1.727-14.089-1.568-21.209.552-2.736,1.079-5.479,1.674-8.206a17.775,17.775,0,0,1,.811-2.262,70.62,70.62,0,0,0,8.659,17.818,34.988,34.988,0,0,0,3.913,5.087c.54.565.982,1.17-.326,1.231-1.206.057-.925.727-.541,1.333.9,1.415,1.96,2.733,2.763,4.2,1.366,2.486,2.563,4.91,2.65,8.008.064,2.281.989,4.624,1.03,7.067.084,5.036-2,8.625-6.583,10.745-.365.169-.723.355-1.084.533" transform="translate(-74.326 -195.638)" fill="#8c695c"/>
          <path id="Path_20401" data-name="Path 20401" d="M278.739,286.28c-1.419,1.443-2.037,3.409-3.263,4.984-2.12,2.726-4.063,5.6-6.8,7.783-.226.179-.444.583-.825.2a23.64,23.64,0,0,0,4.451-8.476c.968-3.644-.365-6.406-3.116-8.683-.257-.213-.559-.372-.98-.647.944-.4,1.587.395,2.309-.289-2.474-2.646-5.69-3.817-9.14-4.692.823-.583,1.813.062,2.716-.616-.818-1.024-2.128-1.218-3.267-1.965a19.053,19.053,0,0,0,5.6-1.089c-3.312-2.408-6.814-2.537-10.617-2.75,2.284-1.4,4.625-1.332,6.939-1.969l-6.619-5.231c-1.534-2.143-3.078-4.279-4.6-6.431-1-1.411-.806-1.81.925-2.014.635-.307,1.059.134,1.39.508,3.041,3.432,7.023,5.6,10.779,8.068a4.635,4.635,0,0,1,1.6,1.494l3.229,2.043a14.194,14.194,0,0,1,4.251,2.247,14.462,14.462,0,0,0,1.673,1.122c3.428,1.775,5.15,1.152,6.625-2.4a23.815,23.815,0,0,0,1.286-3.606c.459-1.935.767-3.842-.921-5.45-.448-.427-.358-.521.052-1.267,6.4.876,5.636.634,4.322,6.263-.5,2.132-1.329,4.187-2.008,6.277.146,2.22-1.256,4.075-1.455,6.214-.9,2.285-2.251,4.377-2.908,6.767a18.688,18.688,0,0,0-1.634,3.606" transform="translate(-233.616 -236.75)" fill="#06040d"/>
          <path id="Path_20402" data-name="Path 20402" d="M172.684,129.409c-4.944-2.873-9.753-5.932-13.771-10.07l-8.46-10.11c1.4.023,1.845,1.3,2.595,2.094a31.36,31.36,0,0,0,9.2,6.984c2.355,1.123,4.794,2.048,7.072,3.361,3.756,2.165,4.467,2.235,3.362,7.742" transform="translate(-140.073 -101.693)" fill="#55575b"/>
          <path id="Path_20403" data-name="Path 20403" d="M953.917,1226.283c.2.032.4.064.594.1.877.157,2.02,1.233,2.537.359.545-.92-.7-1.761-1.357-2.551-4.522-5.472-10.422-9.335-15.914-13.675a8.156,8.156,0,0,1-.93-.756c-.219-.232-.516-.577-.48-.826.075-.511.6-.435.985-.43,1.937.027,3.866.181,5.8.313a61.382,61.382,0,0,0,14.377-.854c3.882-.655,7.8-1.432,11.788-.669-.015.9-.765.833-1.307.9-6.681.875-13.239,2.4-19.807,3.853-1.486.328-2.929-.248-4.333-.018-.318.572.065.827.319,1.112,3.68,4.109,8.251,7.085,12.861,9.991a9.839,9.839,0,0,0,7.167,1.355,6.5,6.5,0,0,0,5.651-7.683c-.175-1.2-.64-2.337-.9-3.516-.233-1.051-1.1-2.544.316-3.037,1.485-.519,1.842,1.193,2.344,2.219,1.682,3.447,3.218,6.962,4.643,10.522a4.432,4.432,0,0,0,4.634,3.15c2.439-.094,3.419-.751,3.889-3.217a31.276,31.276,0,0,1,5.582-12.634c.646-.889,1.333-2.421,2.535-1.808,1.37.7.26,2.092-.175,3.011a12.562,12.562,0,0,0-.632,9.981,4.727,4.727,0,0,0,4.05,3.432,15.957,15.957,0,0,0,11.617-3.1,112.325,112.325,0,0,1,10.64-6.555c1.9-1.02,3.691-2.217,5.516-3.36a2.462,2.462,0,0,0,1.322-2.72c-.6-2.5-1.451-4.3-4.016-4.669a41.27,41.27,0,0,0-10.057-.121c-3.3.336-6.588.149-9.88.163a1.543,1.543,0,0,1-1.273-.5,1.248,1.248,0,0,1,1.082-.406c7.511-.186,15.027-.767,22.534-.36a111.9,111.9,0,0,1,26.763,4.7c6.473,1.978,13.05,3.644,19.048,6.912,1.405.765,2.981,1.253,4.115,2.471a29.446,29.446,0,0,0,7.886,8.222c3.041,2.05,5.9,1.851,8.683-.44.774-.637,1.541-1.28,2.334-1.938-.667,4.787-10.687,14.029-20.9,19.314-.895-1.067-.644-2.281-.285-3.408a8.4,8.4,0,0,0-.193-6.224c-.775-1.734-.183-3.091,1.126-4.263.2-.154.37-.387.68-.287.007-.216-.171-.23-.305-.249-1.176-.165-2.375.023-3.548-.231-2.75-1.068-4.918-3.22-7.852-4.025-1.892-.521-3.926.014-5.7-.99-.511-.29-1.476-.047-1.31-1.124.424-.452.66-.892-.109-1.233a4.135,4.135,0,0,0-2.926-.423,8.692,8.692,0,0,1-3.6.246,50.234,50.234,0,0,0-21.294,1.991,37.806,37.806,0,0,0-10.87,5.4c-.624.451-1.106,1.212-2.047,1.067-.827-.923-.01-1.887.046-3.018-5.778,4.73-9.55,10.354-10.3,17.761a4.827,4.827,0,0,0,.819,2.62,20.785,20.785,0,0,0,.324,4.323c-.829.713-1.461,1.622-2.3,2.331a1.843,1.843,0,0,1-2.065-.458c-1.531-2.156-2.016-4.808-3.393-7.06a11.057,11.057,0,0,0-5.967-4.885c-6.153-2.07-12.358-3.143-18.626-.147a14.014,14.014,0,0,0-5.364,4.123c-1.259,1.661-2.541,3.308-3.66,5.068a5.023,5.023,0,0,1-4.237,2.333c-.846.045-1.823.046-1.835-1.244.225-.118.46-.358.671-.337,2.754.265,2.954.041,2.093-2.537-.359-1.074-.758-2.135-1.139-3.2.617-1.246.229-2.479-.117-3.682a46.944,46.944,0,0,0-5.833-12.532c-.373-.579-1.088-1.1-.535-1.951" transform="translate(-873.633 -1120.151)" fill="#0c0a14"/>
          <path id="Path_20404" data-name="Path 20404" d="M1850.4,168.165a25.668,25.668,0,0,1-5.667-2.828c-.3-.244-.71-.448-.326-.929.366-.232.79-.082,1.548-.243a55.951,55.951,0,0,0-8.271-4.744c-5.475-2.618-11.391-4.13-16.891-6.691-2.277-1.172-4.4-2.606-6.571-3.956-1.069-.665-1.962-1.474-1.633-2.938.215-.954-.4-1.461-1.008-2.03-.968-.9-2.5-1.977-1.639-3.294,1-1.534,2.562-.315,3.764.289a28.216,28.216,0,0,0,5.884,2.617c.759.185,1.709.754,2.246-.031.521-.762-.469-1.278-.9-1.806a95.534,95.534,0,0,1-5.91-7.92c-.425-.645-1.028-1.294-.739-2.207,1.151-.915,1.885,0,2.561.682,3.5,3.526,7.173,6.866,10.944,10.093a137.741,137.741,0,0,0,12.938,9.225.924.924,0,0,0,.994.193,7.365,7.365,0,0,0-2.238-1.96c-3.384-2.3-6.718-4.68-10.054-7.053a2.738,2.738,0,0,1-1.374-1.659c.789-1.2,1.975-.919,2.842-.408,4.428,2.613,9.861,2.725,14.118,5.725a1.023,1.023,0,0,0,.369.158c.674.138,1.476.886,1.991.111.386-.581-.315-1.233-.728-1.743-1.9-2.355-4.226-4.3-6.264-6.534a48.4,48.4,0,0,1-6.378-8.757,5.967,5.967,0,0,0-1.274-1.8c-2.93-4.786-6.046-9.457-8.839-14.329a84.263,84.263,0,0,0-5.655-8.513,42.355,42.355,0,0,0-13.179-10.706,14.36,14.36,0,0,0-3.244-1.054,3.91,3.91,0,0,0-4.817,1.843,13.852,13.852,0,0,1-2.021,2.236,22.384,22.384,0,0,1-2.559,2.29,5.243,5.243,0,0,1-1.579.808c-.767.028-1.744.674-2.236-.143-.461-.77.338-1.479.835-2.1.966-1.206,1.784-2.512,2.636-3.795.612-.918.5-1.487-.717-1.577a2.709,2.709,0,0,1-1.515-.483c-4.33-3.392-9.568-3.934-14.729-4.727-.706-.109-1.682.221-1.9-.93,5.3-.159,10.5-1.51,15.835-1.213a8.875,8.875,0,0,1,1.541.362c.166,1.236,1.262,1.047,2.02,1.217,6.294,1.407,12.606,2.73,18.249,6.081.8.478,1.613.949,2.668,1.569-.3-1.287-1.444-1.565-1.906-2.369,2.856.564,4.82,2.578,6.916,4.34,1.875,1.579,3.422,3.542,5.7,4.989.238-1.126-.52-1.686-.835-2.4-.2-.44-.979-1.112.3-1.227,7.659,4.6,11.181,12.567,15.89,19.567,1,1.486,1.676,3.211,3.154,4.35a10.047,10.047,0,0,1,3.533,3.753c2.29,3.39,4.851,6.578,7.263,9.876a2.833,2.833,0,0,0,1.187,1.046c1.614,1.245,2.419,3.047,3.3,4.8.308.931,1.18,1.737.648,2.858,2.466,3.846,4.953,7.677,7.383,11.545.849,1.346,1.91,2.644,1.708,4.412-.944,1.1-1.53.229-2.083-.423-2.519-2.974-4.689-6.226-7.289-9.137a9.511,9.511,0,0,0-2.307-2.128,17.927,17.927,0,0,0,2.651,4.876c1.429,2.207,2.917,4.381,3.439,7.02.187.938.885,2.121-.3,2.729-1.136.585-1.792-.523-2.438-1.28-1.177-1.381-2.3-2.805-3.522-4.153-2.717-3-6.254-4.849-9.646-6.9-.665-.4-1.359-.76-2.015-1.187,3.417,2.6,6.982,5.009,9.935,8.176a18.835,18.835,0,0,1,2.809,3.925c.31.575.827,1.222.133,1.811a1.665,1.665,0,0,1-1.912.064,12.04,12.04,0,0,1-2.59-1.917,36.241,36.241,0,0,0-6.035-4.367,4.982,4.982,0,0,0-.892-.471c-.56-.2-1.262-.6-1.648.043-.454.76.406,1.057.868,1.312,2.631,1.455,4.295,3.835,5.973,6.188a2.939,2.939,0,0,1,.23,3.727.574.574,0,0,1-.726.157" transform="translate(-1650.886 -79.411)" fill="#2d2d34"/>
          <path id="Path_20405" data-name="Path 20405" d="M1753.16,1743.3c-1.254.1-1.924,1.125-2.847,1.762-8.025,5.545-53.488,9.34-53.331,8.332.331-1.247,1.326-.856,2.122-.809a127.464,127.464,0,0,0,18.931-.08c2.61-.233,5.228-.053,7.852-.338a46.758,46.758,0,0,0,14.846-4.314c2.911-1.362,5.738-2.894,8.655-4.37-1.908-.567-3.724-1.336-5.736-.7-4.938,1.554-10.082,2.395-14.917,4.311a3.126,3.126,0,0,1-2.36.143c-.784-1.285.479-1.406,1.089-1.674a17.413,17.413,0,0,0,5.612-3.735,8.357,8.357,0,0,0,3.387-7.878c1.455-1.583,3.563-1.512,5.395-1.9a44.781,44.781,0,0,0,19.284-9.189,61.562,61.562,0,0,1,5.555-4.018,4.192,4.192,0,0,0,2.015-2.418c1.889-1.507,4.253-1.9,6.421-2.745a51.72,51.72,0,0,0,6.377-2.033c.225-.165-.262-.342-.056-.166.071.061.047.134-.088.176-1.747.575-3.394,1.487-5.289,1.578-.8-.468-.538-1.136-.286-1.747a35.4,35.4,0,0,0,2.077-5.806,1.494,1.494,0,0,1,1.188-1.214,47.468,47.468,0,0,0,20.315-5.875,179.715,179.715,0,0,1-20.67,22.721c2.08-.31,3.479-2.233,6.266-2.245a125.68,125.68,0,0,1-16.451,11.3c-5.609,3.293-11.444,6.156-17.458,9.109,1.12.421,1.82-.146,2.574-.329.795-.194,1.732-.6,2.362-.245,2.686,1.515,4.815.061,7.062-1.133a8.928,8.928,0,0,1-3.835,3.006c-1.541,0-2.567,1.187-3.887,1.7-.719.28-1.315.89-2.172.823" transform="translate(-1579.917 -1581.413)" fill="#0d0b15"/>
          <path id="Path_20406" data-name="Path 20406" d="M2568.754,1488.748c-.92,2.857-2.422,5.517-2.863,8.535.031.964-.9.643-1.324.991-2.178.68-4.33,1.417-6.432,2.294a2.824,2.824,0,0,1-1.951.259c-1.012-.528-.746-1.31-.363-2.062a21.9,21.9,0,0,1,2.547-3.862,16.062,16.062,0,0,0,3.064-5.854,4.391,4.391,0,0,0-1.062-4.664,4.566,4.566,0,0,0-4.914-.788,43.226,43.226,0,0,0-4.99,2.171,5.715,5.715,0,0,1-5.223.265c-.244-.965.441-1.627.807-2.376,1.547-3.128,2.8-6.324,2.691-9.9,0-1.479-.109-2.955-.025-4.427.143-2.415,1.166-2.981,3.436-1.947,1.7.376,3.2,1.173,5.131,1.082,1.887-.091,3.873.889,5.617,1.9,1.436.831,2.8,1.777,4.209,2.673-.145,1.107-1.135.985-1.826,1.183a27.037,27.037,0,0,0-7.473,3,37.425,37.425,0,0,0,5.8-1.828,24.121,24.121,0,0,1,5.025-1.461c.732-.115,1.475-.293,2.1.3-1.748,1.478-1.762,3.13-.746,5.085a5.561,5.561,0,0,1,.121,4.467,11.445,11.445,0,0,0-.566,4.287c-.262.224-.527.448-.789.673" transform="translate(-2369.616 -1365.699)" fill="#1a161f"/>
          <path id="Path_20407" data-name="Path 20407" d="M2791.842,1010.216c1.447-1.218.912-2.54.059-3.721-1.773-2.44-3.6-4.852-6.359-6.316-.523-.279-1.479-.492-.975-1.407a1.512,1.512,0,0,1,2.2-.708,34.593,34.593,0,0,1,7.188,4.756c.934.762,1.828,1.578,2.8,2.3a1.277,1.277,0,0,0,1.682.007c.41-.435-.238-.811-.439-1.2-2.281-4.391-6.189-7.156-10.018-10a12.353,12.353,0,0,1-3.564-3.268c5.406,2.752,10.9,5.348,14.748,10.324.9,1.166,1.871,2.281,2.832,3.4.3.354.707.728,1.221.427s.318-.809.225-1.27a20.105,20.105,0,0,0-3.227-7.3c-1.055-1.555-2.031-3.162-2.982-4.784-.273-.472-.9-1.146-.238-1.6.52-.353,1.154.21,1.559.639,1.334,1.417,2.691,2.82,3.9,4.336,1.758,2.192,3.414,4.466,5.07,6.734.459.626.932.944,1.688.593.322,2.885-.613,5.586-1.264,8.314-1.016,4.227-2.365,8.358-3.871,12.723-.9-1.525-1.068-3.114-2.168-4.431-.59.8-.238,1.638-.447,2.343-.646-3.7-3.447-5.816-6.033-8.059-1.143-.995-2.582-1.635-3.582-2.824" transform="translate(-2592.331 -921.461)" fill="#0c0a14"/>
          <path id="Path_20408" data-name="Path 20408" d="M2998.492,531.922q-.5-1.322-1-2.645c.965-.264,1.242.571,1.705,1.083.988,1.092,1.816,2.316,2.838,3.387a1.558,1.558,0,0,0,2.572.04c1.234-1.229,2.512-2.414,3.65-3.738,6.154-7.723,9.7-16.615,11.734-26.18.166-.777.154-1.63,1.01-2.064,1.131,1.671.451,3.508.111,5.109-2.131,9.967-6.336,19.154-10.9,28.2-.564,1.118-1.947,2.388-.527,3.882-2.32,4.173-2.332,4.179-5.039.557-1.527-2.046-3.012-4.125-4.541-6.17a3.3,3.3,0,0,0-1.613-1.465" transform="translate(-2790.712 -467.19)" fill="#08070d"/>
          <path id="Path_20409" data-name="Path 20409" d="M2477.4,2304.672a36.473,36.473,0,0,1,4.9-2.834c.455-.27.988-.592,1.162.309-1.416,1.158-3.033,2.1-4.025,3.715a15.12,15.12,0,0,1-4.549,3.508c1.322-1.34,2.564-2.693,2.514-4.7" transform="translate(-2304.157 -2142.785)" fill="#020108"/>
          <path id="Path_20411" data-name="Path 20411" d="M3084.246,1466.2c1.885-.367,2.105-.136,1.617,1.7a3.96,3.96,0,0,1-2.584.189c-.047-.846.578-1.31.967-1.888" transform="translate(-2870.582 -1364.917)" fill="#fdf1c1"/>
          <path id="Path_20412" data-name="Path 20412" d="M822.587,103.492c2.279.386,4.566.725,6.833,1.168,3.339.652,6.658,1.432,9.4,3.591a3.608,3.608,0,0,0,2.341.91c1.775.021,2,.472.947,2a30.405,30.405,0,0,1-3.4,4.733A4.441,4.441,0,0,0,838.12,117l2.254-.181c-.063,1.284-1.211,1.5-2.032,1.954-6.758,3.742-13.724,7.082-20.633,10.528-2.52,1.256-4.759,3.036-7.459,3.944a1.979,1.979,0,0,0-.59.105c-5.968,3.534-13.055,4.721-18.7,8.989-1.9,1.433-4.309,2.086-6.725,3.458,4.581-2.329,8.88-4.358,13.3-6.137a1.272,1.272,0,0,1,1.733.57c-.067,1.25-1.12,1.6-1.983,2a70.787,70.787,0,0,0-7.2,3.909,25.105,25.105,0,0,1-2.548,1.223c-2.766.859-4.869,2.78-7.123,4.454-3.988,2.962-7.766,6.2-11.8,9.1-.446.321-.953.455-1.39.749l-3.23,2.024c-2.854,1.772-6.118,2.225-9.32,2.808-1.626.3-2.475-.685-2.517-2.543-.048-2.132,1.218-3.76,2.138-5.52,2.724-4.859,6.486-8.859,10.459-12.693a43.566,43.566,0,0,0,7.344-10.018,3.222,3.222,0,0,0,.368-.932c.1-.486.653-1.034.042-1.466-.508-.359-.87.227-1.208.47a54.287,54.287,0,0,0-8.775,8.279c-1.725,1.949-3.229,4.1-4.782,6.193a2.329,2.329,0,0,1-3.208.69c-1.082-.557-.681-1.618-.326-2.505q1.677-4.195,3.4-8.371a4.693,4.693,0,0,0,.729-2.269c1.221-1.791,1.124-3.944,1.563-5.936.808-3.656,3.251-6.039,5.988-8.24.233-.188.743-.386.893-.273,2.415,1.832,4.089-.179,5.743-1.258,6.327-4.129,12.281-8.9,19.444-11.581,6.309-2.356,12.557-5.136,19.5-5.007,2.128.04,4.25.506,6.4.369.648-.041,1.361.2,1.9-.382l2.825-.012" transform="translate(-700.265 -96.353)" fill="#3a3b40"/>
          <path id="Path_20413" data-name="Path 20413" d="M677.676,259.955c-.139-2.577,1.412-4.551,2.4-6.724.882-1.92,1.135-4.1,2.388-5.867,2.33-5.371,5.619-10.221,8.364-15.367a4.111,4.111,0,0,1,3.391-2.108c-.079,2.1-1.257,3.679-2.026,5.407l-1.6,2.024a21.293,21.293,0,0,1-4.044,6.06c-1.47,1.78-1.892,4.058-2.892,6.045-1.812,3.6-3.971,7.029-5.985,10.529" transform="translate(-630.919 -214.031)" fill="#151117"/>
          <path id="Path_20414" data-name="Path 20414" d="M806.472,343.677a24.374,24.374,0,0,1,4.045-6.06c.6.535,1.019,1.189.435,1.912-1.288,1.594-2.476,3.319-4.48,4.147" transform="translate(-750.838 -314.327)" fill="#272730"/>
          <path id="Path_20415" data-name="Path 20415" d="M1023.657,198.4a17.472,17.472,0,0,1,4.215-1.286c-.186,1.472-1.294,2.07-2.137,2.869a4.049,4.049,0,0,1-2.078-1.582" transform="translate(-953.042 -183.514)" fill="#272730"/>
          <path id="Path_20416" data-name="Path 20416" d="M2759.85,322.351c-1.3.089-1.445-1.174-1.969-1.849-3.316-4.28-6.52-8.65-9.754-12.989-.412-1.754-1.9-2.944-2.447-4.627.826-.963,1.209.107,1.615.44,2.34,1.915,2.459,1.937,4.611-.212,2.137-2.135,4.461-4.068,6.744-6.042a5.3,5.3,0,0,0,1.531-1.837q6.876-5.241,13.758-10.482c.551.028,1.17-.062,1.227.759-.111.971-.877,1.49-1.516,2.046-3.482,3.038-6.91,6.139-10.187,9.377a14.02,14.02,0,0,1,2.643-.479c.535-.01,1.207-.032,1.357.591.125.505-.445.769-.842,1-1.385.807-2.9,1.381-4.389,2.342.715.422,1.652-.151,2.008.646.184.415-.2.73-.469,1.023-.49.521-1.314.7-1.57,1.489.527.487,1.021.077,1.48-.064,2.309-.712,4.633-1.359,7-1.84.7-.143,1.432-.51,2.094.12a.547.547,0,0,1-.037.536,8.835,8.835,0,0,1-2.812,1.5,49.435,49.435,0,0,0-10.812,6.222c.869,0,1.84-.584,2.293.3.414.82-.361,1.471-.869,2.084-.127.154-.281.291-.412.439-3.295,3.62-3.3,3.734-.8,7.866.3.5.783.956.531,1.64" transform="translate(-2556.272 -265.108)" fill="#090710"/>
          <path id="Path_20417" data-name="Path 20417" d="M2634.352,300.469c-1.32-2.542-2.637-5.084-4.242-8.177a4.557,4.557,0,0,0,3.91.313c4.844-1.079,9.7-2.1,14.553-3.137-.941,1.651-2.752,2.242-4.139,3.352-1.984,1.588-2.1,2.771-.311,4.623a10.958,10.958,0,0,0,3.039,1.9c.824.434,1.748.779,1.83,1.921.09.92-.686,1.063-1.26,1.311a28.978,28.978,0,0,1-6.67,2.183c-2.967.5-4.275-.1-5.746-2.787a4.123,4.123,0,0,0-.965-1.506" transform="translate(-2448.676 -269.499)" fill="#474a4e"/>
          <path id="Path_20418" data-name="Path 20418" d="M2691.58,437.547c.174.092.449.142.51.283,1.8,4.247,5.08,4.177,8.666,2.9a19.851,19.851,0,0,0,5.467-2.381l3.588-1.644c.676,1.187-.482,1.574-1.041,2.045-2.559,2.159-5.062,4.376-7.443,6.734-1.812,1.8-2.436,1.764-4.354.05-.494-.441-.713-1.358-1.664-1.176a41.832,41.832,0,0,1-3.729-6.807" transform="translate(-2505.903 -406.577)" fill="#2c2c35"/>
          <path id="Path_20419" data-name="Path 20419" d="M3051.227,242.5a78.105,78.105,0,0,1-4.5,15.1,46.114,46.114,0,0,1-8.088,13.589c-2.748.949-6.832-1.066-7.646-3.91a30.846,30.846,0,0,1-.889-11.211,6.678,6.678,0,0,1,.922-2.66c1.746-3.112,3.588-6.171,6.385-8.5v0c.9-2.051,2.436-3.691,3.6-5.583a140.511,140.511,0,0,0,8.039-14.9c.6-1.308.6-1.306,1.654-.895a51.639,51.639,0,0,1,.49,18.169,4.612,4.612,0,0,0,.033.8" transform="translate(-2820.937 -207.88)" fill="#8a6659"/>
          <path id="Path_20420" data-name="Path 20420" d="M2995.771,173.261c-1.012-.507-.916.464-1.111.9A117.35,117.35,0,0,1,2983.4,193.89a4.61,4.61,0,0,1-.91.753c-1.773-.592-3.334.42-4.973.726a43.9,43.9,0,0,0-5.01,1.458c-.541.169-1.023.39-1.373-.286s.135-1,.563-1.31c.688-.494,1.408-.938,2.193-1.451-.77-.585-1.3-.135-1.85-.039-.375.065-.871.229-1.049-.262-.164-.456.262-.772.582-.948,1.754-.96,3.537-1.871,5.578-2.94-1.875-.5-3.32.454-5.059.419,4.047-4.38,8.506-8.1,12.807-11.992,2.857-2.229,5.135-5.059,7.779-7.506.521-.484.945-1.365,1.738-1.2.984.207.605,1.336.926,2.017a8.613,8.613,0,0,1,.432,1.93" transform="translate(-2766.005 -157.615)" fill="#553836"/>
          <path id="Path_20421" data-name="Path 20421" d="M532.5,269.227a.394.394,0,0,0-.007.672c2.522,1.852,1.94,4.282,1.215,6.7a23.646,23.646,0,0,1-2.03,5.008,3.272,3.272,0,0,1-4.062,1.649c-3.194-.736-5.416-3.069-8.081-4.672,1.5-.344,2.657.481,3.907,1.083,2.383,1.144,3.112.641,3.4-1.968a12.376,12.376,0,0,1,1.14-4.634c.5-.919.211-1.334-.586-1.932-1.691-1.269-3.608-2.255-5.032-3.87a66.207,66.207,0,0,1,10.14,1.966" transform="translate(-483.696 -248.825)" fill="#25252d"/>
          <path id="Path_20422" data-name="Path 20422" d="M714.991,477.942a24.893,24.893,0,0,1-2.388,5.865,22.01,22.01,0,0,1,1.962-6.255l.426.391" transform="translate(-663.445 -444.608)" fill="#713d10"/>
          <path id="Path_20423" data-name="Path 20423" d="M1087.13,1210.493c5.984.3,11.944-.449,17.924-.431a27.064,27.064,0,0,1,4.183.486c2.635.417,3.065,2.775,3.671,4.709.576,1.833-.522,3.011-2.237,3.957-4.168,2.295-8.177,4.879-12.306,7.254-1.862,1.072-3.356,2.632-5.351,3.549-3.092,1.427-6.19,2.369-9.652,1.921a5.249,5.249,0,0,1-4.694-3.744,12.36,12.36,0,0,1,.6-10.132,10.046,10.046,0,0,0,.574-1.5c.156-.465.753-1.046.074-1.393-.565-.288-.961.4-1.247.8a35.954,35.954,0,0,0-4.333,7.245,24.459,24.459,0,0,0-1.83,6.145c-.235,1.91-1.021,3.5-3.247,3.755-3.225.375-5.167-.536-6.208-2.925-1.627-3.747-3.218-7.509-4.879-11.24-.362-.813-.71-2.343-1.585-2.027-1.3.47-.194,1.795.005,2.626.551,2.274,1.437,4.415.7,6.871a6.339,6.339,0,0,1-4.242,4.673,11.085,11.085,0,0,1-10.1-1.551c-4.461-2.973-8.875-6-12.534-9.987-.325-.354-.73-.591-.619-1.15.124-.635.644-.706,1.092-.608,4.335.946,8.291-.907,12.391-1.654,4.206-.764,8.383-1.69,12.652-2.079.17-.016.327-.215.488-.329q6.973-.751,13.949-1.5c4.12-.443,8.235-.98,12.364-1.283,1.475-.109,2.917-.425,4.391-.455" transform="translate(-958.745 -1126.589)" fill="#292a31"/>
          <path id="Path_20424" data-name="Path 20424" d="M900.522,719.609c.8-.422,1.446-1.164,2.437-1.2.211,1.2-.629,1.847-1.376,2.5-1.045.915-2.211,1.684-3.3,2.624,2.33-.561,3.142-.361,3.549,1.4,1.068,4.609,4.539,5.953,8.538,6.171,6.711.366,13.417-.251,20.124-.594,3.559-.183,7.094-.539,10.637-.873,1.473-.138,3.117-.256,4.329,1.034-1.454,1.264-3.46,1.063-5.084,1.919-1.033.544-2.946.378-3,1.578-.062,1.387,1.828,1.14,2.878,1.593.633.271,1.508.436.9,1.483a3.631,3.631,0,0,1-2.173.258,66.86,66.86,0,0,0-15.9.156c-3.206.37-6.2,1.257-7.887,4.487-.7,1.345-2.205,1.931-3.387,2.811-4.3,1.177-8.761,1.274-13.14,1.918-3.6.529-7.247.247-10.846.752-2.093.293-4.151-.254-6.223-.4-1.26-.091-2.075.2-2.457,1.429-1.408.015-2.821.124-4.218.014-1.123-.087-1.81-.567-.786-1.782,1.158-1.376,2.237-2.82,3.351-4.234a63.721,63.721,0,0,1,8.083-10.513c1.972-3.049,4.846-5.192,7.582-7.453,2.3-1.9,4.482-4.006,7.369-5.067" transform="translate(-813.37 -668.847)" fill="#44474d"/>
          <path id="Path_20425" data-name="Path 20425" d="M411.368,1677.021a3.709,3.709,0,0,0,5.328-.961c1.141-1.572,2.335-3.109,3.379-4.74,2.827-4.416,7.307-6.06,12.069-6.738a24.594,24.594,0,0,1,16.463,3.6c1.793,1.083,2.755,2.938,3.674,4.7.947,1.817,1.572,3.8,2.338,5.713a.791.791,0,0,1-.564.234c-4.723-1.348-9.53-2.344-14.328-3.387-2.207-.479-3.524-1.834-3.507-3.864.3,2.014-.056,2.586-1.6,2.123-.857-.258-1.473-.7-1.071-1.764a6.214,6.214,0,0,0,.306-1.971c.012,3.213-1.759,4.937-4.678,5.8-3.227.959-6.4,2.083-9.57,3.222-1.575.707-3.285.993-4.9,1.581a37.555,37.555,0,0,0-10.947,5.661c-1.038.727-2.017,1.625-3.454,1.215-4.475-1.259-9.1-1.833-13.6-2.985a7.631,7.631,0,0,1-2.988-.937,16.467,16.467,0,0,0-3.432-3.091c-4.573-3.218-8.379-7.34-12.772-10.764a3.513,3.513,0,0,0-5.4.826,2.1,2.1,0,0,0-.068,2.77c1.211,1.558,1.152,3.324.731,5.13-1.356.42-2.6-.212-3.884-.428a6.514,6.514,0,0,0-2.349-.314.939.939,0,0,1-.558-.219c-.892-.279-1.808-.5-2.67-.854s-1.887-.2-2.925-1.216c1.811.382,3.277.62,4.7,1.013,1.679.462,1.891-.105,1.444-1.6-1.057-3.55-1.025-6.9,2.142-9.533a9.539,9.539,0,0,1,6.823-1.8c2.144.131,3.109-.489,3.838-2.2a59.6,59.6,0,0,0,5.249,8.5c1.015,2.332,3.11,3.727,4.857,5.374,6.038,5.7,13.433,6.795,21.331,5.932.628-.069,1.363-.053,1.684-.814a59.074,59.074,0,0,1,8.9-3.218" transform="translate(-326.225 -1546.648)" fill="#26252c"/>
          <path id="Path_20426" data-name="Path 20426" d="M1376.435,988.215c3.286-2.568,4.958-7.117,10.058-7.49,5.488-.4,10.947-.893,16.446-.3,1,.107,2.008.089,3.016.129.79-.752,1.741-.522,2.666-.428,3.668.373,7.314.9,10.943,1.541,9.611,1.961,18.957,5.052,28.635,6.741.618.385,1.087.877.722,1.644a1.585,1.585,0,0,1-1.747.723c-2.6-.216-5.2-.537-7.783-.936a140.9,140.9,0,0,0-29.477-1.2,3.526,3.526,0,0,0-1.551.359c-8.117.1-16.207.778-24.3,1.325-3.066.207-6.112.75-9.2.76-.841.007-2.043.972-2.2-.833.517-.9,1.422-.9,2.289-1,12.633-1.489,25.274-2.84,38.028-2.429a.782.782,0,0,0,.418-.091,11.177,11.177,0,0,0-4.9-.665c-10.009.5-20,1.272-29.952,2.452-.718.085-1.478.3-2.11-.3" transform="translate(-1277.969 -912.415)" fill="#50555a"/>
          <path id="Path_20427" data-name="Path 20427" d="M803.612,1638.439c.615,1.035,1.182,2.1,1.855,3.1,1.792,2.651,4.086,4.238,7.477,3.3,1.978.2,2.238,2,3.048,3.286a5.735,5.735,0,0,1-5.058,4.223,31.651,31.651,0,0,0-4.807-5.312,15.394,15.394,0,0,0-9.426-4.04c-1.814-.069-2.029.284-1.031,1.729,2.906,4.207,6.587,7.217,12.011,7.335a2.828,2.828,0,0,1,1.554.322c.57.931-1.044.9-.753,1.713a20.135,20.135,0,0,1-5.337.021c-6.136-2.338-9.746-7.049-12.136-12.911-.248-.9-.575-1.765-.83-2.654-.247-.862-.358-1.7.485-2.346,1.615-.389,3.21-.864,4.835-1.229,2.622,1.346,5.6,1.852,8.113,3.466" transform="translate(-735.503 -1522.188)" fill="#e3a613"/>
          <path id="Path_20428" data-name="Path 20428" d="M1890.189,1061.667c.994-1.417,2.675-.967,3.893-1.03a146.759,146.759,0,0,1,16.8.132c5.27.332,10.442,1.336,15.688,1.756.861.071,1.708.3,2.568.368.486.036,1.155.237,1.376-.466.181-.586-.527-.7-.73-1.1.486-.551.049-1.045-.1-1.557.228-.551-.1-1.146.131-1.7,8.9,3.588,18.423,5.866,26.267,12.186-1.222.676-2-.007-2.842-.056-1.9.116-3.383-1.094-5.092-1.6-1.652-.486-3.2-1.361-5-1.248-4.477-1.1-8.941-2.236-13.5-2.946-4.3-.669-8.61-1.1-12.933-1.537-8.821-.891-17.663-1.128-26.515-1.211" transform="translate(-1759.797 -985.086)" fill="#36373f"/>
          <path id="Path_20429" data-name="Path 20429" d="M981.506,1059.777c6.9-.832,13.819-1.477,20.741-2.11,3.744-.344,7.5.056,11.233-.632a9.672,9.672,0,0,1,7.089,1.543c-.7.625-1.318.378-1.874.387-6.313.111-12.646-.308-18.937.45-6.168.741-12.406.83-18.534,1.965-1.1.206-2.3-.211-3.352.456-2.376,1.405-5.1,1-7.651,1.319a54.823,54.823,0,0,1-9.21.688,2.2,2.2,0,0,0-1.72.4,55.509,55.509,0,0,1-10.479-.465c-.645-2.229-.557-2.282,1.834-2.012,5.2.59,10.378.119,15.573-.242,5.129-.356,10.183-1.25,15.287-1.742" transform="translate(-883.04 -983.976)" fill="#61666c"/>
          <path id="Path_20430" data-name="Path 20430" d="M778.88,1440.171a54.8,54.8,0,0,1,9.5,3,1.623,1.623,0,0,1,1.172,2.061,58.131,58.131,0,0,0-.125,6.6c-1.173.828-2.3.065-3.443-.107-.722-.109-1.455-.138-2.167-.31a10.254,10.254,0,0,0-5.771-1.105c-.908-.1-1.591-.559-1.575-1.491.052-3.08.423-6.093,2.412-8.644" transform="translate(-722.904 -1340.823)" fill="#5c3b08"/>
          <path id="Path_20431" data-name="Path 20431" d="M669.333,1428.662a37.164,37.164,0,0,0-1.954,7.962c-.079,1,.054,1.748,1.295,1.7-.542,1.251-1.9,1.026-2.834,1.576-1.854.552-3.8.857-5.372,2.131-.639.521-1.089.355-1.385-.384-.68-3.841.021-7.605.638-11.371a3.353,3.353,0,0,1,1.217-2.449,52.058,52.058,0,0,1,8.395.838" transform="translate(-613.358 -1329.316)" fill="#726a66"/>
          <path id="Path_20432" data-name="Path 20432" d="M749.814,1725.99a22.246,22.246,0,0,0,10.822,12.046,1.423,1.423,0,0,1,.843.795c-6.432-.575-12-2.905-16.233-7.964.344-.851.761-1.662,1.074-2.532a3.2,3.2,0,0,1,3.494-2.345" transform="translate(-693.837 -1606.906)" fill="#f4f4ea"/>
          <path id="Path_20433" data-name="Path 20433" d="M1114.72,1507.489a68.109,68.109,0,0,1,5.281,9.76,38.5,38.5,0,0,1,1.786,5.292c.236,1.008.954,2.342-.583,3.115a35.56,35.56,0,0,0-8.459-15.1c-1.139-1.208-.929-2.871-1.6-4.228a.86.86,0,0,1,.443-1.035c.448-.276.75.042,1.05.31.7.624,1.391,1.256,2.087,1.882" transform="translate(-1034.435 -1401.359)" fill="#1c1b23"/>
          <path id="Path_20434" data-name="Path 20434" d="M714.643,1637.677c-1.7.491-3.024,1.331-3.189,3.32a1.87,1.87,0,0,1-1.378,1.558,9.638,9.638,0,0,1-2.258-2.851c.024-1.237.323-2.457-.206-3.7a2.4,2.4,0,0,1,.757-2.547c.673-.74,1.191-1.6,1.853-2.343,1.422.211,2.5,1.173,3.77,1.724-1.042.849-.146,1.714.006,2.551a23.223,23.223,0,0,0,.646,2.289" transform="translate(-658.665 -1518.594)" fill="#e1dfce"/>
          <path id="Path_20435" data-name="Path 20435" d="M1125.38,1699.18c-.989-1.064-1.538-2.491-2.773-3.351.512-.449,1.383-.374,1.671-1.146,2.033-.761,2.033-.761,1.269-2.823.438-.726.432-2.055,1.271-2.109.894-.062.973,1.264,1.418,1.97a13.579,13.579,0,0,1,.946,2c1.881,4.475,1.72,4.95-2.484,7.436-1.02-.269-.916-1.289-1.316-1.971" transform="translate(-1045.165 -1573.183)" fill="#724908"/>
          <path id="Path_20436" data-name="Path 20436" d="M724.682,1794.947c.264.033.686-.023.763.115.338.6-.263.583-.577.692a18.578,18.578,0,0,1-8.12.769c-4.6-.456-9.1-1.277-12.917-4.283-2.639-2.078-4.762-4.657-7.16-6.969a.469.469,0,0,1,.138-.815c7.275,8.853,16.676,12.056,27.873,10.491" transform="translate(-648.443 -1661.358)" fill="#45464c"/>
          <path id="Path_20437" data-name="Path 20437" d="M659.366,1394.155c8.672-3.051,26.564,4.292,29.537,8.947-8.983-5.35-18.435-9.162-29.537-8.947" transform="translate(-613.881 -1297.312)" fill="#1d1e2a"/>
          <path id="Path_20438" data-name="Path 20438" d="M663.85,1599.263c-1.141,2.312-3.056,4.425-1.754,7.354.107.238-.451.772-.7,1.169a22.406,22.406,0,0,1-3.638-7.3c-.318-.571-.119-.941.454-1.163a16.671,16.671,0,0,1,6.429-2.493c-.012.891-.691,1.566-.791,2.431" transform="translate(-612.242 -1486.677)" fill="#bdbaac"/>
          <path id="Path_20439" data-name="Path 20439" d="M871.46,1596.515c1.955-.259,3.72.778,5.63.832l1.59,5.247a28.789,28.789,0,0,1-8.05-3.085,5.639,5.639,0,0,1,.83-2.994" transform="translate(-810.571 -1486.343)" fill="#af7108"/>
          <path id="Path_20440" data-name="Path 20440" d="M643.469,1440.422q-.228.584-.455,1.165c-1.626-3.971-1.271-8.111-1.043-12.239.014-.261.22-.531.188-.775-.333-2.452,1.092-2.622,2.923-2.287-.95,4.144-2.018,8.271-1.3,12.6a4.568,4.568,0,0,1-.31,1.541" transform="translate(-597.499 -1327.774)" fill="#544c4c"/>
          <path id="Path_20441" data-name="Path 20441" d="M1105.339,1130.415a.824.824,0,0,1,.967-.776c4.8.106,9.5-.935,14.262-1.228,1.128-.069,2.195-.608,3.354-.4.292,1.275,1.352.589,2.058.807-1.543.837-3.281.475-4.893.612-5.237.445-10.465,1.221-15.748.984" transform="translate(-1029.088 -1050.153)" fill="#44474d"/>
          <path id="Path_20442" data-name="Path 20442" d="M1051.931,1826.486c.768.438.846,1.335,1.317,1.97a14.271,14.271,0,0,1-8.553,3.937c-.194-.418-.9-.187-.979-.8.451-.631,1.423-.008,1.839-.727.412-.566.9-.842,1.579-.428a7.133,7.133,0,0,0,4.8-3.951" transform="translate(-971.717 -1700.489)" fill="#ba790a"/>
          <path id="Path_20443" data-name="Path 20443" d="M2657.781,1187.705a2.931,2.931,0,0,1,2.682-.088c2.461,1,4.943,1.959,7.416,2.933q.2.4.4.806a87.514,87.514,0,0,1-10.5-3.65" transform="translate(-2474.438 -1105.429)" fill="#0c0a14"/>
          <path id="Path_20444" data-name="Path 20444" d="M1148.049,1720.365a1.578,1.578,0,0,1,1.105,2.228c-.428,1.247-1.465.849-2.374.592-.061-1.156.742-1.926,1.269-2.819" transform="translate(-1067.669 -1601.689)" fill="#ebe6df"/>
          <path id="Path_20445" data-name="Path 20445" d="M131.044,1738.7l-4.079-4.732c-.561-1.082-1.481-1.984-1.666-3.262a6.127,6.127,0,0,1-.063-.918c.806-.165,1.229.483,1.766.9.154,1.617,1.435,2.462,2.482,3.384,5.254,4.616,10.711,8.989,16.261,13.246,1.65,1.267,3.509,2.2,5.6,3.526a9.1,9.1,0,0,1-3.821-.758,24.351,24.351,0,0,0-4.175-2.033,35.331,35.331,0,0,1-7.275-4.459c-1.71-1.6-3.9-2.7-5.029-4.895" transform="translate(-116.587 -1610.435)" fill="#ca730d"/>
          <path id="Path_20446" data-name="Path 20446" d="M431.491,1895.113c.175-.02.349-.041.524-.062,2.72.1,5.229,1.2,7.873,1.658.569.239,1.193.308,1.756.568,1.8,1.814,3.992,3.142,5.927,4.786,2.516,2.141,5.779,2.753,8.583,4.295.341.187.873.279.771.763-.092.438-.6.465-1.007.49-.874.071-1.711-.234-2.576-.242-2.8-.208-5.6-.388-7.577-.745,1.377.045,3.5.62,5.688.6,7.115.631,14.27.841,21.325,2.063a.955.955,0,0,1,.468.493c-1.172,1.743-2.035,3.834-4.568,4.049-5.347-.271-10.684-.661-16.019-1.107-2.531-.212-5.1-.047-7.576-.77a.5.5,0,0,1-.265-.618c-1.656-.9-3.552-1.435-4.586-3.239-.263-.459-.772-.8-.514-1.413.248-.587.786-.674,1.349-.67a3.581,3.581,0,0,0,.806-.012c.793-.165,2.094.52,2.275-.492.154-.859-1.221-1.1-1.98-1.412a25.893,25.893,0,0,1-9.57-6.474,3.521,3.521,0,0,1-1.107-2.51" transform="translate(-401.724 -1764.323)" fill="#1c1a22"/>
          <path id="Path_20447" data-name="Path 20447" d="M490.084,2128.685l.02-.472c2.491-.405,4.882.553,7.343.536-.079,1.5,1.087,1.71,2.136,2.049,5,1.606,9.566,4.247,14.5,6.022a39.018,39.018,0,0,0,9.116,2.437,1.706,1.706,0,0,1,.774.452,18.957,18.957,0,0,0,10.044,8.153c.445.154,1.346.248.812,1.185a5.148,5.148,0,0,1-3.723,0,77.87,77.87,0,0,1-13.829-4.716,11.914,11.914,0,0,0-3.229-1.93,150.263,150.263,0,0,1-21.433-11.383c-.949-.628-2.288-.91-2.531-2.334" transform="translate(-456.276 -1981.309)" fill="#0a0912"/>
          <path id="Path_20448" data-name="Path 20448" d="M260.519,1969.028a123.463,123.463,0,0,0,20.764,11.714c1.154.529,2.3,1.084,3.443,1.627.11.558-.317.626-.682.752-1.6.079-2.927-.791-4.327-1.349-1.253-.5-1.331.035-1.144,1.013.523.977,1.046,1.952,1.814,3.382a14.1,14.1,0,0,0-5.953-2.555,1.343,1.343,0,0,1-1.175.147c-.682-.574.024-.942.232-1.351.986-1.95.8-2.756-1.154-3.719-3.683-1.813-7.453-3.438-11.019-5.5a62.759,62.759,0,0,1-13.321-9.748,13.48,13.48,0,0,1-1.619-2.051,14.879,14.879,0,0,1-2.863-4.116c-.044-.608.378-.637.81-.654q3.658,1.336,7.314,2.69c.471.309,1.2.339,1.239,1.128-.2.013-.4.018-.6.036-.838.073-2.057-.845-2.4-.038-.465,1.084.973,1.566,1.684,2.163a97.228,97.228,0,0,0,8.961,6.424" transform="translate(-226.711 -1821.65)" fill="#cc730e"/>
          <path id="Path_20449" data-name="Path 20449" d="M491.762,2120.319q-3.819-.475-7.639-.935c-.381-.405-.925-.92.25-.705a60.124,60.124,0,0,0,9.015.809c.011.108.02.216.026.323a1.821,1.821,0,0,1-1.145.619.748.748,0,0,1-.507-.111" transform="translate(-450.295 -1972.478)" fill="#5f6066"/>
          <path id="Path_20450" data-name="Path 20450" d="M362.084,1991.48c-.425-.251-.85-.506-1.274-.756.53-.682,1.489-.206,2.063-.766,1.5.5,3.073.885,3.984,2.375-1.657.081-3.156-.716-4.773-.854" transform="translate(-335.92 -1852.685)" fill="#f2c52f"/>
          <path id="Path_20451" data-name="Path 20451" d="M691.9,899.969a4.257,4.257,0,0,1-.723,2.252,7.159,7.159,0,0,0-.892,3.644c.114,1.438.77,2.056,2.247,1.651,3.005-.826,6.122-1.218,9.067-2.292-1.071,1.306-2.689,1.676-4.114,2.37-.534.26-1.156.341-1.543.86l-1.2.41c-2.646.111-5.032,1.329-7.6,1.8-.677.124-1.352.43-1.836-.239-.451-.62.091-1.176.39-1.643a78.149,78.149,0,0,1,6.2-8.812" transform="translate(-637.876 -837.887)" fill="#2a2b33"/>
          <path id="Path_20452" data-name="Path 20452" d="M990.782,734.76a89.245,89.245,0,0,0-13.3,11.086c-.516.512-1.1.958-1.647,1.434-1.135-.585-1.774.443-2.6.825-.881.407-1.519,1.339-2.649,1.207,5.612-4.556,11.158-9.2,17.148-13.257.888-.6,1.695-1.679,3.05-1.3" transform="translate(-903.629 -683.999)" fill="#2a2b33"/>
          <path id="Path_20454" data-name="Path 20454" d="M737.023,2308.89a3.375,3.375,0,0,1-1.094-2c2.455-.1,4.249,1.738,6.5,1.934,1.23.5,2.678.506,3.632,1.621,3.386,1.154,6.761,2.344,10.164,3.447,2.472.8,4.958,1.627,7.626,1.395.8-.648,1.678-.311,2.512-.15a127.554,127.554,0,0,0,22.239,2.016,160.677,160.677,0,0,0,40.6-4.062,2.16,2.16,0,0,1,2.113.176c2.476.271,4.494-1.221,6.737-1.826,3.807-1.029,7.671-1.854,11.424-3.119,2.021-.68,4.065.693,6.184.682.817-.008.4.656-.088,1.063-1.172.969-2.649,1.283-3.959,1.949a75.776,75.776,0,0,1-12.535,5.48,50.541,50.541,0,0,1-11.245,1.854c-7.044.467-14.1.313-21.146.438-1.493.029-2.974-1.18-4.46-.053a3.258,3.258,0,0,0-1.985.406c-2.836-.58-5.64.324-8.467.191-2.461-.156-4.9-.686-7.392-.389a1.061,1.061,0,0,1-.652-.146,119.326,119.326,0,0,1-33.926-5.338,46.48,46.48,0,0,1-10.528-4.916,3.07,3.07,0,0,0-2.254-.654" transform="translate(-685.162 -2147.754)" fill="#020108"/>
          <path id="Path_20461" data-name="Path 20461" d="M1934.867,1699.092c3.4.679,6.09-1.273,8.936-2.5,2.282-.986,4.444-1.237,6.426.348,1.863,1.491,1.987,3.994.87,6.877-1.183,3.069-3.708,5.252-5.145,8.14-.291.583-.968,1.061-.142,1.7-.846,1.689-2.7,1.3-4.041,1.967a73.636,73.636,0,0,1-7.1,1.96c-1.531-.793-.268-1.362.267-1.628,1.927-.958,3.169-2.673,4.736-4.023a5.068,5.068,0,0,0,1.821-3.28,6.125,6.125,0,0,1,2.386-4.354c-4.9,1.432-8.817,4.738-13.282,7.025a4.561,4.561,0,0,0-1.16,1.106,5.261,5.261,0,0,1-2.862,1.329c-4.74.942-9.511,1.667-14.314,2.245a20.783,20.783,0,0,1-8.951-.753,35.17,35.17,0,0,0-8.636-1.868,6.054,6.054,0,0,1-2.169-.522c-.893-.456-1.961-.435-2.806-1.027a.474.474,0,0,1-.133-.528c.3-1.082.642-2.115,2.05-2.117a5.664,5.664,0,0,1,3.7-.413c4.275.729,8.417,2.073,12.685,2.862a1.047,1.047,0,0,1,.631.459c.262.2-.391.436-.046.509,3.738.775,7.462.968,11.072-.579a31.553,31.553,0,0,0,10.861-7.529,2.6,2.6,0,0,0,.795-1.369,9.8,9.8,0,0,1,3.551-4.032" transform="translate(-1759.187 -1578.813)" fill="#26242b"/>
          <path id="Path_20462" data-name="Path 20462" d="M2246.042,1437.869c-2.827,0-2.825,0-2.827,2.9q0,1.979-.009,3.961c-.82.519-1.312.178-1.629-.62a37.645,37.645,0,0,1-.519-4.354c0-1.644-.718-2.331-2.333-2.115-2.085-.016-4.167-.027-6.25,0-2.014.023-2.1.161-1.58,2.084a22.274,22.274,0,0,1,1.074,8.342,3.3,3.3,0,0,1-.265.967,3.567,3.567,0,0,1-.668,1.037c-2.455,2.015-2.455,2.015-1.212,4.992a5.181,5.181,0,0,1-3.138,5.315,4.251,4.251,0,0,1-4.133-1.437,20.248,20.248,0,0,1-4.854-8.163,30.785,30.785,0,0,1-.9-4.076,15.348,15.348,0,0,1-.092-6.454,1.956,1.956,0,0,1,1.046-2.379,52.991,52.991,0,0,1,18.945-2.412c2.352.1,4.665.91,7.058-.2.619-.29,1.755.448,2.621.79.607.239,1.5.532,1.379,1.25-.138.845-1.092.492-1.718.574" transform="translate(-2063.504 -1336.185)" fill="#000006"/>
          <path id="Path_20463" data-name="Path 20463" d="M1930.789,1474.081c-.4.637-1.049,1.223-.433,2.073-2.317,1.419-4.929,2.346-6.986,4.2-1.366,1.034-3.237,1.46-3.966,3.271-2.155,3.256-4.461,6.421-5.935,10.077-.508,1.3-1.148,2.547-1.617,3.86-.331.929-.525,1.854.739,2.283,2.561.69,4.937,2.143,7.733,1.818,2.091.217,3.883,1.43,5.975,1.739,6.105.905,11.431-1.043,16.354-4.376a28.045,28.045,0,0,0,6.694-6.381,12.632,12.632,0,0,0,2.125-2.993c.205-.335.377-.685.553-1.036a17.53,17.53,0,0,0,2.105-7c.023-.6-.084-1.411.89-1.507.045.807.61.854,1.22.835-.1,4.336-1.8,8.12-4.021,11.728l-3.23,4.054c-.584,1.858-2.234,2.824-3.606,3.874-5.091,3.889-10.791,6.192-17.334,5.942a3.43,3.43,0,0,1-2.1-.558c-4.606-1.066-9.21-2.164-13.829-3.18-1.02-.225-2.1.464-3.153-.04a4.683,4.683,0,0,1-.4-4.438c1.545-6.372,4.984-11.749,8.86-16.9a1.235,1.235,0,0,1,.853-.479c3.637-3.26,7.986-5.229,12.514-6.87" transform="translate(-1776.54 -1372.393)" fill="#070507"/>
          <path id="Path_20464" data-name="Path 20464" d="M1314.842,1883.757a1.076,1.076,0,0,0,.023.312c1,.733.29,1.288-.244,1.762a3.768,3.768,0,0,1-2.651.782,12.928,12.928,0,0,1-5.52-1.05c-4.028-1.948-8.393-2.011-12.6-1.921a22.344,22.344,0,0,0-8.01,1.511,2.264,2.264,0,0,1-2.174.85c-2.448.139-4.869.461-7.295.834-1.43.219-3.079.814-4.125-.931-.117-.533.278-.789.586-1.1q2.427-.756,4.849-1.514a59.351,59.351,0,0,0,7.288-1.438c5.8-1.29,11.58-.812,17.4-.261,3.406.323,6.731.987,10.075,1.627l.408,0c.662.181,1.322.362,1.986.54" transform="translate(-1184.461 -1751.273)" fill="#9fa5a9"/>
          <path id="Path_20465" data-name="Path 20465" d="M2144.094,1387.559c-3.2-.763-6.443-.383-9.653-.377a41.817,41.817,0,0,0-19.234,5.057c-.5.259-1.031.99-1.494.178-.373-.646.293-1.1.78-1.445a35.414,35.414,0,0,1,14.448-5.787,36.515,36.515,0,0,1,12.405-.041,9.7,9.7,0,0,1,3.022,1.065c.4.216,1.01.359.9.929-.126.636-.764.339-1.173.422" transform="translate(-1967.8 -1289.115)" fill="#000006"/>
          <path id="Path_20466" data-name="Path 20466" d="M1907.3,1521.154c-3.515,4.958-7.021,9.92-8.793,15.851a7.1,7.1,0,0,1-.916,1.524,2.068,2.068,0,0,1-1.179-2.321,26.232,26.232,0,0,1,4.721-12.442c1.641-2.324,3.9-4.072,5.842-6.115.229-.239.537-.536.863-.3a.878.878,0,0,1,.145,1.112,4.729,4.729,0,0,0-.683,2.689" transform="translate(-1765.572 -1412.599)" fill="#24232d"/>
          <path id="Path_20467" data-name="Path 20467" d="M2721.527,1557c-3.932.034-7.312,2.019-10.957,3.067-1.057.3-2.084.913-3.41.355a10.4,10.4,0,0,1,4.49-2.581c2.053-.764,4.162-1.366,6.25-2.038,1.1,0,2.213-.049,3.314.02,1.127.069.93.593.313,1.177" transform="translate(-2520.409 -1448.463)" fill="#393139"/>
          <path id="Path_20468" data-name="Path 20468" d="M1292.669,338.308c-.1.542,1.662,1.092-.007,1.627-.767.634-1.545.232-2.286-.017a52.07,52.07,0,0,1-5.984-2.4c-5.767-2.763-11.8-4.865-17.774-7.106a36.867,36.867,0,0,0-7.232-1.763c-1.556-.467-3.346-.057-4.706-1.25a6.527,6.527,0,0,0-5.034-.712,68.227,68.227,0,0,1-11.567,1.017c-6.091.286-12.194.77-18.311.522a18.053,18.053,0,0,1-6.153-1.578c-1.6-.671-2.552-2.826-2.865-4.642-.34-1.979-1.173-2.145-2.749-1.605a17.975,17.975,0,0,1-2.161.438c2.032-2.344,5-3.33,6.405-5.961a32.021,32.021,0,0,1,7.072-4.042,5.048,5.048,0,0,0,2.231-1.6c.358-1.323,1.7-1.67,2.6-2.339a47.288,47.288,0,0,1,8.295-4.96c9.288-5.389,19.15-9.68,28.537-14.88a19.088,19.088,0,0,0,1.788-1.271q.6-.406,1.207-.81c.868,1.172.009,1.858-.745,2.536-1.96,1.764-4.343,2.93-6.362,4.605a118.363,118.363,0,0,0,12.748-.671,37.775,37.775,0,0,1,18.741,2.92c5.176,2.242,8.827,6.713,11.119,12.048a73.13,73.13,0,0,1,3.039,8.978,35.793,35.793,0,0,0,2.736,6.937c.359.683.967,1.466.32,2.235-.6.715-1.485.437-2.276.282a35.949,35.949,0,0,1-16.066-8.046c-.519-.429-.975-.929-1.534-1.307-.047-.03-.125-.013-.2-.019.217.615.7,1.125.688,1.822,1.862,3.906,4.729,7.1,7.408,10.425.473.586,1.5,1.042.847,1.987-.59.862-1.573.573-2.413.369a31.93,31.93,0,0,1-7.342-3.216c-.856-.455-2.03-1.315-2.683-.284-.548.867.56,1.843,1.279,2.458,1.061.908,2.384,1.423,1.435,3.325-.4.8.777,1.43,1.5,1.893,2.142,1.368,4.3,2.7,6.455,4.054" transform="translate(-1122.654 -265.318)" fill="#494d53"/>
          <path id="Path_20469" data-name="Path 20469" d="M1962.62,281.056c-1.072-.726-1.273-1.925-1.972-3.274,2.68,1.132,4.16,3.218,6.192,4.587a37.53,37.53,0,0,0,13.542,5.859c.594.122,2.109.536,1.25-.993-2.97-5.271-3.572-11.407-6.189-16.763-3.573-7.31-8.68-12.7-17.449-13.771-3.715-.453-7.379-1.415-11.147-1.055-4.268.407-8.54.652-12.819.763-.449.011-.9,0-1.633,0,1.5-2.244,3.794-2.951,5.478-4.406,1.054-.91,2.729-1.379,2.531-3.269l2.425-2.026c2.176-1.046,4.486-.559,6.722-.455a17.49,17.49,0,0,1,7.165,1.792,48.474,48.474,0,0,1,9.966,6.34c2.368,2.3,3.867,5.226,5.588,7.979,3.033,4.854,5.975,9.765,8.957,14.652,1.661,3.06,3.358,6.1,5.262,9.025,1.032,1.589,2.436,2.862,3.516,4.4.547.773,1.282,1.6.659,2.544-.671,1.024-1.81.736-2.762.431-2.937-.941-5.837-1.984-8.737-3.021-1.632-.583-3.388-.9-4.828-2,.753.73,1.737,1.255,2.052,2.355,3.994,2.928,8.011,5.819,12.146,8.548,1.007.663,2.754,1.647,2.1,2.721-.527.875-2.083-.509-3.022-1.113a128.108,128.108,0,0,1-23.074-18.962,2.2,2.2,0,0,0-1.921-.889" transform="translate(-1799.091 -229.077)" fill="#3c3e46"/>
          <path id="Path_20470" data-name="Path 20470" d="M2924.3,536.723c-1.467,2.067-2.842,4.205-4.42,6.186-2.844,3.584-2.684,7.687-2.291,11.862.035.4.205.783.217,1.177.178,5.513,3.734,6.741,7.719,7.055-.859.936-1.686,1.907-2.594,2.8-2.592,2.557-2.977,2.519-5.242-.378a18.133,18.133,0,0,0-3.09-3.638,21.33,21.33,0,0,0-3.2-4.845c-.338-.5-.68-1-1.012-1.5-2.705-4.052-2.654-4.525.732-8.176.627-.673,1.473-1.2,1.619-2.3-1.119-.427-2.021.563-3.186.256a43.956,43.956,0,0,1,14.75-8.493" transform="translate(-2707.821 -499.698)" fill="#553635"/>
          <path id="Path_20471" data-name="Path 20471" d="M2107.5,199.8c-1.947-.474-3.424-1.832-4.966-2.936-5.459-3.9-11.518-5.206-18.079-4.741-.268.019-.538,0-.809,0,.89-1.086,1.835-2.132,2.652-3.268,1.536-2.126,3.554-1.387,5.46-.936,3.841.909,6.766,3.453,9.8,5.758a20.544,20.544,0,0,1,5.942,6.123" transform="translate(-1939.905 -174.49)" fill="#3a3b40"/>
          <path id="Path_20472" data-name="Path 20472" d="M2523.315,708.692c-1.18-1.083-2.729-1.791-3.467-3.381,1.818.5,3.311,1.626,5.064,2.19,3.428,1.1,6.816,2.311,10.23,3.452.7.234,1.6.472,2.08-.147.641-.826-.172-1.462-.7-2.057a49.113,49.113,0,0,1-8.084-12.837,7.733,7.733,0,0,1-.287-.953c1.8,1.844,2.594,4.346,4.148,6.347a114.4,114.4,0,0,0,9.371,10.2c.936.947,2.283,2.253,1.463,3.337-.775,1.028-2.473.039-3.459-.642-4.291-2.957-9.768-2.92-14.111-5.722a1.8,1.8,0,0,0-2.248.21" transform="translate(-2346.019 -647.018)" fill="#3a3b40"/>
          <path id="Path_20473" data-name="Path 20473" d="M951.839,2189.071c-.138-.135-.275-.269-.414-.405a5.893,5.893,0,0,1-.316-7.336c1.446.183,2.509,1.209,3.791,1.767a64.126,64.126,0,0,0,14.026,4.418,45.119,45.119,0,0,0,7.442,1.334,10.573,10.573,0,0,0,6.24-.783,10.985,10.985,0,0,0,6.432-1.934c3.109-2.447,6.311-2.244,9.58-.371a17.223,17.223,0,0,0,3.359,1.364,2.085,2.085,0,0,0,2.09-.3,4.63,4.63,0,0,1,2.959.205c3.416.862,6.789.43,10.171-.162.755-.131,1.416-.324,1.582-1.261.2-1.145.96-.812,1.439-.311.944.992,1.992.868,3.151.615a86.13,86.13,0,0,0,16.9-5.038c.855.5,1.333,1.143.874,2.169,1.152,3.589-.626,6-3.243,8.078-6.561,2.246-13.136,4.424-20.21,4.2a14.123,14.123,0,0,1-2.608-.219c-5.283-1.15-10.274-.153-15.1,2.044-3.522,1.6-6.972,1.868-10.361-.389a9.626,9.626,0,0,0-5.355-1.468,114.1,114.1,0,0,1-29.39-4.678,14.883,14.883,0,0,1-3.041-1.548" transform="translate(-884.445 -2030.434)" fill="#31323d"/>
          <path id="Path_20474" data-name="Path 20474" d="M976.945,2299.658c3.729,1,7.438,2.1,11.194,2.988a98.974,98.974,0,0,0,15.644,2.344c2.545.186,5.082.291,7.627.357a7.358,7.358,0,0,1,3.852,1.637c3.016,2.063,6.109,1.828,9.148.416a27.617,27.617,0,0,1,16.57-2.236c5.457.865,10.932-.365,16.192-2.174,1.89-.65,3.755-1.482,5.838-1.277a12.468,12.468,0,0,1-5.265,3.67,5.153,5.153,0,0,0-2.043,1.148,171.951,171.951,0,0,1-19.291,3.525,90.364,90.364,0,0,1-9.97.885c-6.656.137-13.321.223-19.971-.008a100.82,100.82,0,0,1-18.232-2.375c-1.617-.752-3.273-1.434-4.845-2.27a16.7,16.7,0,0,1-6.448-6.631" transform="translate(-909.552 -2141.019)" fill="#232431"/>
          <path id="Path_20475" data-name="Path 20475" d="M2215.148,1973.251q-.429-1.033-.86-2.066c-1.408-.8-2.056-2.279-2.994-3.476-.811-1.035.036-1.571,1-1.812a35.747,35.747,0,0,0,5.625-1.558c2.647-.933,5.442-1.374,8.052-2.425,5.245-1.582,10.5-3.134,15.706-4.825,1.32-.24,2.536-.825,3.824-1.171.606-.163,1.222-.669,1.9-.163.682,1.268-.484,1.779-1.136,2.2-4.62,2.968-8.617,6.835-13.481,9.426a45.836,45.836,0,0,1-11.66,4.243,28.249,28.249,0,0,0-5.976,1.627" transform="translate(-2058.448 -1820.636)" fill="#262328"/>
          <path id="Path_20476" data-name="Path 20476" d="M2651.873,1920.5q-2.824.836-5.646,1.672c-.209-.258-.666-.028-.814-.411q2.068-.772,4.135-1.538,4.21-1.26,8.412-2.517c.4-.109.5.034.357.4l-6.443,2.393" transform="translate(-2462.922 -1785.383)" fill="#817d83"/>
          <path id="Path_20477" data-name="Path 20477" d="M2827.68,1886.1l-.357-.4c.412-.247.824-.5,1.238-.74q2.845-.835,5.7-1.669a23.235,23.235,0,0,1-6.58,2.81" transform="translate(-2632.284 -1753.373)" fill="#4b4851"/>
          <path id="Path_20478" data-name="Path 20478" d="M1234.073,527.28l-10.89,7.3c-2.08-.631-3.624.836-5.312,1.506-3.4,1.346-6.666,3.005-10.275,4.667a2.326,2.326,0,0,1,1.663-1.643c5.042-2.231,9.521-5.487,14.44-7.958,1.361-.685,2.69.1,3.951-.8a60.97,60.97,0,0,1,5.414-3.068c.37-.209.67-.472,1.009,0" transform="translate(-1124.292 -490.66)" fill="#1f2028"/>
          <path id="Path_20479" data-name="Path 20479" d="M1791.059,899.166a24.425,24.425,0,0,1,4.857.819,2.761,2.761,0,0,0,.877.466c3.1,1.032,4.363,3.2,3.965,6.4-3.6-.456-7.2-.854-10.778-1.406-1-.154-1.974-.155-2.961-.212-.65-1.3-2.079-.609-3.043-1.179-.787-.466-2-.58-2.013-1.674-.016-.922,1.112-1.158,1.813-1.326,2.439-.586,4.6-2.26,7.283-1.882" transform="translate(-1659.037 -837.087)" fill="#393b42"/>
          <path id="Path_20480" data-name="Path 20480" d="M1088.526,1942.847c.994,1.4,2.517.971,3.64.645,2.244-.657,4.609-.252,6.8-1.043a.731.731,0,0,1,.854.362,1.289,1.289,0,0,1-.345.484c-2.371,2.075-2.335,2.707.062,4.77,1.3,1.114,3.144,1.571,3.93,3.3.009,2.235-.9,3.229-3.479,3.277a27.139,27.139,0,0,1-7.125-.832c-.9-.229-1.79-.527-2.695-.754-3.969-1.091-8.018-1.8-12.068-2.493-.879-.323-1.9-.135-2.714-.705a2.04,2.04,0,0,1-.67-.477.535.535,0,0,1,.049-.514c1.351.42,1.981-.954,3.057-1.223,3.042-1.076,5.809-2.741,8.717-4.1.637-.3,1.13-1.015,1.983-.69" transform="translate(-1000.54 -1808.416)" fill="#b7c2c4"/>
          <path id="Path_20481" data-name="Path 20481" d="M506.948,1770.917a4.324,4.324,0,0,1-.393-2.547,2.621,2.621,0,0,0-.457-1.7c-1.287-1.705-1.242-3.068.053-4.327,1.76-1.71,3.813-1.976,5.439-.658a46.81,46.81,0,0,1,4.437,3.762c3.317,3.455,7.329,6.056,10.923,9.164a9.063,9.063,0,0,1,1.01,1.234c-1.025.828-2.081.217-3.054-.044-5.213-1.389-10.568-2.164-15.747-3.687-.69-.484-1.833-.135-2.211-1.2" transform="translate(-470.309 -1639.382)" fill="#3b2f2f"/>
          <path id="Path_20482" data-name="Path 20482" d="M1386.1,1783.346c-4.261-.4-8.544-.655-12.779-1.248a49.31,49.31,0,0,0-17.541,1.055c-1.428.313-2.909,1.2-4.444.265a44.6,44.6,0,0,1,8.444-3.03c3.133-.872,5.564-2.28,5.941-5.872.018-.172.213-.323.518-.76-.165,1.133-.229,1.973-.426,2.781-.139.569-.284,1.021.39,1.335a1.757,1.757,0,0,0,1.549.165c.631-.338.077-.961.1-1.45a8,8,0,0,0-.279-1.717c.575-.076.689.294.7.582.068,2.692,1.636,3.842,4.106,4.369,4.622.984,9.338,1.627,13.728,3.525" transform="translate(-1258.116 -1651.395)" fill="#464a53"/>
          <path id="Path_20483" data-name="Path 20483" d="M554.049,1918.076q8.589,1.922,17.179,3.837c.583.131,1.179.2,1.769.294q1.395.423,2.79.844c.029.652-.483.663-.911.776-6.025-.976-11.935-2.5-17.877-3.867-.675-.156-1.142-.7-1.772-.928-.514-.319-1.228.142-1.677-.432-.077-.407.066-.6.5-.524" transform="translate(-515.344 -1785.744)" fill="#a39b9b"/>
          <path id="Path_20484" data-name="Path 20484" d="M1131.034,1936.66c-2.7,2.17-6.187,2.884-9,4.852-.605.426-1.144.146-1.7-.056a31.915,31.915,0,0,1,11.084-5.689c-.127.3-.255.6-.384.894" transform="translate(-1043.049 -1802.23)" fill="#e4eaec"/>
          <path id="Path_20485" data-name="Path 20485" d="M864.751,1990.792c.263-.12.525-.244.788-.368,4.594,1.059,9.307,1.588,13.787,3.143q.012.205.023.407a2.047,2.047,0,0,1-2.072.384c-3.853-.641-7.611-1.687-11.4-2.624-.5-.124-1.091-.225-1.13-.941" transform="translate(-805.097 -1853.117)" fill="#75767d"/>
          <path id="Path_20486" data-name="Path 20486" d="M447.5,1893.815c-.167.177-.333.353-.5.525q-3.958-1.063-7.915-2.13c1.769-.716,3.285.635,4.973.609a8.809,8.809,0,0,1,1.377.2l2.065.8" transform="translate(-408.793 -1761.485)" fill="#736e70"/>
          <path id="Path_20487" data-name="Path 20487" d="M1989.081,918.651c-.326-.834-.877-1.512-.618-2.609.272-1.157-.714-1.875-1.712-2.4-.929-.487-2.02-.771-2.511-1.854,5.143.464,9.732,2.726,14.511,4.4,5.5,1.922,10.63,4.71,16.111,6.656.813.288,1.668.448,2.506.667.258.546,2.319,1.117-.023,1.628a79.276,79.276,0,0,1-12.36-2.432c-5.306-1.324-10.6-2.7-15.9-4.055" transform="translate(-1847.36 -848.891)" fill="#2a2932"/>
          <path id="Path_20488" data-name="Path 20488" d="M869.646,1753.088l-1.579.427c-6.639.43-11.126-2.882-14.529-8.224-1.022-1.605-.208-1.827,1.09-1.878a14.365,14.365,0,0,1,10.075,3.8c1.938,1.66,4.224,3.146,4.944,5.879" transform="translate(-794.228 -1623.137)" fill="#fcce30"/>
          <path id="Path_20489" data-name="Path 20489" d="M752.933,1580.614c.188,1.126.282,2.227-.83,2.994a11.685,11.685,0,0,1-4.734,1.079c-1.63.324-2.633-.759-3.717-1.658-.816-1.16.042-1.779.79-2.431q1.46-.576,2.917-1.149c1.949-.047,3.95-.345,5.574,1.165" transform="translate(-692.044 -1470.442)" fill="#fdfcf9"/>
          <path id="Path_20490" data-name="Path 20490" d="M208.366,1866.4c-.321-.042-.651-.111-.8.3a4.319,4.319,0,0,1-2.573-4.8c.187-.864.122-1.717.229-2.568q2.585,2.279,5.169,4.557a4.959,4.959,0,0,1-2.025,2.507" transform="translate(-190.764 -1731.071)" fill="#feeaa1"/>
          <path id="Path_20491" data-name="Path 20491" d="M255.158,1927.9a4.9,4.9,0,0,1,2.025-2.506,57.208,57.208,0,0,0,7.326,4.453c-.136,1.74-1.473.246-2.063.765a46.584,46.584,0,0,1-7.288-2.712" transform="translate(-237.557 -1792.572)" fill="#fdedb1"/>
          <path id="Path_20492" data-name="Path 20492" d="M597.892,1936.545c4.819,1.277,9.61,2.678,14.6,3.181l.688.052c-.851,3.024-3.017,4.225-5.948,3.85-4.5-.58-9.033-.894-13.557-1.263-.43-.034-1,.159-1.059-.567a1.35,1.35,0,0,0,.194-.056c.153-.068.429-.208.144-.332-2.908-1.239-6.082-1.951-8.576-4.014-2.1-1.732-4.7-2.866-6.255-5.237q9.885,2.191,19.771,4.387" transform="translate(-538.239 -1798.872)" fill="#372f30"/>
          <path id="Path_20493" data-name="Path 20493" d="M724.688,2044.634q5.76.563,11.521,1.127a3.439,3.439,0,0,1,.6.032c3.619,1.069,6.463.095,8.444-3.179.465.935,1.542.051,2.1.705,4.188.851,8.338,1.889,12.575,2.489a45.8,45.8,0,0,0,7.65,1.462,12.069,12.069,0,0,0,2.594.113c1.747-.253,3.143-.895,2.653-3.1,1.617-.127,2.417.876,3.006,2.173a2.486,2.486,0,0,0,.18,1.139c.066,1.44-1.014,1.743-2.06,2.05a57.876,57.876,0,0,1-7.9,1.521,3.953,3.953,0,0,1-3.1-.938c-1.142-.945-2.8-.7-3.99-1.585-2.915-.456-5.867-.334-8.8-.563a55.642,55.642,0,0,0-7.2-.519,2.058,2.058,0,0,1-1.308-.455l-21.677-2.131c.4-1.177,1.275-.357,1.931-.454l2.778.114" transform="translate(-670.312 -1901.708)" fill="#a5afb3"/>
          <path id="Path_20494" data-name="Path 20494" d="M998.147,2110.378c2.292.474,4.073,2.289,6.484,2.446-.927,1.046-4.31,1.455-5.1.51-.211-.251-.037-.611-.562-.3a31.006,31.006,0,0,1-3.92,1.5c-1.535.248-2.772,1.691-4.333,1.444-3.526-.56-7.1-.27-10.614-.825-.224-.038-.476-.227-.442-.911,3.243,0,6.515,0,9.785-.027.268-.056-.093-.382.038-.146.041.077-.012.126-.158.126-3.943.049-7.889.116-11.83-.14-.562-.217-1.143-.416-1.164-1.172,1.206.038,1.517-1.06,2.178-1.715.58-.575.792-1.544,1.783-1.684,3.033-.371,6.016.326,9.025.47,2.942.137,5.881.4,8.832.427" transform="translate(-908.978 -1963.861)" fill="#8f999f"/>
          <path id="Path_20495" data-name="Path 20495" d="M633.62,2137.467l.776.68a1.275,1.275,0,0,1-.581.461c-2.547.625-5.07-.041-7.6-.2-5.279-.331-10.559-.687-15.794-1.484-.775-.119-1.634-.077-2.2-.8.387-.116.775-.228,1.162-.34q12.115.839,24.231,1.684" transform="translate(-566.269 -1988.452)" fill="#c3c3c8"/>
          <path id="Path_20496" data-name="Path 20496" d="M1051.61,2108.549c-2.62,1.177-5.229-.152-7.858-.1a92.358,92.358,0,0,1-10-.8,1.589,1.589,0,0,0,.032-.223c5.8-.182,11.551.911,17.355.8.153,0,.313.21.471.323" transform="translate(-962.44 -1962.031)" fill="#5b666c"/>
          <path id="Path_20497" data-name="Path 20497" d="M629.295,2063.093c-.623.242-1.421-.266-1.931.453l-6.862-.807a31.167,31.167,0,0,1,8.793.354" transform="translate(-577.697 -1920.283)" fill="#372f30"/>
          <path id="Path_20498" data-name="Path 20498" d="M589.054,2140.705c6.977.705,13.951,1.433,20.933,2.09,1.593.152,3.209.056,4.814.075.225.694-.206.954-.753,1.136-1.566,2.428-.715,4.846.028,7.262-2.7.375-5.112-.768-7.546-1.571-6.177-2.037-11.831-5.39-18.073-7.293-1.978-.6.246-1,.107-1.531l.49-.167" transform="translate(-547.096 -1993.033)" fill="#100d17"/>
          <path id="Path_20499" data-name="Path 20499" d="M833.759,2331.807c-1.182-.605-2.631-.611-3.632-1.619.277-.064.607-.01.75-.355,1.062.51,2.438.563,2.882,1.975" transform="translate(-772.862 -2169.112)" fill="#7c3e05"/>
          <path id="Path_20500" data-name="Path 20500" d="M1441.3,2486.453a15.536,15.536,0,0,1-7.7-.057c1.6-.732,3.294-.426,4.914-.217.929.121,1.856.2,2.788.273" transform="translate(-1334.705 -2314.447)" fill="#0a0912"/>
          <path id="Path_20501" data-name="Path 20501" d="M1958.563,1812.777a19.925,19.925,0,0,1,8.355,1.565c4.274,1.6,8.545,1.2,12.86.546,3.754-.569,7.5-1.2,11.252-1.8.2.773-.5.655-.859.806-3.559,1.528-7.162,2.943-10.753,4.395,4.716-1.977,9.569-3.616,14.138-5.936.238-.12-.05.066.128-.133.086-.1-.038-.245-.2-.287.536-1.587,2.229-1.576,3.351-2.337a46.867,46.867,0,0,1,12.812-6.532c-.727,1.684-2.584,2.075-3,3.6-.4,1.464-.219,3.2-1.316,4.335-1.79,1.856-3.353,4.006-5.8,5.149-.361.169-1.191.154-.775,1-.077,1.04-1.049.877-1.634,1.1-2.1.787-4.334,1.151-6.414,2.012-2.7.8-5.458,1.421-8.1,2.433-2.235.662-4.546,1.05-6.739,1.863a1.515,1.515,0,0,1-1.344-.131c-1.22-1.221-2.7-2.136-3.964-3.3a20.9,20.9,0,0,0-4.03-2.9,57.571,57.571,0,0,0-6.9-4.355c-.47-.228-.97-.473-1.063-1.09" transform="translate(-1823.455 -1678.685)" fill="#403735"/>
          <path id="Path_20502" data-name="Path 20502" d="M1463.262,1914.256c-.089-.186-.921-.2-.33-.437a14.072,14.072,0,0,1,3.522-.692,82.263,82.263,0,0,1,8.71-.642c4.416-.04,8.08,2.138,12.2,2.712a8.441,8.441,0,0,0,2.99.1c.907-.21,2.343-.258,1.864-1.942a6.56,6.56,0,0,1,2.857.785c.04.892.857.913,1.4,1.2,2.1,1.123,4.33,2.007,6.346,3.3.656.422,1.452.77,1.281,1.8-1.45,1.52-3.647,1.218-5.321,2.192-2.735,1.024-5.536,1.859-8.266,2.907a2.892,2.892,0,0,0-1.492.56c-2.77,2.935-6.36,2.684-9.889,2.482a11.41,11.41,0,0,1-3.575-.5c-1.991-.773-2.516-1.779-1.927-3.891a5.681,5.681,0,0,1,2.5-1.964,18.476,18.476,0,0,0,4.415-3.17c1.532-1.546,1.179-3.121-.832-3.934-3.668-1.481-7.48-1.372-11.333-1.04-1.7.144-3.395.906-5.127.182" transform="translate(-1361.818 -1780.555)" fill="#bac4c6"/>
          <path id="Path_20503" data-name="Path 20503" d="M2154.74,1811.587c9.153.579,16.766-2.676,23.04-9.261.5.355.229.683-.053.985-4.093,4.412-8.79,8.008-14.762,9.268-2.806.593-5.856.791-8.66-.573-.156-.077-.688.008-.157-.346.146-.1.391-.054.592-.073" transform="translate(-2005.334 -1677.996)" fill="#4c4f5a"/>
          <path id="Path_20504" data-name="Path 20504" d="M1930.547,1942.527c-.728-1.372-2.213-1.642-3.424-2.282-1.764-.931-3.6-1.718-5.4-2.59-.712-.346-1.332-.75-.045-1.194l1.848.51a53.717,53.717,0,0,1,8.311,5.111c-.16.928-.686.8-1.29.445" transform="translate(-1788.418 -1802.876)" fill="#e7e8e4"/>
          <path id="Path_20505" data-name="Path 20505" d="M2423.191,1981.893l8.105-2.824q3.595-1.047,7.193-2.088c.316.046.662.039.814.41-5.16,1.856-10.391,3.487-15.684,4.937-.428.138-.525-.054-.43-.435" transform="translate(-2256 -1840.602)" fill="#c9c6c9"/>
          <path id="Path_20506" data-name="Path 20506" d="M2259.773,1926.677c.439-.122.877-.246,1.316-.37a60.724,60.724,0,0,1-16.506,6.9q6.366-2.691,12.736-5.379a7.35,7.35,0,0,0,2.453-1.155" transform="translate(-2089.746 -1793.422)" fill="#afa8a7"/>
          <path id="Path_20507" data-name="Path 20507" d="M2062.237,1682.339c-5.017,6.442-11.319,10.677-19.645,11.446-3.587.331-6.852-.809-10.069-2.189-.088-.021-.183-.042-.274-.062a3.325,3.325,0,0,1-1.841-1.723c-2.48-3.31-2.251-4.335,1.635-5.957a61.482,61.482,0,0,1,9.253-3.474c2.94-.707,4.122.07,4.75,3.146-.729,1.136-2,.969-3.074,1.223a18.378,18.378,0,0,0-7.4,3.068c-.466.367-1.076.708-.888,1.435.154.585.735.755,1.25.906,3.984,1.176,7.953,1.382,11.856-.306,2.688-1.163,2.678-1.188,1.785-3.62.749-.462,1.655.294,2.387-.312a6.873,6.873,0,0,0,3.021-5.152,6.349,6.349,0,0,0,3.095-3c.066.01.181,0,.189.031.645,2.108,2.445,3.2,3.968,4.536" transform="translate(-1888.833 -1562.033)" fill="#f3bb1b"/>
          <path id="Path_20508" data-name="Path 20508" d="M2419.383,1478l-.463.712c-.664-2.084-2.33-2.831-4.264-3.335-1.133-.3-2.375-.291-3.363-1.061.873-3.538-.025-6.907-1.129-10.207-.492-1.47-.414-2.028,1.316-1.947,2.475.119,4.959.034,7.439.037a2.709,2.709,0,0,1,1.514,2,18.871,18.871,0,0,1-.2,10.709q-.466,1.538-.855,3.1" transform="translate(-2243.658 -1361.288)" fill="#704808"/>
          <path id="Path_20509" data-name="Path 20509" d="M1979.313,1604.2a47.04,47.04,0,0,1,5.923-10c1.705,2.241,4.078,2.4,6.888.494.811-.552,1.385-1.458,2.442-1.647a2.557,2.557,0,0,1,1.989.7q.441,2,.883,4c-2.626,1.491-5.646,2.105-8.193,3.8a42.653,42.653,0,0,0-5.559,4.329,3.246,3.246,0,0,0-1.155,3.121c-.9.4-1.2-.371-1.663-.836-.785-1.215-1.687-2.388-1.555-3.962" transform="translate(-1842.76 -1483.157)" fill="#744907"/>
          <path id="Path_20510" data-name="Path 20510" d="M2018.19,1672.479c-1.11-1.674-.193-2.709,1.042-3.811,4.063-3.625,8.519-6.479,13.948-7.57a26.665,26.665,0,0,0,3.476,6.486c1.277,1.632,2.709,2.953,4.979,2.811-.694.791-1.636.272-2.444.468-1.734.245-2.969-.711-3.646-2.828-1.628-3.32-1.641-3.366-5.043-2.475a57.093,57.093,0,0,0-9.7,3.781c-2.544,1.192-2.613,1.811-.793,3.892a1.577,1.577,0,0,1,.577,1.224c-1.233.06-1.693-.944-2.33-1.707l-.064-.271" transform="translate(-1878.504 -1546.511)" fill="#d59810"/>
          <path id="Path_20511" data-name="Path 20511" d="M2424.776,1638.324c1.912-.1,3.639.654,5.412,1.188,1.621.485,2.508,1.429,2.217,3.208-.58.984-.9,2.137-1.855,2.883-2.174-.76-4.068-1.779-4.137-4.479a4.6,4.6,0,0,1-2.029-2.146c.133-.218.262-.436.393-.654" transform="translate(-2257.142 -1525.299)" fill="#d49810"/>
          <path id="Path_20512" data-name="Path 20512" d="M2132.373,1510.946a4.457,4.457,0,0,1-2.156-.468,3.066,3.066,0,0,0-3.182-1.863,2.2,2.2,0,0,1-1.854-.485,14.329,14.329,0,0,1,7.214-4.018c-.621,2.274-.255,4.555-.021,6.834" transform="translate(-1978.577 -1400.354)" fill="#543108"/>
          <path id="Path_20513" data-name="Path 20513" d="M2541.113,1478.553c-.27-2.32.83-4.432,1.025-6.69.275-3.18.115-6.255-1.488-9.111,2.8-.016,2.766-.015,2.848,2.666.043,1.384.242,2.761.373,4.142-.645,2.206-.412,4.615-1.58,6.7-.422.75-.785,1.528-1.178,2.293" transform="translate(-2365.386 -1361.843)" fill="#443221"/>
          <path id="Path_20514" data-name="Path 20514" d="M2391.313,1647.917a3.549,3.549,0,0,1,2.027,2.146c.012,2.1-1.16,2.928-3.119,2.91-2.1-2.12-1.793-3.519,1.092-5.056" transform="translate(-2224.07 -1534.238)" fill="#f7f7f2"/>
          <path id="Path_20515" data-name="Path 20515" d="M2069.313,1561.321a22.5,22.5,0,0,1,3.151-.021c1.3.163,2.257.787,1.882,2.371a8.713,8.713,0,0,1-6.455,3.4c-1.755.125-2.834-.529-2.711-2.479.668-1.985,2.538-2.453,4.133-3.27" transform="translate(-1922.707 -1453.544)" fill="#f9f9f7"/>
          <path id="Path_20516" data-name="Path 20516" d="M1969.812,1808.867c.386.407.468,1.12,1.2,1.187l-.018-.036a13.654,13.654,0,0,0,4.063,3.662l-.04-.034c-.395.77-1.06.416-1.561.275-2.157-.6-4.294-1.274-6.438-1.921-.074-1.64.925-2.76,2.8-3.133" transform="translate(-1831.319 -1684.085)" fill="#f0f1f2"/>
          <path id="Path_20517" data-name="Path 20517" d="M1952.2,1758.426a5.213,5.213,0,0,0-2.793,3.134c-1.456-.216-1.481-1.226-1.106-2.252.576-1.567,1.3-3.081,1.962-4.62a18.492,18.492,0,0,0,1.938,3.738" transform="translate(-1813.714 -1633.642)" fill="#6c666a"/>
          <path id="Path_20518" data-name="Path 20518" d="M1403.723,1925.563c3.44-.379,6.849-1.084,10.339-.9a21.493,21.493,0,0,1,6.455,1.241c2.58.96,2.973,2.725,1.033,4.731a27.924,27.924,0,0,1-5.932,4.105,13.732,13.732,0,0,0-1.115.838c-.5.592-.853,1.3-1.415,1.843a3.373,3.373,0,0,0-1.071,1.709,3.271,3.271,0,0,0,.948,3.291,18.316,18.316,0,0,0,6.944,4.985c.666.274,1.443.389,1.846,1.11.325.65.038.819-.587.791a9.906,9.906,0,0,1-4.539-1.421,34.427,34.427,0,0,0-4.064-1.661c-1.031-.444-2.061.047-3.061.51-2.228,1.036-4.129,2.753-6.659,3.158-.71.117-1.414.491-2.055-.163.528-.873,1.5-1.094,2.316-1.507a14.536,14.536,0,0,0,5.331-4.487c1.786-2.454,1.515-4.851-.731-6.965a6.352,6.352,0,0,0-2.917-2.332c-1.335-.906-2.7-1.775-4-2.733-1-.743-2.211-1.5-2-2.975s1.477-2.057,2.768-2.473c.72-.23,1.44-.463,2.16-.692" transform="translate(-1302.278 -1791.862)" fill="#09080f"/>
          <path id="Path_20519" data-name="Path 20519" d="M1591.766,2096.229a18.666,18.666,0,0,1-9.046-5.571c-1.082-1.2-1.794-2.493-1.01-4.147.652-.026.748.5.841.935.529,2.47,2.36,3.813,4.3,5.087,1.337.874,2.771.323,4.142.281,6.425-.189,12.8-.931,18.666-3.7a56.56,56.56,0,0,1,11.144-4.013,4.049,4.049,0,0,1,2.562-.205c1.471.718,2.646-.453,3.978-.654,1.363-.2,2.643-.877,4.056-.945a.76.76,0,0,1,.394.4c-1.609,1.028-3.5,1.172-5.29,1.564-1.289.285-1.815.486-.627,1.6a11.533,11.533,0,0,1,2.249,3.269c-2.541,2.213-5.83,2.613-8.87,3.557-2.484.771-5.1,1.11-7.613,1.81-1.781.492-3.371.813-4.578-1.413.807,2.178-.6,2.292-1.84,2.511-4.1.734-8.2.979-12.259-.3a4.918,4.918,0,0,0-1.2-.067" transform="translate(-1472.288 -1939.578)" fill="#515660"/>
          <path id="Path_20520" data-name="Path 20520" d="M970.541,2171.344l.754-1.138.422-.136c4.292.575,8.625.382,12.937.877h-10c3.675.48,7.362.444,11.036,1.019,1.263.194,2.669-1.379,4.253-1.51.2.738.2.738-.7,1.641.371.546.967.349,1.438.359,4.9.1,9.706,1.428,14.637,1.2a1.985,1.985,0,0,1,1.672.527c.041.64-.412.968-.839,1.28-4.455,3.261-9.462,3.765-14.734,2.935a1.258,1.258,0,0,1-.674-.405c-.357-.382-.125-.861-.193-1.315a3.3,3.3,0,0,1-.972,1.055c-.542.218-1.083.472-1.656.092a44.218,44.218,0,0,1-12.985-3.887c-1.547-.688-3.42-.9-4.395-2.592" transform="translate(-903.589 -2020.373)" fill="#5d636d"/>
          <path id="Path_20521" data-name="Path 20521" d="M1225.3,2110.252a1.169,1.169,0,0,0,.889.75c5.509.3,10.878.039,15.239-4.021-.133-.7.372-1.112.719-1.59a8,8,0,0,0,1.331-6.823c-.284-.222-.252-.369.1-.44.909-.55,1.183.275,1.52.768,1.4,2.045,1.131,4.8-.744,7.013a16.3,16.3,0,0,1-7.692,5.177c-1.395,1.292-3.108,1.306-4.848,1.2a31.89,31.89,0,0,1-9.332-1.614c.543-.133,1.085-.273,1.628-.409.4.011.787-.309,1.188-.011" transform="translate(-1138.15 -1953.22)" fill="#444854"/>
          <path id="Path_20522" data-name="Path 20522" d="M1528.163,2277a7.613,7.613,0,0,1-3.62-.539,1.318,1.318,0,0,1-.9-1c-.046-.514.493-.561.8-.771,2.073-1.432,4.143-2.51,6.438-.332a1.268,1.268,0,0,0,1.667-.18,1.238,1.238,0,0,1,1.939.182c.5.775-.452,1.141-.878,1.557-1.406,1.346-3.217,1.055-5.453,1.08" transform="translate(-1418.537 -2116.32)" fill="#505660"/>
          <path id="Path_20523" data-name="Path 20523" d="M2306.908,2051.033c-.125-.134-.262-.269-.391-.4a45.181,45.181,0,0,1,8.078-2.422c.145.144.287.293.432.435-2.594,1.167-5.4,1.621-8.119,2.387" transform="translate(-2147.407 -1906.918)" fill="#8e8d92"/>
          <path id="Path_20524" data-name="Path 20524" d="M1129.356,2055.328c-2.215.512-4.243-.5-6.312-.92-2.1-.427-4.3-.547-6.263-1.567a78.711,78.711,0,0,1,12.574,2.487" transform="translate(-1039.741 -1911.228)" fill="#606b6f"/>
          <path id="Path_20525" data-name="Path 20525" d="M1242.181,2106.976c1.791,3.408.2,5.989-2.051,8.412a46.178,46.178,0,0,1-10.956-.521c-2.345-.311-4.7-.309-7.028-.639-.4-.06-.911-.021-1.027-.454-.169-.615.506-.651.839-.926.433-.356,1.311-.228,1.248-1.132,1.425-.5,3.581-1.827,4.136-1.34,1.447,1.277,2.814.152,4.1.594a.968.968,0,0,0,1.063-.378c2.681-.548,5.4-.845,8.056-1.569,1.159-.314,1.822-.775,1.616-2.047" transform="translate(-1136.855 -1961.63)" fill="#7b838a"/>
          <path id="Path_20526" data-name="Path 20526" d="M1627.84,2062.729c-2.065.56-4.113,1.193-6.2,1.672-3.361.768-6.159,2.851-9.4,3.906a49.832,49.832,0,0,1-12.257,2.587,48.422,48.422,0,0,0-6.98.568,2.129,2.129,0,0,1-1.657-.439c-2.656-1.514-4.694-3.485-5.169-6.678a1.991,1.991,0,0,1,1.054-1.652c3.977,3.817,8.9,2.812,13.623,2.585,3.021-.146,5.88-1.291,8.855-1.79.48-.081.926-.079.832-.9-.058-.5.737-.674,1.279-.744a4.892,4.892,0,0,1,3.276.69c2,.96,3.346-.615,4.924-1.288a27.59,27.59,0,0,1,4.131-1.758c1.068,1.264,2.819,1.749,3.685,3.245" transform="translate(-1476.76 -1917.414)" fill="#7a8289"/>
          <path id="Path_20527" data-name="Path 20527" d="M1638.371,2020.809c-.958,1.488-2.829,1.085-4.078,1.968a11.237,11.237,0,0,1-4.742,1.729,4.535,4.535,0,0,0-2.828-.852c-.653.125-2.153-.791-1.646,1.189.108.43-.867.541-1.352.633-4.434.841-8.784,2.168-13.4,1.869-2.275-.149-4.477-.645-6.72-.909-1.428-.171-1.612-1.455-2.153-2.417a3.934,3.934,0,0,1,1.752-1.567c-.539,2.088.288,3.239,2.635,3.593a19.324,19.324,0,0,0,9.258-.427c.791-.271,2.159.156,2.135-1.645-.009-.617,1.558-.718,2.494-.741a35.824,35.824,0,0,0,8.1-2.87c1.6-1.083,3.687-.873,5.281-1.971.457-.072.964,0,1.291-.447a16.254,16.254,0,0,1,3.978,2.865" transform="translate(-1490.975 -1878.739)" fill="#959ea5"/>
          <path id="Path_20528" data-name="Path 20528" d="M1874.439,2053c.226.875-.595.674-.944.813-2.048.811-4.224,1.306-6.106,2.506-.625.4-.825-.01-1.049-.452a68.632,68.632,0,0,1,8.1-2.866" transform="translate(-1737.593 -1911.378)" fill="#576167"/>
          <path id="Path_20529" data-name="Path 20529" d="M2113.9,1761.659c1.083,1.114,1.822,2.669,3.645,2.828.484.718,1.919.543,1.858,1.6s-1.263,1.248-2.058,1.7c-4.442,2.511-9.083,2.318-13.777.918-.694-.206-1.67-.385-1.715-1.436-.043-.865.662-1.208,1.254-1.668,2.784-2.173,6.075-2.97,9.446-3.581.455-.083.9-.236,1.347-.356" transform="translate(-1956.854 -1640.133)" fill="#fdda37"/>
          <path id="Path_20530" data-name="Path 20530" d="M2028.758,1829.2a6.546,6.546,0,0,1-4.061-3.662q1.2,1.008,2.412,2.016c.311.785,1.4.8,1.648,1.646" transform="translate(-1885.026 -1699.607)" fill="#744907"/>
          <path id="Path_20531" data-name="Path 20531" d="M1449.895,1940.875c5.717-1.821,11.423-2.212,17.162-.137-5.7.753-11.389,2.092-17.162.137" transform="translate(-1349.876 -1805.558)" fill="#efeeee"/>
          <path id="Path_20532" data-name="Path 20532" d="M1472.36,2001.064c3.383.03,4.308.813,4.6,3.34.15,1.26-.36,1.315-1.2.926-1.332-.621-2.632-1.314-3.9-2.05-.6-.351-1.573-.677-1.367-1.52.253-1.026,1.341-.544,1.863-.7" transform="translate(-1369.031 -1863.024)" fill="#6f4d40"/>
          <path id="Path_20533" data-name="Path 20533" d="M1589,1995.082c.539-.029,1.185-.056,1.45.648.3.8-.276,1.249-.817,1.647-.7.509-1.421.989-2.16,1.44-.643.395-1.264,1.694-2.064.556a2.233,2.233,0,0,1,.2-3.116,4.73,4.73,0,0,1,3.391-1.176" transform="translate(-1475.542 -1857.444)" fill="#644b48"/>
          <path id="Path_20534" data-name="Path 20534" d="M1247.264,2249.926c-.394.113-.784.645-1.187.014.5-.66.742-1.539,1.721-1.971.316.846-.333,1.35-.533,1.957" transform="translate(-1160.117 -2092.896)" fill="#31323d"/>
          <path id="Path_20535" data-name="Path 20535" d="M2008.8,2089.723q2.37-.861,4.742-1.728c-1.372,1.146-2.771,2.226-4.742,1.728" transform="translate(-1870.227 -1943.958)" fill="#403735"/>
        </g>
      </g>
    </g>
  </g>
</svg>
