<svg xmlns="http://www.w3.org/2000/svg" width="364.081" height="104.478" viewBox="0 0 364.081 104.478">
  <g id="Group_1486" data-name="Group 1486" transform="translate(8249.684 -6357.778)">
    <path id="Path_20375" data-name="Path 20375" d="M10.352,42.566a123.2,123.2,0,0,0,1.8,29.838L-.684,67.637q2.734-16.569,0-38.973l13.7-3.3q-.7,2.8-1.234,5.668a18.629,18.629,0,0,1,4.434,9.235,18.286,18.286,0,0,1,4.067-8q-.3-2.767-.733-5.4L32.422,22.1q-4.534,25.471.4,61.11l-13.736-3.3Q21.02,53.735,20.92,43.366A19.464,19.464,0,0,0,15.586,52.1Q13.919,45.1,10.352,42.566ZM41.009,55.935q-6.368-4.5-6.6-20.237l8.368-2.9Q41.142,42,43.81,48.9a101.522,101.522,0,0,0,3.534-11.835l7.6-3.834Q53.878,56.068,32.608,72.8A179.988,179.988,0,0,0,41.009,55.935ZM67.985,21.9a51.124,51.124,0,0,1,16.353-.217q6.851,1.217,11.7,8.2a28.805,28.805,0,0,1,4.851,16.853A25.024,25.024,0,0,1,94.123,64.07q-6.8,7.468-27.1,9.735Q72.986,50,67.985,21.9ZM80.954,35.7a199.418,199.418,0,0,0-.133,22.037q3.734.367,7.3-3.034a12.217,12.217,0,0,0,3.1-8.5,17.62,17.62,0,0,0-1.984-8.651q-1.984-3.584-4.784-3.584A4.647,4.647,0,0,0,80.954,35.7Zm29.691,25.037a47.979,47.979,0,0,0,.7,5.8l-8.368-2.9a74.473,74.473,0,0,1,8-32.972q11.469,12.6,13.336,37.673L116.212,64q-.133-1.2-.267-2.3A18.154,18.154,0,0,0,110.645,60.736Zm4.6-4.167q-1.267-8.4-2.8-12.069a46.139,46.139,0,0,0-1.9,13.135A19,19,0,0,1,115.245,56.569ZM133,55.935q-6.368-4.5-6.6-20.237l8.368-2.9Q133.134,42,135.8,48.9a101.526,101.526,0,0,0,3.534-11.835l7.6-3.834Q145.87,56.068,124.6,72.8A179.985,179.985,0,0,0,133,55.935Zm39.878-1.567q4.2-2.967,6.1-11.135A22.845,22.845,0,0,0,185.214,53.4a200.561,200.561,0,0,0-1.567-26.171l15.969-3.867q-6.268,25.137-1,54.842l-14.969-5.568q.5-3.034.833-6.268a21.423,21.423,0,0,1-4.734-9.335,21.494,21.494,0,0,1-5.167,10.735q.633,3.367,1.434,6.634l-15.969-3.867q3.167-26.1,0-45.407l14.969-5.568A144.49,144.49,0,0,0,172.879,54.368ZM201.7,62.936q2-12.169,0-28.6L211.771,31.9q-3.967,15.836-.633,34.539Zm12.888.167q2-12.169,0-28.6l10.068-2.434A79.1,79.1,0,0,0,223.326,62.1a17.878,17.878,0,0,0,9.235-6.034q-.167,10.2-1.834,12.8A35.558,35.558,0,0,1,214.591,63.1Zm20.989,0q2-12.169,0-28.6l10.068-2.434A79.1,79.1,0,0,0,244.315,62.1a17.878,17.878,0,0,0,9.235-6.034q-.167,10.2-1.834,12.8A35.558,35.558,0,0,1,235.58,63.1Zm61.448-4.434a101.045,101.045,0,0,0,2.7,16.4q-18.536-2.167-27.4-11.7a23.936,23.936,0,0,1-6.534-16.636,27.638,27.638,0,0,1,4.667-16.2q4.667-6.7,13.8-7.168a24.625,24.625,0,0,1,9.2,2.267l-3.8,10.035A15.1,15.1,0,0,0,284.093,34q-5.2.467-7.1,3.9a16.912,16.912,0,0,0-1.9,8.3q0,4.867,5.334,10.535Q288.494,63.536,297.029,58.669Zm7.921-26.138q4.567,0,7.8,4.651A19.158,19.158,0,0,1,315.984,48.4a19.158,19.158,0,0,1-3.234,11.218q-3.234,4.651-7.8,4.651t-7.8-4.651A19.158,19.158,0,0,1,293.914,48.4a19.158,19.158,0,0,1,3.234-11.218Q300.382,32.531,304.949,32.531Zm.1,6.768q-1.867,0-3.2,2.384a11.611,11.611,0,0,0-1.334,5.751,11.611,11.611,0,0,0,1.334,5.751q1.334,2.384,3.2,2.384t3.184-2.384a11.731,11.731,0,0,0,1.317-5.751,11.731,11.731,0,0,0-1.317-5.751Q306.916,39.3,305.049,39.3Zm21.223,6.468a90.711,90.711,0,0,0,1.334,21.9l-9.435-3.5q2-12.169,0-28.6l10.068-2.434q-.5,2.067-.9,4.167a13.526,13.526,0,0,1,3.234,6.768,13.457,13.457,0,0,1,3-5.868q-.233-2.034-.533-3.967l9.435-3.5q-3.334,18.7.633,34.539L333.04,62.836a129.255,129.255,0,0,0,1-16.5,14.409,14.409,0,0,0-3.934,6.434Q328.906,47.6,326.272,45.767Zm28.257-8.235q-2,4.734-1.134,7.335a11.124,11.124,0,0,1,8.6,4.867q-3.234,1.7-8.6,1.167.167,4.4.767,8.935A17.877,17.877,0,0,0,363.4,53.8q-.167,10.2-1.834,12.8a35.05,35.05,0,0,1-16.136-5.768,80.286,80.286,0,0,0,0-25.271Q351.9,32.131,361.563,32a19.922,19.922,0,0,1,.133,11.735A25.688,25.688,0,0,0,354.529,37.532Z" transform="translate(-8249 6338.216)" fill="#fff"/>
    <path id="Path_20374" data-name="Path 20374" d="M635.2,23.69q10.488-.77,13.239.605-2.659,3.539-13.551,3.814Zm27.049,9.021a5.028,5.028,0,0,0,2.439-.55,2.728,2.728,0,0,0,1.137-2.4,5.984,5.984,0,0,0-1.705-3.5,24.922,24.922,0,0,0-3.722-.642A50.46,50.46,0,0,0,660.649,32,2.209,2.209,0,0,0,662.244,32.711Zm5.3-10.69q.275.183.532.385a7.393,7.393,0,0,1,2.805,5.831q0,5.042-2.054,7.023a9.29,9.29,0,0,1-5.015,2.485,15.5,15.5,0,0,1-6.665-.5L654.1,38.359q.2-.9.367-1.8h-.037a97.484,97.484,0,0,0,0-24.461l5.776,1.119q4.584-1.339,6.656.128a5.284,5.284,0,0,1,2.549,4.657A6.715,6.715,0,0,1,667.543,22.021ZM660.7,16.557a26.856,26.856,0,0,0-.11,3.869l1.155.11q2.347-2.53,2.109-3.374a1.246,1.246,0,0,0-1.449-1.045A7.476,7.476,0,0,0,660.7,16.557ZM678.556,33.94a18.9,18.9,0,0,0,.66,4.346l-7.243-2.512q.22-11.79,6.931-24.992,9.92,10.91,11.46,35.059l-7.023-3.759q-.385-4.346-.807-7.793A19.291,19.291,0,0,0,678.556,33.94Zm3.466-3.337a36.3,36.3,0,0,0-1.852-7.848,37.2,37.2,0,0,0-1.614,8.985A17.107,17.107,0,0,1,682.021,30.6Zm15.138,2.109a5.027,5.027,0,0,0,2.439-.55,2.728,2.728,0,0,0,1.137-2.4,5.985,5.985,0,0,0-1.705-3.5,24.923,24.923,0,0,0-3.722-.642A50.472,50.472,0,0,0,695.564,32,2.209,2.209,0,0,0,697.159,32.711Zm5.3-10.69q.275.183.532.385a7.393,7.393,0,0,1,2.805,5.831q0,5.042-2.054,7.023a9.29,9.29,0,0,1-5.015,2.485,15.5,15.5,0,0,1-6.665-.5l-3.044,1.119q.2-.9.367-1.8h-.037a97.484,97.484,0,0,0,0-24.461l5.776,1.119q4.584-1.339,6.656.128a5.284,5.284,0,0,1,2.549,4.657A6.715,6.715,0,0,1,702.458,22.021Zm-6.839-5.464a26.848,26.848,0,0,0-.11,3.869l1.155.11q2.347-2.53,2.109-3.374a1.246,1.246,0,0,0-1.449-1.045A7.475,7.475,0,0,0,695.619,16.557Zm16.66,12.707q-4.9-3.484-5.079-15.623l6.454-2.237a23.007,23.007,0,0,0,.788,12.432,78.325,78.325,0,0,0,2.732-9.131l5.868-2.97q-2.127,23.727-21.582,34.894Q709.62,35.48,712.279,29.264Zm16.11-6.253a67.763,67.763,0,0,0,.99,16.411L722.319,36.8a76.353,76.353,0,0,0,0-21.435l7.536-1.815q-.385,1.54-.678,3.117a10.246,10.246,0,0,1,2.439,5.079,10.056,10.056,0,0,1,2.237-4.4q-.165-1.522-.4-2.97l7.078-2.622q-2.494,14.009.22,33.61l-7.555-1.815q1.063-14.394,1.008-20.1a10.706,10.706,0,0,0-2.934,4.8Q730.351,24.4,728.389,23.011Zm20.749,11.112q6.528.458,10.415-2.439a15.027,15.027,0,0,1-.11,9.388Q746.9,38.469,741.4,35.7a60.371,60.371,0,0,0,0-20.225,30.887,30.887,0,0,1,13.7-4.621q1.412,2.09,1.559,10.25a15.181,15.181,0,0,0-7.848-4.822q-.5,3.612-.642,7.151a13.451,13.451,0,0,1,7.3.935,9.59,9.59,0,0,1-7.3,3.887Q747.414,30.346,749.138,34.123ZM766.293,29.5q2.31-1.632,3.356-6.124a12.564,12.564,0,0,0,3.429,5.593,110.3,110.3,0,0,0-.862-14.394L781,12.45q-3.447,13.826-.55,30.163l-8.233-3.062q.275-1.669.458-3.447a11.783,11.783,0,0,1-2.6-5.134,11.822,11.822,0,0,1-2.842,5.9q.348,1.852.789,3.649L759.233,38.4q1.742-14.357,0-24.974l8.233-3.062A79.471,79.471,0,0,0,766.293,29.5Z" transform="translate(-8667.592 6415.627)" fill="#b4cd2f"/>
  </g>
</svg>
