<svg xmlns="http://www.w3.org/2000/svg" width="121.737" height="30.36" viewBox="0 0 121.737 30.36">
  <path id="Path_20865" data-name="Path 20865" d="M-57.437-7.953l3.531-.231L-48.889,0h3.333l-5.577-8.646c2.838-.924,4.653-2.838,4.653-5.94,0-3.663-2.607-6.039-7.59-6.039h-6.171V0h2.805Zm0-2.475v-7.623H-54.4c3.135,0,5.115,1.155,5.115,3.6,0,2.541-2.046,3.828-4.752,3.927Zm28.314,2.871c0-4.884-2.937-8.085-7.26-8.085-4.356,0-7.458,3.234-7.458,8.085,0,4.884,3,8.052,7.293,8.052C-32.29.495-29.122-2.706-29.122-7.557Zm-2.673.033c0,3.267-1.65,5.577-4.653,5.577-2.97,0-4.719-2.409-4.719-5.643,0-3.267,1.65-5.61,4.653-5.61C-33.544-13.2-31.8-10.758-31.8-7.524Zm14.124,4.092a4.793,4.793,0,0,1-3.465,1.617A2.388,2.388,0,0,1-23.81-4.158c0-1.848,1.65-2.772,6.138-3.366Zm.1,1.815c.4,1.32,1.485,2.178,3.927,1.98l.165-2.277c-1.32,0-1.485-.231-1.485-1.485V-9.735c.066-4.125-1.749-5.874-5.841-5.874a10.612,10.612,0,0,0-5.676,1.749l.528,2.442A9.556,9.556,0,0,1-21.071-13.1c2.442,0,3.4.99,3.4,3.432v.429c-7.062.33-9.009,2.706-9.009,5.412,0,2.442,1.98,4.323,4.818,4.323A5.382,5.382,0,0,0-17.7-1.617Zm17-13.5a11.666,11.666,0,0,0-3.267-.495c-4.521,0-7.689,3.531-7.689,8.118C-11.533-2.937-9.058.495-4.8.495A6.08,6.08,0,0,0-.577-1.386V0H2.129V-22.671l-2.706.429Zm0,3.036v8.613A5.5,5.5,0,0,1-4.24-2.013c-2.8,0-4.488-2.211-4.488-5.544,0-3.1,1.716-5.61,4.785-5.61A5.217,5.217,0,0,1-.577-12.078ZM28.4,0V-10.329c0-3.333-1.815-5.28-4.587-5.28A7.583,7.583,0,0,0,18.332-13.1a4.118,4.118,0,0,0-3.96-2.508A6.813,6.813,0,0,0,9.521-13.53v-2.079l-2.706.429V0H9.521V-11.484a5.461,5.461,0,0,1,3.828-1.551c1.947,0,2.9.957,2.9,3.6V0h2.706V-11.319a5.557,5.557,0,0,1,3.828-1.716c1.947,0,2.9.957,2.9,3.6V0ZM40.706-3.432a4.793,4.793,0,0,1-3.465,1.617,2.388,2.388,0,0,1-2.673-2.343c0-1.848,1.65-2.772,6.138-3.366Zm.1,1.815C41.2-.3,42.29.561,44.732.363L44.9-1.914c-1.32,0-1.485-.231-1.485-1.485V-9.735c.066-4.125-1.749-5.874-5.841-5.874a10.612,10.612,0,0,0-5.676,1.749l.528,2.442A9.556,9.556,0,0,1,37.307-13.1c2.442,0,3.4.99,3.4,3.432v.429C33.644-8.91,31.7-6.534,31.7-3.828c0,2.442,1.98,4.323,4.818,4.323a5.382,5.382,0,0,0,4.158-2.112Zm9.735-12.111v-1.881l-2.706.429V7.689h2.706V.1a14.246,14.246,0,0,0,3.267.4c4.521,0,7.689-3.531,7.689-8.118,0-4.554-2.475-7.986-6.732-7.986A6.08,6.08,0,0,0,50.539-13.728Zm0,2.079A5.5,5.5,0,0,1,54.2-13.1c2.805,0,4.488,2.211,4.488,5.544,0,3.1-1.716,5.61-4.785,5.61a5.217,5.217,0,0,1-3.366-1.089Z" transform="translate(60.242 22.671)" fill="#fff"/>
</svg>
