<svg xmlns="http://www.w3.org/2000/svg" width="138.996" height="23.463" viewBox="0 0 138.996 23.463">
  <path id="Path_20552" data-name="Path 20552" d="M-52.635-17.985v-2.64H-69.861v2.64h7.227V0h2.772V-17.985ZM-39.072-7.557c0-4.884-2.937-8.085-7.26-8.085-4.356,0-7.458,3.234-7.458,8.085,0,4.884,3,8.052,7.293,8.052C-42.24.495-39.072-2.706-39.072-7.557Zm-2.673.033c0,3.267-1.65,5.577-4.653,5.577-2.97,0-4.719-2.409-4.719-5.643,0-3.267,1.65-5.61,4.653-5.61C-43.494-13.2-41.745-10.758-41.745-7.524Zm9.141.066L-26.367,0H-22.9l-6.963-7.953,6.93-7.161h-3.432L-32.6-8.184h-.066V-22.671l-2.706.429V0h2.706V-7.458Zm13.695.231,10.164-.066A9.042,9.042,0,0,0-8.415-9.7c0-3.6-2.112-5.907-5.775-5.907-4.224,0-7.458,3.333-7.458,8.217,0,4.62,3.1,7.887,7.656,7.887A9.916,9.916,0,0,0-8.91-.759L-9.4-3.267a8.389,8.389,0,0,1-4.521,1.254A4.9,4.9,0,0,1-18.909-7.1Zm.132-1.98a4.384,4.384,0,0,1,4.323-4.026c2.376,0,3.432,1.485,3.432,3.729v.231ZM7.689,0V-10.395c0-3.267-1.815-5.214-4.884-5.214a7.2,7.2,0,0,0-4.917,2.277v-2.277l-2.706.429V0h2.706V-11.352A6.069,6.069,0,0,1,1.848-13c2.145,0,3.135.891,3.135,3.5V0Zm15.18,0V-20.625H20.1V0ZM40.425,0V-10.395c0-3.267-1.815-5.214-4.884-5.214a7.2,7.2,0,0,0-4.917,2.277v-2.277l-2.706.429V0h2.706V-11.352A6.069,6.069,0,0,1,34.584-13c2.145,0,3.135.891,3.135,3.5V0ZM53.559-22.242a7.9,7.9,0,0,0-3.036-.726c-2.97,0-4.917,1.551-4.983,5.775l-.033,1.914-2.475.726L42.9-12.837l2.64.2V0h2.706V-12.672h4.686l.1-2.442H48.246v-2.112c0-2.277.726-3.2,2.244-3.2a6.9,6.9,0,0,1,2.409.66C52.9-19.7,53.559-22.176,53.559-22.242ZM69.135-7.557c0-4.884-2.937-8.085-7.26-8.085-4.356,0-7.458,3.234-7.458,8.085,0,4.884,3,8.052,7.293,8.052C65.967.495,69.135-2.706,69.135-7.557Zm-2.673.033c0,3.267-1.65,5.577-4.653,5.577-2.97,0-4.719-2.409-4.719-5.643,0-3.267,1.65-5.61,4.653-5.61C64.713-13.2,66.462-10.758,66.462-7.524Z" transform="translate(69.861 22.968)" fill="#fff"/>
</svg>
