<svg xmlns="http://www.w3.org/2000/svg" xmlns:xlink="http://www.w3.org/1999/xlink" width="353.199" height="163.935" viewBox="0 0 353.199 163.935">
  <defs>
    <linearGradient id="linear-gradient" x1="0.5" x2="0.5" y2="1" gradientUnits="objectBoundingBox">
      <stop offset="0.08" stop-color="#9945ff"/>
      <stop offset="0.3" stop-color="#8752f3"/>
      <stop offset="0.5" stop-color="#5497d5"/>
      <stop offset="0.6" stop-color="#43b4ca"/>
      <stop offset="0.72" stop-color="#28e0b9"/>
      <stop offset="0.97" stop-color="#19fb9b"/>
    </linearGradient>
  </defs>
  <g id="Group_1497" data-name="Group 1497" transform="translate(9038.104 -6170.754)">
    <g id="Group_1496" data-name="Group 1496">
      <g id="Group_1493" data-name="Group 1493">
        <g id="Group_1485" data-name="Group 1485">
          <path id="Path_20373" data-name="Path 20373" d="M18.12,57.872a11.787,11.787,0,0,0,5.717-1.29q2.364-1.29,2.665-5.631-.3-4.084-4-8.211a58.431,58.431,0,0,0-8.727-1.5,118.3,118.3,0,0,0,.6,14.96A5.179,5.179,0,0,0,18.12,57.872ZM30.544,32.809q.645.43,1.247.9,6.276,4.987,6.577,13.67,0,11.822-4.815,16.465A21.78,21.78,0,0,1,21.8,69.672,36.342,36.342,0,0,1,6.169,68.49L-.967,71.112q.473-2.106.86-4.213H-.193a228.537,228.537,0,0,0,0-57.347l13.541,2.622q10.747-3.138,15.6.3,6.147,4.256,5.975,10.919Q34.843,27.694,30.544,32.809ZM14.509,20a62.966,62.966,0,0,0-.258,9.071q1.376.129,2.708.258,5.5-5.932,4.944-7.91a2.92,2.92,0,0,0-3.4-2.45A17.527,17.527,0,0,0,14.509,20ZM56.362,60.752A44.307,44.307,0,0,0,57.909,70.94l-16.98-5.889q.516-27.642,16.25-58.593Q80.435,32.036,84.046,88.651L67.582,79.839q-.9-10.188-1.891-18.27A45.226,45.226,0,0,0,56.362,60.752Zm8.125-7.824q-1.977-12.811-4.342-18.4a87.218,87.218,0,0,0-3.783,21.064A40.1,40.1,0,0,1,64.486,52.928Zm35.49,4.944a11.787,11.787,0,0,0,5.717-1.29q2.364-1.29,2.665-5.631-.3-4.084-4-8.211a58.431,58.431,0,0,0-8.727-1.5,118.3,118.3,0,0,0,.6,14.96A5.179,5.179,0,0,0,99.977,57.872ZM112.4,32.809q.645.43,1.247.9,6.276,4.987,6.577,13.67,0,11.822-4.815,16.465a21.78,21.78,0,0,1-11.757,5.825A36.342,36.342,0,0,1,88.026,68.49L80.89,71.112q.473-2.106.86-4.213h-.086a228.538,228.538,0,0,0,0-57.347l13.541,2.622q10.747-3.138,15.6.3,6.147,4.256,5.975,10.919Q116.7,27.694,112.4,32.809ZM96.366,20a62.966,62.966,0,0,0-.258,9.071q1.376.129,2.708.258,5.5-5.932,4.944-7.91a2.92,2.92,0,0,0-3.4-2.45A17.527,17.527,0,0,0,96.366,20ZM135.424,49.79q-11.478-8.168-11.908-36.626l15.132-5.245q-2.966,16.637,1.848,29.146A183.627,183.627,0,0,0,146.9,15.657l13.756-6.964q-4.987,55.627-50.6,81.807Q129.191,64.363,135.424,49.79Zm50.518-14.659a158.863,158.863,0,0,0,2.321,38.475l-16.551-6.147q3.525-21.365,0-50.254l17.668-4.256q-.9,3.611-1.591,7.308a24.021,24.021,0,0,1,5.717,11.908,23.579,23.579,0,0,1,5.245-10.317q-.387-3.568-.946-6.964L214.4,8.736q-5.846,32.843.516,78.8l-17.711-4.256q2.493-33.746,2.364-47.115a25.1,25.1,0,0,0-6.878,11.263Q190.542,38.4,185.942,35.131Zm48.645,26.051q15.3,1.075,24.417-5.717a35.23,35.23,0,0,1-.258,22.01q-29.4-6.1-42.3-12.6a141.544,141.544,0,0,0,0-47.416q13.069-8.641,32.112-10.833,3.31,4.9,3.654,24.031-8.3-9.028-18.4-11.306-1.161,8.469-1.5,16.766,10.661-1.032,17.109,2.192a22.483,22.483,0,0,1-17.109,9.114Q230.546,52.326,234.587,61.182Zm40.219-10.833q5.417-3.826,7.867-14.358A29.457,29.457,0,0,0,290.712,49.1a258.612,258.612,0,0,0-2.02-33.746l20.591-4.987q-8.082,32.413-1.29,70.716l-19.3-7.179q.645-3.912,1.075-8.082a27.623,27.623,0,0,1-6.1-12.037A27.716,27.716,0,0,1,277,67.63q.817,4.342,1.849,8.555L258.255,71.2q4.084-33.66,0-58.55l19.3-7.179A186.312,186.312,0,0,0,274.806,50.349Z" transform="translate(-9016 6180)" fill="#fff"/>
          <path id="Path_20373_-_Outline" data-name="Path 20373 - Outline" d="M110.061,90.5q45.611-26.18,50.6-81.807L146.9,15.657A183.628,183.628,0,0,1,140.5,37.065q-4.815-12.51-1.849-29.146l-15.132,5.245q.43,28.458,11.908,36.626-6.233,14.573-25.363,40.71M84.046,88.651q-.6-9.461-1.755-18.054l-1.4.515q.473-2.106.86-4.213h-.086l.044-.366Q75.619,26.739,57.178,6.457,41.445,37.409,40.929,65.051l16.98,5.889a44.309,44.309,0,0,1-1.548-10.188,45.226,45.226,0,0,1,9.328.817q.989,8.082,1.892,18.27l16.465,8.813m-23.9-54.122q2.364,5.588,4.342,18.4a40.1,40.1,0,0,0-8.125,2.665,87.219,87.219,0,0,1,3.783-21.064m154.772,53q-6.362-45.955-.516-78.8l-16.594,6.147q.559,3.4.946,6.964a23.578,23.578,0,0,0-5.245,10.317,24.021,24.021,0,0,0-5.717-11.908q.688-3.7,1.591-7.308L171.713,17.2q3.525,28.888,0,50.254l16.551,6.147a158.864,158.864,0,0,1-2.321-38.475q4.6,3.267,6.749,12.295a25.1,25.1,0,0,1,6.878-11.263q.129,13.369-2.364,47.115l17.711,4.256m93.077-6.448q-6.792-38.3,1.29-70.716l-20.591,4.987a258.607,258.607,0,0,1,2.02,33.746,29.456,29.456,0,0,1-8.039-13.111q-2.45,10.532-7.867,14.358a186.311,186.311,0,0,1,2.751-44.88l-19.3,7.179q3.238,19.733,1.342,44.975a34.99,34.99,0,0,1,.595,14.044l18.655,4.518Q277.815,71.972,277,67.63a27.716,27.716,0,0,0,6.663-13.842,27.624,27.624,0,0,0,6.1,12.037q-.43,4.17-1.075,8.082l19.3,7.179m-49.247-3.611a36.685,36.685,0,0,0,1.446-5.807l-1.937-.469q.846-6.975,1.342-13.575-.263-1.078-.593-2.159-9.114,6.792-24.417,5.717-4.041-8.856-2.278-13.756a22.483,22.483,0,0,0,17.109-9.114q-6.448-3.224-17.109-2.192.344-8.3,1.5-16.766,10.1,2.278,18.4,11.306-.344-19.13-3.654-24.031-19.044,2.192-32.112,10.833a141.546,141.546,0,0,1,0,47.416q12.9,6.491,42.3,12.6M-.967,71.112,6.169,68.49A36.342,36.342,0,0,0,21.8,69.672a21.78,21.78,0,0,0,11.757-5.825q4.815-4.643,4.815-16.465-.3-8.684-6.577-13.67-.6-.473-1.247-.9,4.3-5.116,4.385-9.414.172-6.663-5.975-10.919-4.858-3.439-15.6-.3L-.193,9.553a228.537,228.537,0,0,1,0,57.347h.086q-.387,2.106-.86,4.213M13.778,41.235a58.436,58.436,0,0,1,8.727,1.5q3.7,4.127,4,8.211-.3,4.342-2.665,5.631a11.787,11.787,0,0,1-5.717,1.29A5.179,5.179,0,0,1,14.38,56.2a118.3,118.3,0,0,1-.6-14.96m5.178-22.29A2.887,2.887,0,0,1,21.9,21.417q.559,1.977-4.944,7.91-1.333-.129-2.708-.258A62.969,62.969,0,0,1,14.509,20a17.526,17.526,0,0,1,4-1.032q.232-.022.449-.022M82.291,70.6l5.735-2.107a36.343,36.343,0,0,0,15.626,1.182,21.78,21.78,0,0,0,11.757-5.825q4.815-4.643,4.815-16.465-.3-8.684-6.577-13.67-.6-.473-1.247-.9,4.3-5.116,4.385-9.414.172-6.663-5.975-10.919-4.858-3.439-15.6-.3L81.664,9.553a228.419,228.419,0,0,1,.044,56.981q.307,2.006.583,4.064M95.635,41.235a58.436,58.436,0,0,1,8.727,1.5q3.7,4.127,4,8.211-.3,4.342-2.665,5.631a11.787,11.787,0,0,1-5.717,1.29,5.179,5.179,0,0,1-3.74-1.677,118.3,118.3,0,0,1-.6-14.96m5.178-22.29a2.887,2.887,0,0,1,2.947,2.473q.559,1.977-4.944,7.91-1.333-.129-2.708-.258A62.962,62.962,0,0,1,96.366,20a17.526,17.526,0,0,1,4-1.032q.232-.022.449-.022m-6.755,85.273L59.046,85.478l-.422-4.764L36.55,73.058a31.073,31.073,0,0,1-13.243,5.486A43.543,43.543,0,0,1,6.7,77.885l-20.062,7.372,3.618-16.116q.279-1.241.525-2.482l.1-.853a220.6,220.6,0,0,0,.008-55.1l-1.6-12.363,23.73,4.6a38.041,38.041,0,0,1,9.254-1.264A20.139,20.139,0,0,1,34.154,5.13,21.89,21.89,0,0,1,42.82,16.144q2.81-6.828,6.336-13.765L55.065-9.245,63.837.4A82.613,82.613,0,0,1,72.977,12.62q-.115-.957-.238-1.911l-1.6-12.363,23.73,4.6a38.041,38.041,0,0,1,9.254-1.264A20.139,20.139,0,0,1,116.01,5.13q.536.371,1.035.751L150.2-5.611,148.339,4.842,171.071-6.666,169.718,8.428l32-7.707-.859,3.435,25.16-9.321-1.495,8.4a91.5,91.5,0,0,1,23.007-5.543l5.429-.625,3.059,4.528a17.783,17.783,0,0,1,1.108,1.874L289.161-8.449,286.492,6.629l35.12-8.505-3.6,14.423c-5.055,20.273-5.445,42.8-1.16,66.967L319.6,95.006l-29.574-11,1.079,4.408L266.562,82.47l-1.828,5.44-7.818-1.623c-14.17-2.942-25.491-5.933-34.233-9.055q.511,4.468,1.147,9.068l1.809,13.067-37.974-9.125.522-7.064-26.562-9.866,1.208-7.319a144.526,144.526,0,0,0,1.491-29c-8.206,26.456-24.874,47.011-49.783,61.309L102.8,85.184q2.743-3.748,5.213-7.249-1.394.361-2.849.609a41.132,41.132,0,0,1-12.9.023q.451,4.645.762,9.511Zm157.014-54.74q-.547.441-1.11.854.562-.239,1.095-.506C251.061,49.709,251.066,49.594,251.071,49.478Z" transform="translate(-9016 6180)" fill="#141414"/>
          <path id="Path_20373_-_Outline-2" data-name="Path 20373 - Outline" d="M110.061,90.5q45.611-26.18,50.6-81.807L146.9,15.657A183.627,183.627,0,0,1,140.5,37.065q-4.815-12.51-1.848-29.146l-15.132,5.245q.43,28.458,11.908,36.626-6.233,14.573-25.363,40.71M84.046,88.651q-.6-9.461-1.755-18.054l-1.4.515q.473-2.106.86-4.213h-.086l.044-.366Q75.619,26.739,57.178,6.457,41.445,37.409,40.929,65.051l16.98,5.889a44.306,44.306,0,0,1-1.548-10.188,45.226,45.226,0,0,1,9.328.817q.989,8.082,1.892,18.27l16.465,8.813m-23.9-54.123q2.364,5.588,4.342,18.4a40.1,40.1,0,0,0-8.125,2.665,87.218,87.218,0,0,1,3.783-21.064m154.772,53q-6.362-45.955-.516-78.8l-16.594,6.147q.559,3.4.946,6.964a23.578,23.578,0,0,0-5.245,10.317,24.021,24.021,0,0,0-5.718-11.908q.688-3.7,1.591-7.308L171.713,17.2q3.525,28.888,0,50.254l16.551,6.147a158.862,158.862,0,0,1-2.321-38.475q4.6,3.267,6.749,12.295a25.1,25.1,0,0,1,6.878-11.263q.129,13.369-2.364,47.115l17.711,4.256m93.077-6.448q-6.792-38.3,1.29-70.716l-20.591,4.987A258.612,258.612,0,0,1,290.712,49.1a29.457,29.457,0,0,1-8.039-13.112q-2.45,10.532-7.867,14.358a186.315,186.315,0,0,1,2.751-44.88l-19.3,7.179q3.238,19.733,1.342,44.976a34.989,34.989,0,0,1,.595,14.044l18.655,4.518Q277.815,71.972,277,67.63a27.716,27.716,0,0,0,6.663-13.842,27.623,27.623,0,0,0,6.1,12.037q-.43,4.17-1.075,8.082l19.3,7.179m-49.247-3.611a36.689,36.689,0,0,0,1.446-5.807l-1.937-.469q.846-6.975,1.342-13.575-.263-1.078-.593-2.159-9.113,6.792-24.417,5.717-4.041-8.856-2.278-13.756a22.483,22.483,0,0,0,17.109-9.114q-6.448-3.224-17.109-2.192.344-8.3,1.5-16.765,10.1,2.278,18.4,11.306-.344-19.13-3.654-24.031-19.044,2.192-32.112,10.833a141.544,141.544,0,0,1,0,47.416q12.9,6.491,42.3,12.6M-.967,71.112,6.169,68.49A36.342,36.342,0,0,0,21.8,69.672a21.78,21.78,0,0,0,11.757-5.825q4.815-4.643,4.815-16.465-.3-8.684-6.577-13.67-.6-.473-1.247-.9,4.3-5.116,4.385-9.414.172-6.663-5.975-10.919-4.858-3.439-15.6-.3L-.193,9.553a228.535,228.535,0,0,1,0,57.347h.086q-.387,2.106-.86,4.213M13.778,41.235a58.429,58.429,0,0,1,8.727,1.5q3.7,4.127,4,8.211-.3,4.342-2.665,5.632a11.787,11.787,0,0,1-5.717,1.29A5.179,5.179,0,0,1,14.38,56.2a118.3,118.3,0,0,1-.6-14.96m5.178-22.29A2.887,2.887,0,0,1,21.9,21.417q.559,1.977-4.944,7.91-1.333-.129-2.708-.258A62.967,62.967,0,0,1,14.509,20a17.526,17.526,0,0,1,4-1.032q.232-.022.449-.022M82.291,70.6l5.735-2.107a36.342,36.342,0,0,0,15.626,1.182,21.78,21.78,0,0,0,11.757-5.825q4.815-4.643,4.815-16.465-.3-8.684-6.577-13.67-.6-.473-1.247-.9,4.3-5.116,4.385-9.414.172-6.663-5.975-10.919-4.858-3.439-15.6-.3L81.664,9.553a228.417,228.417,0,0,1,.044,56.981q.307,2.006.583,4.064M95.635,41.235a58.429,58.429,0,0,1,8.727,1.5q3.7,4.127,4,8.211-.3,4.342-2.665,5.632a11.787,11.787,0,0,1-5.717,1.29,5.179,5.179,0,0,1-3.74-1.677,118.3,118.3,0,0,1-.6-14.96m5.178-22.29a2.887,2.887,0,0,1,2.947,2.473q.559,1.977-4.944,7.91-1.333-.129-2.708-.258A62.963,62.963,0,0,1,96.366,20a17.526,17.526,0,0,1,4-1.032q.232-.022.449-.022M88.5,95.57,63.788,82.345,63.6,80.192q-.141-1.6-.285-3.144L36.875,67.879l.033-1.743q-.282.3-.578.59a25.807,25.807,0,0,1-13.862,6.889,32.832,32.832,0,0,1-5.493.451,44.336,44.336,0,0,1-10.6-1.39L-6.478,77.4l1.608-7.163c.2-.893.39-1.794.568-2.692l.138-1.131a236.232,236.232,0,0,0,1.776-28.6A216.662,216.662,0,0,0-4.16,10.067l-.712-5.495L13.175,8.067a34.634,34.634,0,0,1,9.088-1.39A15.276,15.276,0,0,1,31.25,9.2a18.383,18.383,0,0,1,5.78,6.212,15.762,15.762,0,0,1,1.9,8.071,15.218,15.218,0,0,1-1.512,6.1,22.224,22.224,0,0,1-1.4,2.529,20.489,20.489,0,0,1,4.158,5.773q.195.4.373.821.4-1.6.844-3.2A167.356,167.356,0,0,1,53.613,4.645L56.239-.522l3.9,4.288a78.882,78.882,0,0,1,8.9,11.968,100.868,100.868,0,0,1,7.193,14.371c1.153,2.823,2.233,5.793,3.232,8.883q0-.673,0-1.345A216.622,216.622,0,0,0,77.7,10.067l-.712-5.495L95.032,8.067a34.634,34.634,0,0,1,9.088-1.39A15.276,15.276,0,0,1,113.107,9.2a18.383,18.383,0,0,1,5.78,6.212,15.348,15.348,0,0,1,.737,1.545q-.078-1.828-.107-3.734l-.044-2.892,24.31-8.426-1.2,6.715a64.551,64.551,0,0,0-1.064,12.041q.812-3,1.482-5.9l.42-1.826L165.286,1.867l-.644,7.183a127.965,127.965,0,0,1-5.2,26.813,102.33,102.33,0,0,1-10.525,23.2,96.982,96.982,0,0,1-15.841,19.413,110.873,110.873,0,0,1-21.024,15.494l-5.219-5.832C118.2,72.606,126.159,60.1,130.533,50.9a25.4,25.4,0,0,1-3.5-4.262,36.788,36.788,0,0,1-4.13-8.851,64.413,64.413,0,0,1-2.446-11.121c-.015-.109-.03-.219-.044-.329a16.88,16.88,0,0,1-1.142,3.25,22.221,22.221,0,0,1-1.4,2.529,20.489,20.489,0,0,1,4.158,5.773,23.3,23.3,0,0,1,2.188,9.355l0,.139a40.227,40.227,0,0,1-1.364,11.15,18.29,18.29,0,0,1-4.674,8.194,25.807,25.807,0,0,1-13.862,6.889,32.832,32.832,0,0,1-5.493.451,44.336,44.336,0,0,1-10.6-1.39l-1.571.577c.583,4.849,1.045,9.929,1.378,15.144ZM60.739,64.908a37.857,37.857,0,0,0,1.022,4.956l1.315,4.709c-.326-3.372-.662-6.558-1-9.531Q61.417,64.965,60.739,64.908Zm38.9-19.092c.043,3.113.166,5.807.369,8.056a7.925,7.925,0,0,0,3.759-.8,4.091,4.091,0,0,0,.574-2.1,9.6,9.6,0,0,0-2.193-4.653Q100.909,46.041,99.642,45.816Zm-81.857,0c.043,3.113.166,5.807.369,8.056a7.925,7.925,0,0,0,3.759-.8,4.091,4.091,0,0,0,.574-2.1,9.6,9.6,0,0,0-2.193-4.653Q19.053,46.041,17.786,45.816Zm201.9,46.977-26.717-6.42.25-3.39c.881-11.917,1.517-21.963,1.9-30.07l-3.015,9.324-2.267-9.523q.025.465.053.93A170.3,170.3,0,0,0,192.2,72.91l1.214,6.877L167.229,70.06l.537-3.253a139.762,139.762,0,0,0,1.709-22.595,220.781,220.781,0,0,0-1.733-26.523l-.432-3.538,27.552-6.637-1.156,4.622,25.856-9.579-1.225,6.879q-.215,1.208-.413,2.436a68.687,68.687,0,0,1,11.8-5.229A89.769,89.769,0,0,1,248.1,2.656l2.413-.278,1.359,2.013a17.812,17.812,0,0,1,2.294,5.51L282.714-.717,281.5,6.166a200.289,200.289,0,0,0-2.719,22.546q-.234,3.817-.3,7.594.156-.6.3-1.222l3.239-13.922,4.358,13.278c-.326-5.968-.878-12.185-1.654-18.6l-.427-3.531,30.469-7.379-1.6,6.41a147.732,147.732,0,0,0-4.245,32.991,187.831,187.831,0,0,0,3.013,36.059l1.221,6.885L284.208,76.507l.536-3.251c.332-2.015.623-4.108.868-6.241q-.884-1.171-1.646-2.354a37.072,37.072,0,0,1-2.689,4.025c.442,2.208.929,4.4,1.454,6.548L284.3,81.62l-21.076-5.1q-.308,1.121-.682,2.232l-1.13,3.364-3.475-.721c-9.866-2.048-18.481-4.162-25.606-6.284a121.891,121.891,0,0,1-15.463-5.595q.773,8.5,2.014,17.473ZM237.289,57.31q.691.019,1.363.019a37.074,37.074,0,0,0,10.222-1.31,24.318,24.318,0,0,0,7.036-3.26c.23-4.021.358-7.946.382-11.749l-2.145-2.334-1.531,2.038a26.42,26.42,0,0,1-8.712,7.555,27.246,27.246,0,0,1-8.129,2.751,12.186,12.186,0,0,0,.167,1.641A23.887,23.887,0,0,0,237.289,57.31Zm-.06-25.441a32.4,32.4,0,0,1,12.787,2.313l-.75-.816a37.561,37.561,0,0,0-7.9-6.639,28.85,28.85,0,0,0-4.175-2.125q-.4,3.65-.648,7.272Q236.891,31.869,237.23,31.869ZM192.067,19.215q.947,1.264,1.737,2.555.379-.551.787-1.1c-.211-1.746-.457-3.468-.732-5.139l-.4-2.416-.2.8C192.827,15.659,192.426,17.434,192.067,19.215Z" transform="translate(-9016 6180)" fill="url(#linear-gradient)"/>
        </g>
      </g>
      <path id="Path_20551" data-name="Path 20551" d="M-156.932-1.65a2.057,2.057,0,0,0-2.112-2.079,2.086,2.086,0,0,0-2.145,2.079A2.14,2.14,0,0,0-159.044.495,2.112,2.112,0,0,0-156.932-1.65Zm-7.458,0A2.057,2.057,0,0,0-166.5-3.729a2.106,2.106,0,0,0-2.145,2.079A2.162,2.162,0,0,0-166.5.495,2.112,2.112,0,0,0-164.389-1.65Zm-7.458,0a2.049,2.049,0,0,0-2.079-2.079A2.115,2.115,0,0,0-176.1-1.65,2.169,2.169,0,0,0-173.926.495,2.105,2.105,0,0,0-171.848-1.65Zm23.232-9.108,1.914-9.867h-2.805L-153.5,0h2.805l1.914-9.8h.033l7.1,9.8h3.333l-7.557-10.329,11.385-10.3h-3.564l-10.527,9.867Zm19.5-9.636a1.733,1.733,0,0,0-1.749-1.947,1.782,1.782,0,0,0-1.815,1.947,1.757,1.757,0,0,0,1.782,1.947A1.757,1.757,0,0,0-129.113-20.394ZM-133.5,0l2.97-15.312-2.772.429L-136.208,0Zm12.177-2.376a6.546,6.546,0,0,1-2.31.462c-1.023,0-2.046-.363-2.046-1.551a4.015,4.015,0,0,1,.2-1.023l1.782-8.184h4.95l.1-2.442h-4.488l.759-3.465h-2.574l-.759,3.267-2.937.759-.1,1.716,2.475.165-1.782,7.986a7.661,7.661,0,0,0-.231,1.518c0,2.541,2.013,3.663,4.323,3.663a10.887,10.887,0,0,0,3.1-.495Zm11.022,0a6.546,6.546,0,0,1-2.31.462c-1.023,0-2.046-.363-2.046-1.551a4.015,4.015,0,0,1,.2-1.023l1.782-8.184h4.95l.1-2.442h-4.488l.759-3.465h-2.574l-.759,3.267-2.937.759-.1,1.716,2.475.165-1.782,7.986a7.66,7.66,0,0,0-.231,1.518c0,2.541,2.013,3.663,4.323,3.663A10.887,10.887,0,0,0-109.84,0Zm6.138-4.851,10-.066a8.457,8.457,0,0,0,.66-3.234c0-3.135-2.211-5.082-5.412-5.082-4.95,0-8.052,4.488-8.052,8.844,0,4.719,3.267,7.26,7.26,7.26A10.171,10.171,0,0,0-95.486-.4l-.462-2.442a8.666,8.666,0,0,1-3.5.825c-2.706,0-4.719-1.485-4.719-4.917Zm.363-1.98c.561-2.409,2.31-4.026,4.488-4.026a2.773,2.773,0,0,1,3.1,3,4.771,4.771,0,0,1-.132.957ZM-79.48,0-77.6-9.57a13.932,13.932,0,0,0,.231-2.013c0-2.376-1.782-4.026-4.389-4.026a7.774,7.774,0,0,0-4.917,2.31l.429-2.31-2.805.429L-91.988,0h2.706l2.145-11.022a6.781,6.781,0,0,1,4.323-2.013c1.65,0,2.64.726,2.64,2.178a13.588,13.588,0,0,1-.264,1.881L-82.187,0Zm18.513-20.394a1.733,1.733,0,0,0-1.749-1.947,1.782,1.782,0,0,0-1.815,1.947,1.757,1.757,0,0,0,1.782,1.947A1.757,1.757,0,0,0-60.968-20.394ZM-65.357,0l2.97-15.312-2.772.429L-68.063,0Zm16.863,0,1.881-9.57a13.932,13.932,0,0,0,.231-2.013c0-2.376-1.782-4.026-4.389-4.026a7.774,7.774,0,0,0-4.917,2.31l.429-2.31-2.805.429L-61,0h2.706l2.145-11.022a6.781,6.781,0,0,1,4.323-2.013c1.65,0,2.64.726,2.64,2.178a13.587,13.587,0,0,1-.264,1.881L-51.2,0Zm20-3.3a5.782,5.782,0,0,1-3.663,1.386,2.284,2.284,0,0,1-2.508-2.277c0-1.848,2.31-3,6.963-3.168Zm1.122-5.841C-34.766-9.4-37.538-6.93-37.538-3.861A4.4,4.4,0,0,0-33.116.462a6.591,6.591,0,0,0,4.554-2.211h.033C-28.4-.858-27.7.561-25.2.363l.594-2.277c-1.32,0-1.419-.594-1.122-2.046l1.089-5.148c.891-4.389-1.32-6.468-5.709-6.468a11.909,11.909,0,0,0-5.214,1.254l.231,2.508A10.547,10.547,0,0,1-30.773-13.1c2.673,0,3.894,1.155,3.5,3.432ZM1.9-14.586c0-2.97-2.541-6.039-7.491-6.039h-5.28L-14.866,0h2.772l1.353-6.831,3.8-.033C-1.138-6.9,1.9-10.2,1.9-14.586Zm-2.9.462c0,2.376-1.65,4.62-5.61,4.653H-10.28L-8.6-18.018h2.541C-2.788-18.018-1.006-16.4-1.006-14.124Zm6.039-.99L3.151-5.544A13.932,13.932,0,0,0,2.92-3.531C2.92-1.155,4.7.495,7.309.495a7.774,7.774,0,0,0,4.917-2.31L11.8.495,14.6.066l2.937-15.18H14.833L12.688-4.092A6.781,6.781,0,0,1,8.365-2.079c-1.65,0-2.64-.726-2.64-2.178a13.587,13.587,0,0,1,.264-1.881l1.749-8.976Zm19.4,1.023.3-1.518-2.805.429L17.506,7.689h2.706L21.73-.462a9.7,9.7,0,0,0,3.927.957c4.884,0,8.712-4.257,8.712-9.372,0-3.8-2.442-6.732-5.973-6.732A6.346,6.346,0,0,0,24.436-14.091Zm-.429,2.211a6.246,6.246,0,0,1,3.531-1.32c2.211,0,3.993,1.815,3.993,4.653,0,3.267-2.211,6.666-5.544,6.666a5.144,5.144,0,0,1-3.663-1.551Zm17.457-2.211.3-1.518-2.805.429L34.534,7.689H37.24L38.758-.462a9.7,9.7,0,0,0,3.927.957c4.884,0,8.712-4.257,8.712-9.372,0-3.8-2.442-6.732-5.973-6.732A6.346,6.346,0,0,0,41.464-14.091Zm-.429,2.211a6.246,6.246,0,0,1,3.531-1.32c2.211,0,3.993,1.815,3.993,4.653,0,3.267-2.211,6.666-5.544,6.666a5.144,5.144,0,0,1-3.663-1.551Zm19.107-8.514a1.733,1.733,0,0,0-1.749-1.947,1.782,1.782,0,0,0-1.815,1.947,1.757,1.757,0,0,0,1.782,1.947A1.757,1.757,0,0,0,60.142-20.394ZM55.753,0l2.97-15.312-2.772.429L53.047,0Zm7.458-7.227,10-.066a8.457,8.457,0,0,0,.66-3.234c0-3.135-2.211-5.082-5.412-5.082-4.95,0-8.052,4.488-8.052,8.844,0,4.719,3.267,7.26,7.26,7.26A10.171,10.171,0,0,0,71.89-.4l-.462-2.442a8.666,8.666,0,0,1-3.5.825c-2.706,0-4.719-1.485-4.719-4.917Zm.363-1.98c.561-2.409,2.31-4.026,4.488-4.026a2.773,2.773,0,0,1,3.1,3,4.771,4.771,0,0,1-.132.957ZM85.816-4.389c0-2.475-1.815-3.465-3.795-4.323C80.239-9.5,78.854-10,78.854-11.253c0-1.287,1.221-1.914,2.607-1.914a9.817,9.817,0,0,1,5.049,1.617l.759-2.607a11.565,11.565,0,0,0-5.61-1.452c-2.838,0-5.412,1.815-5.412,4.719,0,2.376,1.683,3.366,3.729,4.191,1.782.726,3.2,1.353,3.2,2.607,0,1.518-1.452,2.178-2.937,2.178a10.71,10.71,0,0,1-5.181-1.65L74.3-.957A11.925,11.925,0,0,0,80.008.495C83.176.495,85.816-1.386,85.816-4.389Zm25.608-12.606L113.173,0h2.772l9.834-20.625h-2.871l-7.557,16.7-1.683-16.7h-3.234l-8.151,16.7-1.122-16.7h-2.97L100.072,0h2.772Zm27.621,8.448c0-3.894-2.673-7.062-6.7-7.062-5.115,0-8.415,4.455-8.415,9.075,0,3.96,2.673,7,6.666,7C135.712.462,139.045-3.861,139.045-8.547Zm-2.739.132c0,2.97-1.881,6.5-5.379,6.5-2.739,0-4.29-1.98-4.29-4.785,0-2.937,1.881-6.534,5.412-6.534C134.755-13.233,136.306-11.187,136.306-8.415Zm9.174-2.046a5.1,5.1,0,0,1,4.092-2.574,5.1,5.1,0,0,1,2.706.792l.759-2.64a4.926,4.926,0,0,0-2.706-.726,5.571,5.571,0,0,0-4.323,2.508l.462-2.508-2.8.429L140.729,0h2.706ZM155.677,0,160.1-22.671l-2.8.429L152.971,0ZM172.9-14.652a9.7,9.7,0,0,0-3.927-.957c-4.884,0-8.712,4.257-8.712,9.372,0,3.8,2.442,6.732,5.973,6.732a6.346,6.346,0,0,0,3.96-1.518L170,0h2.706l4.389-22.671-2.772.429Zm-.594,2.97-1.683,8.448a6.246,6.246,0,0,1-3.531,1.32c-2.211,0-3.993-1.815-3.993-4.653,0-3.267,2.211-6.666,5.544-6.666A5.144,5.144,0,0,1,172.31-11.682Z" transform="translate(-8862 6327)" fill="#fff" opacity="0.8"/>
    </g>
  </g>
</svg>
