<svg xmlns="http://www.w3.org/2000/svg" xmlns:xlink="http://www.w3.org/1999/xlink" width="378.246" height="396.525" viewBox="0 0 378.246 396.525">
  <defs>
    <linearGradient id="linear-gradient" x1="0.5" y1="-0.453" x2="0.5" y2="1" gradientUnits="objectBoundingBox">
      <stop offset="0.08" stop-color="#9945ff"/>
      <stop offset="0.3" stop-color="#8752f3"/>
      <stop offset="0.5" stop-color="#5497d5"/>
      <stop offset="0.6" stop-color="#43b4ca"/>
      <stop offset="0.72" stop-color="#28e0b9"/>
      <stop offset="0.97" stop-color="#19fb9b"/>
    </linearGradient>
    <linearGradient id="linear-gradient-2" x1="0.5" y1="-0.435" xlink:href="#linear-gradient"/>
    <linearGradient id="linear-gradient-3" x1="0.5" y1="-0.457" xlink:href="#linear-gradient"/>
  </defs>
  <g id="Group_1502" data-name="Group 1502" transform="translate(8294.991 -6232.329)">
    <path id="Path_20866" data-name="Path 20866" d="M-4.174-17.985v-2.64H-21.4v2.64h7.227V0H-11.4V-17.985ZM3.58-3.432A4.793,4.793,0,0,1,.116-1.815,2.388,2.388,0,0,1-2.558-4.158c0-1.848,1.65-2.772,6.138-3.366Zm.1,1.815C4.076-.3,5.165.561,7.607.363l.165-2.277c-1.32,0-1.485-.231-1.485-1.485V-9.735c.066-4.125-1.749-5.874-5.841-5.874A10.612,10.612,0,0,0-5.23-13.86l.528,2.442A9.556,9.556,0,0,1,.181-13.1c2.442,0,3.4.99,3.4,3.432v.429c-7.062.33-9.009,2.706-9.009,5.412C-5.429-1.386-3.448.495-.61.495A5.382,5.382,0,0,0,3.548-1.617ZM21.994,0,16.813-7.788,21.6-15.114H18.5L15.2-9.669l-3.465-5.445H8.7L13.58-7.722,8.4,0h3.1l3.7-5.907L18.958,0Z" transform="translate(-8106 6467)" fill="#fff"/>
    <path id="Path_20867" data-name="Path 20867" d="M-83.639-3.993-94.628-20.625h-3.1V0h2.739V-16.632L-83.936.2H-80.9V-20.625h-2.739Zm15.444.561A4.793,4.793,0,0,1-71.66-1.815a2.388,2.388,0,0,1-2.673-2.343c0-1.848,1.65-2.772,6.138-3.366Zm.1,1.815C-67.7-.3-66.611.561-64.169.363L-64-1.914c-1.32,0-1.485-.231-1.485-1.485V-9.735c.066-4.125-1.749-5.874-5.841-5.874a10.612,10.612,0,0,0-5.676,1.749l.528,2.442A9.556,9.556,0,0,1-71.594-13.1c2.442,0,3.4.99,3.4,3.432v.429c-7.062.33-9.009,2.706-9.009,5.412,0,2.442,1.98,4.323,4.818,4.323a5.382,5.382,0,0,0,4.158-2.112ZM-39.485,0V-10.329c0-3.333-1.815-5.28-4.587-5.28A7.583,7.583,0,0,0-49.55-13.1a4.118,4.118,0,0,0-3.96-2.508,6.813,6.813,0,0,0-4.851,2.079v-2.079l-2.706.429V0h2.706V-11.484a5.461,5.461,0,0,1,3.828-1.551c1.947,0,2.9.957,2.9,3.6V0h2.706V-11.319a5.557,5.557,0,0,1,3.828-1.716c1.947,0,2.9.957,2.9,3.6V0Zm6.3-7.227,10.164-.066a9.042,9.042,0,0,0,.33-2.409c0-3.6-2.112-5.907-5.775-5.907-4.224,0-7.458,3.333-7.458,8.217,0,4.62,3.1,7.887,7.656,7.887A9.916,9.916,0,0,0-23.183-.759l-.495-2.508A8.389,8.389,0,0,1-28.2-2.013,4.9,4.9,0,0,1-33.182-7.1Zm.132-1.98a4.384,4.384,0,0,1,4.323-4.026c2.376,0,3.432,1.485,3.432,3.729v.231ZM-5.627-23.166h-1.98L-15.625,6.567h1.98ZM8.926-2.013a10.566,10.566,0,0,1-6.039-1.98L1.963-1.452A13.184,13.184,0,0,0,8.86.495c4.323,0,7.26-2.607,7.26-6.171,0-3.894-3.069-5.346-6.072-6.138-3.267-.891-5.016-1.617-5.016-3.7,0-1.716,1.221-3.069,4.191-3.069A10.312,10.312,0,0,1,14.7-16.863l.99-2.442a12.081,12.081,0,0,0-6.5-1.815c-4.092,0-6.9,2.343-6.9,5.808,0,3.993,3.234,5.247,6.171,6.039,3.366.891,4.95,1.683,4.95,3.8C13.414-3.432,11.533-2.013,8.926-2.013Zm23.133-13.1H29.188L24.931-3.366,20.542-15.114h-2.9L23.512-.33l-.924,2.343c-1.023,2.64-1.749,3.267-2.9,3.267a5.767,5.767,0,0,1-2.409-.726l-.792,2.508a7.638,7.638,0,0,0,3.2.792c2.343,0,3.861-1.155,5.313-4.983L26.02.165ZM56.051,0V-10.329c0-3.333-1.815-5.28-4.587-5.28A7.583,7.583,0,0,0,45.986-13.1a4.118,4.118,0,0,0-3.96-2.508,6.813,6.813,0,0,0-4.851,2.079v-2.079l-2.706.429V0h2.706V-11.484A5.461,5.461,0,0,1,41-13.035c1.947,0,2.9.957,2.9,3.6V0h2.706V-11.319a5.557,5.557,0,0,1,3.828-1.716c1.947,0,2.9.957,2.9,3.6V0ZM74.267-7.623c0-4.554-2.475-7.986-6.732-7.986a6.08,6.08,0,0,0-4.224,1.881v-8.943l-2.706.429V.495L63.311,0a12.871,12.871,0,0,0,3.267.495C71.1.495,74.267-3.036,74.267-7.623Zm-2.805.066c0,3.1-1.716,5.61-4.785,5.61a5.217,5.217,0,0,1-3.366-1.089v-8.613A5.5,5.5,0,0,1,66.974-13.1C69.779-13.1,71.462-10.89,71.462-7.557Zm20.13,0c0-4.884-2.937-8.085-7.26-8.085-4.356,0-7.458,3.234-7.458,8.085,0,4.884,3,8.052,7.293,8.052C88.423.495,91.591-2.706,91.591-7.557Zm-2.673.033c0,3.267-1.65,5.577-4.653,5.577-2.97,0-4.719-2.409-4.719-5.643,0-3.267,1.65-5.61,4.653-5.61C87.169-13.2,88.918-10.758,88.918-7.524ZM97.993,0V-22.671l-2.706.429V0Z" transform="translate(-8106 6573)" fill="#fff"/>
    <g id="Group_1498" data-name="Group 1498">
      <path id="Path_20556" data-name="Path 20556" d="M-37.109-2.013a10.566,10.566,0,0,1-6.039-1.98l-.924,2.541a13.184,13.184,0,0,0,6.9,1.947c4.323,0,7.26-2.607,7.26-6.171,0-3.894-3.069-5.346-6.072-6.138C-39.254-12.7-41-13.431-41-15.51c0-1.716,1.221-3.069,4.191-3.069a10.312,10.312,0,0,1,5.478,1.716l.99-2.442a12.081,12.081,0,0,0-6.5-1.815c-4.092,0-6.9,2.343-6.9,5.808,0,3.993,3.234,5.247,6.171,6.039,3.366.891,4.95,1.683,4.95,3.8C-32.621-3.432-34.5-2.013-37.109-2.013Zm10.857-13.1V-4.719c0,3.267,1.815,5.214,4.719,5.214a7.188,7.188,0,0,0,5.082-2.211V.495l2.706-.429v-15.18h-2.706V-3.762a6.161,6.161,0,0,1-4.125,1.65c-1.98,0-2.97-.891-2.97-3.5v-9.5Zm19.9,1.386v-1.881l-2.706.429V7.689h2.706V.1a14.246,14.246,0,0,0,3.267.4C1.435.495,4.6-3.036,4.6-7.623c0-4.554-2.475-7.986-6.732-7.986A6.08,6.08,0,0,0-6.353-13.728Zm0,2.079A5.5,5.5,0,0,1-2.69-13.1C.115-13.1,1.8-10.89,1.8-7.557c0,3.1-1.716,5.61-4.785,5.61A5.217,5.217,0,0,1-6.353-3.036Zm17.358-2.079v-1.881L8.3-15.18V7.689h2.706V.1a14.246,14.246,0,0,0,3.267.4c4.521,0,7.689-3.531,7.689-8.118,0-4.554-2.475-7.986-6.732-7.986A6.08,6.08,0,0,0,11.005-13.728Zm0,2.079A5.5,5.5,0,0,1,14.668-13.1c2.805,0,4.488,2.211,4.488,5.544,0,3.1-1.716,5.61-4.785,5.61a5.217,5.217,0,0,1-3.366-1.089ZM28.363,0V-22.671l-2.706.429V0Zm16.83-15.114H42.323L38.066-3.366,33.677-15.114h-2.9L36.646-.33l-.924,2.343c-1.023,2.64-1.749,3.267-2.9,3.267a5.767,5.767,0,0,1-2.409-.726l-.792,2.508a7.638,7.638,0,0,0,3.2.792c2.343,0,3.861-1.155,5.313-4.983L39.155.165Z" transform="translate(-8106 6255)" fill="#fff"/>
      <path id="Path_20555" data-name="Path 20555" d="M-1.634,0V-2.64H-11.6V-20.625H-14.4V0ZM15.791-13.959c0-3.861-2.541-6.666-8.184-6.666H1.9V0H4.7V-6.831l2.706-.033C12.557-6.93,15.791-9.306,15.791-13.959Zm-2.838.132c0,2.673-1.782,4.224-5.247,4.29l-3,.066v-8.547H7.475C11.138-18.018,12.953-16.6,12.953-13.827Z" transform="translate(-8106 6361)" fill="#fff"/>
      <path id="Path_20553" data-name="Path 20553" d="M-180.345-11.913c-2.277-.759-3.531-1.65-3.531-3.036a2.5,2.5,0,0,1,2.772-2.475,2.522,2.522,0,0,1,2.739,2.706A3.426,3.426,0,0,1-180.345-11.913ZM-182-8.646c2.343.726,3.927,1.65,3.927,3.135,0,1.584-1.089,2.475-2.97,2.475-1.98,0-3.2-1.122-3.2-2.673A3.49,3.49,0,0,1-182-8.646Zm4.521-2.079c2.31-.726,3.762-2.409,3.762-4.521,0-3.564-2.838-5.742-7.293-5.742-5.148,0-7.656,2.574-7.656,6.2,0,2.541,1.749,3.993,3.861,4.917-2.541.627-4.191,2.376-4.191,4.62,0,3.63,3.168,5.742,7.722,5.742,5.313,0,7.854-2.739,7.854-6.27C-173.415-8.382-175.263-9.834-177.474-10.725Zm5.742,8.118c2.277.924,2.97,1.584,2.97,2.475,0,1.089-1.485,2.211-3.3,3.5l2.244,1.98c2.871-1.551,5.577-3.729,5.577-6.732A4.074,4.074,0,0,0-168.2-5.61,3.384,3.384,0,0,0-171.732-2.607Zm17.886-9.306c-2.277-.759-3.531-1.65-3.531-3.036a2.5,2.5,0,0,1,2.772-2.475,2.522,2.522,0,0,1,2.739,2.706A3.426,3.426,0,0,1-153.846-11.913Zm-1.65,3.267c2.343.726,3.927,1.65,3.927,3.135,0,1.584-1.089,2.475-2.97,2.475-1.98,0-3.2-1.122-3.2-2.673A3.49,3.49,0,0,1-155.5-8.646Zm4.521-2.079c2.31-.726,3.762-2.409,3.762-4.521,0-3.564-2.838-5.742-7.293-5.742-5.148,0-7.656,2.574-7.656,6.2,0,2.541,1.749,3.993,3.861,4.917-2.541.627-4.191,2.376-4.191,4.62,0,3.63,3.168,5.742,7.722,5.742,5.313,0,7.854-2.739,7.854-6.27C-146.916-8.382-148.764-9.834-150.975-10.725Zm14.784-1.188c-2.277-.759-3.531-1.65-3.531-3.036a2.5,2.5,0,0,1,2.772-2.475,2.522,2.522,0,0,1,2.739,2.706A3.426,3.426,0,0,1-136.191-11.913Zm-1.65,3.267c2.343.726,3.927,1.65,3.927,3.135,0,1.584-1.089,2.475-2.97,2.475-1.98,0-3.2-1.122-3.2-2.673A3.49,3.49,0,0,1-137.841-8.646Zm4.521-2.079c2.31-.726,3.762-2.409,3.762-4.521,0-3.564-2.838-5.742-7.293-5.742-5.148,0-7.656,2.574-7.656,6.2,0,2.541,1.749,3.993,3.861,4.917-2.541.627-4.191,2.376-4.191,4.62,0,3.63,3.168,5.742,7.722,5.742,5.313,0,7.854-2.739,7.854-6.27C-129.261-8.382-131.109-9.834-133.32-10.725Zm14.784-1.188c-2.277-.759-3.531-1.65-3.531-3.036a2.5,2.5,0,0,1,2.772-2.475,2.522,2.522,0,0,1,2.739,2.706A3.426,3.426,0,0,1-118.536-11.913Zm-1.65,3.267c2.343.726,3.927,1.65,3.927,3.135,0,1.584-1.089,2.475-2.97,2.475-1.98,0-3.2-1.122-3.2-2.673A3.49,3.49,0,0,1-120.186-8.646Zm4.521-2.079c2.31-.726,3.762-2.409,3.762-4.521,0-3.564-2.838-5.742-7.293-5.742-5.148,0-7.656,2.574-7.656,6.2,0,2.541,1.749,3.993,3.861,4.917-2.541.627-4.191,2.376-4.191,4.62,0,3.63,3.168,5.742,7.722,5.742,5.313,0,7.854-2.739,7.854-6.27C-111.606-8.382-113.454-9.834-115.665-10.725Zm5.742,8.118c2.277.924,2.97,1.584,2.97,2.475,0,1.089-1.485,2.211-3.3,3.5l2.244,1.98c2.871-1.551,5.577-3.729,5.577-6.732a4.074,4.074,0,0,0-3.96-4.224A3.384,3.384,0,0,0-109.923-2.607Zm17.886-9.306c-2.277-.759-3.531-1.65-3.531-3.036A2.5,2.5,0,0,1-92.8-17.424a2.522,2.522,0,0,1,2.739,2.706A3.426,3.426,0,0,1-92.037-11.913Zm-1.65,3.267C-91.344-7.92-89.76-7-89.76-5.511c0,1.584-1.089,2.475-2.97,2.475-1.98,0-3.2-1.122-3.2-2.673A3.49,3.49,0,0,1-93.687-8.646Zm4.521-2.079c2.31-.726,3.762-2.409,3.762-4.521,0-3.564-2.838-5.742-7.293-5.742-5.148,0-7.656,2.574-7.656,6.2,0,2.541,1.749,3.993,3.861,4.917-2.541.627-4.191,2.376-4.191,4.62,0,3.63,3.168,5.742,7.722,5.742,5.313,0,7.854-2.739,7.854-6.27C-85.107-8.382-86.955-9.834-89.166-10.725Zm14.784-1.188c-2.277-.759-3.531-1.65-3.531-3.036a2.5,2.5,0,0,1,2.772-2.475A2.522,2.522,0,0,1-72.4-14.718,3.426,3.426,0,0,1-74.382-11.913Zm-1.65,3.267c2.343.726,3.927,1.65,3.927,3.135,0,1.584-1.089,2.475-2.97,2.475-1.98,0-3.2-1.122-3.2-2.673A3.49,3.49,0,0,1-76.032-8.646Zm4.521-2.079c2.31-.726,3.762-2.409,3.762-4.521,0-3.564-2.838-5.742-7.293-5.742-5.148,0-7.656,2.574-7.656,6.2,0,2.541,1.749,3.993,3.861,4.917-2.541.627-4.191,2.376-4.191,4.62,0,3.63,3.168,5.742,7.722,5.742,5.313,0,7.854-2.739,7.854-6.27C-67.452-8.382-69.3-9.834-71.511-10.725Zm14.784-1.188c-2.277-.759-3.531-1.65-3.531-3.036a2.5,2.5,0,0,1,2.772-2.475,2.522,2.522,0,0,1,2.739,2.706A3.426,3.426,0,0,1-56.727-11.913Zm-1.65,3.267C-56.034-7.92-54.45-7-54.45-5.511c0,1.584-1.089,2.475-2.97,2.475-1.98,0-3.2-1.122-3.2-2.673A3.49,3.49,0,0,1-58.377-8.646Zm4.521-2.079c2.31-.726,3.762-2.409,3.762-4.521,0-3.564-2.838-5.742-7.293-5.742-5.148,0-7.656,2.574-7.656,6.2,0,2.541,1.749,3.993,3.861,4.917-2.541.627-4.191,2.376-4.191,4.62,0,3.63,3.168,5.742,7.722,5.742,5.313,0,7.854-2.739,7.854-6.27C-49.8-8.382-51.645-9.834-53.856-10.725Zm5.742,8.118c2.277.924,2.97,1.584,2.97,2.475,0,1.089-1.485,2.211-3.3,3.5l2.244,1.98c2.871-1.551,5.577-3.729,5.577-6.732a4.074,4.074,0,0,0-3.96-4.224A3.384,3.384,0,0,0-48.114-2.607Zm17.886-9.306c-2.277-.759-3.531-1.65-3.531-3.036a2.5,2.5,0,0,1,2.772-2.475,2.522,2.522,0,0,1,2.739,2.706A3.426,3.426,0,0,1-30.228-11.913Zm-1.65,3.267c2.343.726,3.927,1.65,3.927,3.135,0,1.584-1.089,2.475-2.97,2.475-1.98,0-3.2-1.122-3.2-2.673A3.49,3.49,0,0,1-31.878-8.646Zm4.521-2.079c2.31-.726,3.762-2.409,3.762-4.521,0-3.564-2.838-5.742-7.293-5.742-5.148,0-7.656,2.574-7.656,6.2,0,2.541,1.749,3.993,3.861,4.917-2.541.627-4.191,2.376-4.191,4.62,0,3.63,3.168,5.742,7.722,5.742,5.313,0,7.854-2.739,7.854-6.27C-23.3-8.382-25.146-9.834-27.357-10.725Zm14.784-1.188c-2.277-.759-3.531-1.65-3.531-3.036a2.5,2.5,0,0,1,2.772-2.475,2.522,2.522,0,0,1,2.739,2.706A3.426,3.426,0,0,1-12.573-11.913Zm-1.65,3.267C-11.88-7.92-10.3-7-10.3-5.511c0,1.584-1.089,2.475-2.97,2.475-1.98,0-3.2-1.122-3.2-2.673A3.49,3.49,0,0,1-14.223-8.646ZM-9.7-10.725c2.31-.726,3.762-2.409,3.762-4.521,0-3.564-2.838-5.742-7.293-5.742-5.148,0-7.656,2.574-7.656,6.2,0,2.541,1.749,3.993,3.861,4.917-2.541.627-4.191,2.376-4.191,4.62,0,3.63,3.168,5.742,7.722,5.742,5.313,0,7.854-2.739,7.854-6.27C-5.643-8.382-7.491-9.834-9.7-10.725ZM5.082-11.913c-2.277-.759-3.531-1.65-3.531-3.036a2.5,2.5,0,0,1,2.772-2.475,2.522,2.522,0,0,1,2.739,2.706A3.426,3.426,0,0,1,5.082-11.913ZM3.432-8.646C5.775-7.92,7.359-7,7.359-5.511c0,1.584-1.089,2.475-2.97,2.475-1.98,0-3.2-1.122-3.2-2.673A3.49,3.49,0,0,1,3.432-8.646Zm4.521-2.079c2.31-.726,3.762-2.409,3.762-4.521,0-3.564-2.838-5.742-7.293-5.742-5.148,0-7.656,2.574-7.656,6.2,0,2.541,1.749,3.993,3.861,4.917-2.541.627-4.191,2.376-4.191,4.62C-3.564-1.617-.4.495,4.158.495c5.313,0,7.854-2.739,7.854-6.27C12.012-8.382,10.164-9.834,7.953-10.725Zm46.233-.066c2.376-.66,3.828-2.112,3.828-4.455,0-3.036-1.65-5.379-7.788-5.379H41.283V0h9.009c6.6,0,8.349-2.706,8.349-6.006C58.641-8.547,56.826-10.3,54.186-10.791Zm-1.419-3.6c0,1.551-1.122,2.442-3.3,2.442h-3.1V-16.7h3.366C51.711-16.7,52.767-15.906,52.767-14.388ZM53.361-6.3c0,1.617-1.089,2.376-3.465,2.376H46.365V-8.679h3.366C51.942-8.679,53.361-8.052,53.361-6.3Zm16.3,2.409a3.137,3.137,0,0,1-2.376,1.023,1.71,1.71,0,0,1-1.914-1.65c0-1.353,1.155-1.947,4.29-2.31Zm.132,2.046C70.488-.165,72.138.726,75.471.3l.495-3.63c-1.056-.1-1.254-.2-1.254-1.254l.033-4.554c.066-4.29-1.683-6.7-7-6.7a15.439,15.439,0,0,0-7.062,1.815L61.743-10.3a12.472,12.472,0,0,1,5.214-1.551c1.881,0,2.706.726,2.706,2.343v.3c-6.9.2-9.075,2.541-9.075,5.445A4.439,4.439,0,0,0,65.274.495,5.459,5.459,0,0,0,69.7-1.848Zm24.42-6.006c0-4.884-2.739-7.986-6.534-7.986a6.025,6.025,0,0,0-4.323,2.079V-22.44l-5.082.627V.495l4.785-.66a11.451,11.451,0,0,0,3.465.627C90.684.462,94.215-2.772,94.215-7.854Zm-5.082.264c0,2.541-1.254,4.257-3.432,4.257a4.182,4.182,0,0,1-2.343-.627v-6.765a3.606,3.606,0,0,1,2.574-1.056C88.011-11.781,89.133-10.23,89.133-7.59Zm22.77-7.755h-5.412l-2.97,10.1-3.267-10.1H94.809L100.815-.1l-.429,1.188C99.792,2.574,99.3,2.97,98.208,2.97a5.747,5.747,0,0,1-2.376-.693L94.314,6.138a10.56,10.56,0,0,0,4.554.99c3.234,0,5.148-1.353,6.732-5.841l.759-2.013ZM133.188,0h4.983l-.693-20.625h-7.326l-4.29,15.477-4.29-15.477h-7.425L113.421,0H118.3l.132-15.873L122.958-.33h5.61l4.521-15.576ZM157.08,0V-4.224h-9.933V-8.25h7.986v-4.191h-7.986V-16.4h9.933v-4.224H142V0Zm17.193-14.685L178.266,0h5.478l5.511-20.625h-5.379L181.1-6.039l-3.762-14.586h-6.006l-3.7,14.586-2.772-14.586h-5.61L164.769,0h5.445Z" transform="translate(-8106 6303)" fill="url(#linear-gradient)"/>
      <path id="Path_20554" data-name="Path 20554" d="M-118.519,0V-2.64h-9.966V-20.625h-2.805V0Zm16.665-7.557c0-4.884-2.937-8.085-7.26-8.085-4.356,0-7.458,3.234-7.458,8.085,0,4.884,3,8.052,7.293,8.052C-105.022.495-101.854-2.706-101.854-7.557Zm-2.673.033c0,3.267-1.65,5.577-4.653,5.577-2.97,0-4.719-2.409-4.719-5.643,0-3.267,1.65-5.61,4.653-5.61C-106.276-13.2-104.527-10.758-104.527-7.524ZM-86.74-.759l-.5-2.508a7.832,7.832,0,0,1-4.356,1.254c-2.838,0-4.752-2.079-4.752-5.577,0-3.4,1.716-5.511,4.818-5.511a7.274,7.274,0,0,1,4.191,1.254l.693-2.475a8.906,8.906,0,0,0-4.884-1.287c-4.422,0-7.623,3.234-7.623,8.052,0,4.785,2.64,8.052,7.425,8.052A9.546,9.546,0,0,0-86.74-.759Zm6.4-6.7L-74.1,0h3.465L-77.6-7.953l6.93-7.161H-74.1l-6.237,6.93H-80.4V-22.671l-2.706.429V0H-80.4V-7.458Zm13.7.231,10.164-.066a9.042,9.042,0,0,0,.33-2.409c0-3.6-2.112-5.907-5.775-5.907-4.224,0-7.458,3.333-7.458,8.217,0,4.62,3.1,7.887,7.656,7.887A9.916,9.916,0,0,0-56.644-.759l-.495-2.508A8.389,8.389,0,0,1-61.66-2.013,4.9,4.9,0,0,1-66.643-7.1Zm.132-1.98a4.384,4.384,0,0,1,4.323-4.026c2.376,0,3.432,1.485,3.432,3.729v.231Zm23.925-5.907a11.666,11.666,0,0,0-3.267-.495c-4.521,0-7.689,3.531-7.689,8.118,0,4.554,2.475,7.986,6.732,7.986a6.08,6.08,0,0,0,4.224-1.881V0h2.706V-22.671l-2.706.429Zm0,3.036v8.613a5.5,5.5,0,0,1-3.663,1.452c-2.805,0-4.488-2.211-4.488-5.544,0-3.1,1.716-5.61,4.785-5.61A5.217,5.217,0,0,1-42.586-12.078Zm23.5-10.164a7.9,7.9,0,0,0-3.036-.726c-2.97,0-4.917,1.551-4.983,5.775l-.033,1.914-2.475.726-.132,1.716,2.64.2V0H-24.4V-12.672h4.686l.1-2.442H-24.4v-2.112c0-2.277.726-3.2,2.244-3.2a6.9,6.9,0,0,1,2.409.66C-19.75-19.7-19.09-22.176-19.09-22.242ZM-3.514-7.557c0-4.884-2.937-8.085-7.26-8.085-4.356,0-7.458,3.234-7.458,8.085,0,4.884,3,8.052,7.293,8.052C-6.682.495-3.514-2.706-3.514-7.557Zm-2.673.033c0,3.267-1.65,5.577-4.653,5.577-2.97,0-4.719-2.409-4.719-5.643,0-3.267,1.65-5.61,4.653-5.61C-7.936-13.2-6.187-10.758-6.187-7.524ZM2.888-9.867C4.01-11.946,5.4-13,6.848-13a4.648,4.648,0,0,1,2.409.693L9.95-14.85a5.446,5.446,0,0,0-2.838-.759c-1.914,0-3.168.99-4.224,2.673v-2.673L.182-15.18V0H2.888ZM23.249,0h2.673V-16.1l-6.6,2.178.1,2.475,3.828-1.221ZM33.413-7.1l.792-5.841h8.184l-.1-2.673h-10.3L30.641-5.016l.726.66a12.1,12.1,0,0,1,4.059-.561c3,0,4.653,1.947,4.653,4.125A4.209,4.209,0,0,1,35.624,3.6a11.846,11.846,0,0,1-5.28-1.518l-.5,2.673A12.173,12.173,0,0,0,35.59,6.171a6.98,6.98,0,0,0,7.26-7.1c0-3.8-2.772-6.336-7.1-6.336A18.83,18.83,0,0,0,33.413-7.1ZM60.9-7.788c0-4.917-3.3-8.283-7.986-8.283S44.963-12.7,44.963-7.788,48.23.495,52.916.495,60.9-2.871,60.9-7.788Zm-2.706,0c0,3.3-2.145,5.709-5.28,5.709s-5.247-2.409-5.247-5.709S49.781-13.5,52.916-13.5,58.2-11.088,58.2-7.788Zm31.515-2.673c0-6.138-4.092-10.164-10.923-10.164h-6.2V0h6.072C85.751,0,89.711-4.092,89.711-10.461Zm-2.805.2c0,5.049-3.2,7.656-8.118,7.656h-3.4V-18.018h3.267C83.869-18.018,86.906-15.345,86.906-10.263Zm14.421,6.831a4.793,4.793,0,0,1-3.465,1.617,2.388,2.388,0,0,1-2.673-2.343c0-1.848,1.65-2.772,6.138-3.366Zm.1,1.815c.4,1.32,1.485,2.178,3.927,1.98l.165-2.277c-1.32,0-1.485-.231-1.485-1.485V-9.735c.066-4.125-1.749-5.874-5.841-5.874a10.612,10.612,0,0,0-5.676,1.749l.528,2.442A9.556,9.556,0,0,1,97.928-13.1c2.442,0,3.4.99,3.4,3.432v.429c-7.062.33-9.009,2.706-9.009,5.412,0,2.442,1.98,4.323,4.818,4.323a5.382,5.382,0,0,0,4.158-2.112Zm19.173-13.5h-2.871L113.471-3.366l-4.389-11.748h-2.9L112.052-.33l-.924,2.343c-1.023,2.64-1.749,3.267-2.9,3.267a5.767,5.767,0,0,1-2.409-.726l-.792,2.508a7.638,7.638,0,0,0,3.2.792c2.343,0,3.861-1.155,5.313-4.983L114.56.165ZM132.676-4.29c0-2.871-2.376-3.927-4.587-4.521-1.881-.495-3.5-.99-3.5-2.442,0-1.221,1.056-1.881,2.673-1.881a10.03,10.03,0,0,1,4.323,1.122l.693-2.475a11.2,11.2,0,0,0-4.884-1.122c-3.036,0-5.412,1.782-5.412,4.587,0,2.772,2.343,3.828,4.488,4.422,1.782.495,3.564.99,3.564,2.508,0,1.353-1.287,2.145-3,2.145a8.864,8.864,0,0,1-4.653-1.419l-.693,2.475a10.673,10.673,0,0,0,5.28,1.419C130.268.528,132.676-1.419,132.676-4.29Z" transform="translate(-8106 6409)" fill="url(#linear-gradient-2)"/>
    </g>
    <path id="Path_20868" data-name="Path 20868" d="M-92.647,0V-2.607h-11.616l11.649-15.84v-2.178H-107.6v2.607h11.484L-107.794-2.112V0ZM-87.6-7.227l10.164-.066A9.042,9.042,0,0,0-77.1-9.7c0-3.6-2.112-5.907-5.775-5.907-4.224,0-7.458,3.333-7.458,8.217,0,4.62,3.1,7.887,7.656,7.887A9.916,9.916,0,0,0-77.6-.759l-.495-2.508a8.389,8.389,0,0,1-4.521,1.254A4.9,4.9,0,0,1-87.6-7.1Zm.132-1.98a4.384,4.384,0,0,1,4.323-4.026c2.376,0,3.432,1.485,3.432,3.729v.231Zm16.665-.66C-69.679-11.946-68.293-13-66.841-13a4.648,4.648,0,0,1,2.409.693l.693-2.541a5.446,5.446,0,0,0-2.838-.759c-1.914,0-3.168.99-4.224,2.673v-2.673l-2.706.429V0H-70.8Zm23.265,2.31c0-4.884-2.937-8.085-7.26-8.085-4.356,0-7.458,3.234-7.458,8.085,0,4.884,3,8.052,7.293,8.052C-50.7.495-47.536-2.706-47.536-7.557Zm-2.673.033c0,3.267-1.65,5.577-4.653,5.577-2.97,0-4.719-2.409-4.719-5.643,0-3.267,1.65-5.61,4.653-5.61C-51.958-13.2-50.209-10.758-50.209-7.524Zm27.621-.033c0-4.884-2.937-8.085-7.26-8.085-4.356,0-7.458,3.234-7.458,8.085,0,4.884,3,8.052,7.293,8.052C-25.757.495-22.589-2.706-22.589-7.557Zm-2.673.033c0,3.267-1.65,5.577-4.653,5.577-2.97,0-4.719-2.409-4.719-5.643,0-3.267,1.65-5.61,4.653-5.61C-27.011-13.2-25.262-10.758-25.262-7.524ZM-6.385,0V-10.395c0-3.267-1.815-5.214-4.884-5.214a7.2,7.2,0,0,0-4.917,2.277v-2.277l-2.706.429V0h2.706V-11.352A6.069,6.069,0,0,1-12.226-13c2.145,0,3.135.891,3.135,3.5V0ZM16.451-10.626c2.31-.858,3.531-2.409,3.531-4.521,0-3.234-2.211-5.478-7.194-5.478H5.957V0h7.029c5.313,0,7.656-2.343,7.656-5.841C20.642-8.151,19.19-9.933,16.451-10.626Zm.726-4.29c0,2.013-1.617,3.333-4.587,3.333H8.762v-6.468h4.257C15.725-18.051,17.177-16.9,17.177-14.916Zm.66,9.108c0,2.145-1.518,3.234-4.587,3.234H8.762V-9.042h4.059C15.725-9.042,17.837-8.184,17.837-5.808Zm6.4-9.306V-4.719c0,3.267,1.815,5.214,4.719,5.214a7.188,7.188,0,0,0,5.082-2.211V.495L36.745.066v-15.18H34.039V-3.762a6.161,6.161,0,0,1-4.125,1.65c-1.98,0-2.97-.891-2.97-3.5v-9.5Zm29.337,0H50.7L46.448-3.366,42.059-15.114h-2.9L45.028-.33,44.1,2.013c-1.023,2.64-1.749,3.267-2.9,3.267a5.767,5.767,0,0,1-2.409-.726L38,7.062a7.638,7.638,0,0,0,3.2.792c2.343,0,3.861-1.155,5.313-4.983L47.536.165Zm7.689-8.052h-1.98L51.266,6.567h1.98ZM69.284-2.013a10.566,10.566,0,0,1-6.039-1.98l-.924,2.541a13.184,13.184,0,0,0,6.9,1.947c4.323,0,7.26-2.607,7.26-6.171,0-3.894-3.069-5.346-6.072-6.138-3.267-.891-5.016-1.617-5.016-3.7,0-1.716,1.221-3.069,4.191-3.069a10.312,10.312,0,0,1,5.478,1.716l.99-2.442a12.081,12.081,0,0,0-6.5-1.815c-4.092,0-6.9,2.343-6.9,5.808,0,3.993,3.234,5.247,6.171,6.039,3.366.891,4.95,1.683,4.95,3.8C73.772-3.432,71.891-2.013,69.284-2.013ZM82.022-7.227l10.164-.066a9.042,9.042,0,0,0,.33-2.409c0-3.6-2.112-5.907-5.775-5.907-4.224,0-7.458,3.333-7.458,8.217,0,4.62,3.1,7.887,7.656,7.887A9.916,9.916,0,0,0,92.021-.759l-.5-2.508A8.39,8.39,0,0,1,87-2.013,4.9,4.9,0,0,1,82.022-7.1Zm.132-1.98a4.384,4.384,0,0,1,4.323-4.026c2.376,0,3.432,1.485,3.432,3.729v.231ZM98.818,0V-22.671l-2.706.429V0Zm7.392,0V-22.671l-2.706.429V0Z" transform="translate(-8106 6515)" fill="url(#linear-gradient-3)"/>
    <path id="Path_20869" data-name="Path 20869" d="M-135.581-10.626c2.31-.858,3.531-2.409,3.531-4.521,0-3.234-2.211-5.478-7.194-5.478h-6.831V0h7.029c5.313,0,7.656-2.343,7.656-5.841C-131.389-8.151-132.842-9.933-135.581-10.626Zm.726-4.29c0,2.013-1.617,3.333-4.587,3.333h-3.828v-6.468h4.257C-136.307-18.051-134.855-16.9-134.855-14.916Zm.66,9.108c0,2.145-1.518,3.234-4.587,3.234h-4.488V-9.042h4.059C-136.307-9.042-134.195-8.184-134.195-5.808Zm14.289,2.376a4.793,4.793,0,0,1-3.465,1.617,2.388,2.388,0,0,1-2.673-2.343c0-1.848,1.65-2.772,6.138-3.366Zm.1,1.815c.4,1.32,1.485,2.178,3.927,1.98l.165-2.277c-1.32,0-1.485-.231-1.485-1.485V-9.735c.066-4.125-1.749-5.874-5.841-5.874a10.612,10.612,0,0,0-5.676,1.749l.528,2.442A9.556,9.556,0,0,1-123.3-13.1c2.442,0,3.4.99,3.4,3.432v.429c-7.062.33-9.009,2.706-9.009,5.412,0,2.442,1.98,4.323,4.818,4.323a5.382,5.382,0,0,0,4.158-2.112Zm20.691-6.006c0-4.554-2.475-7.986-6.732-7.986a6.08,6.08,0,0,0-4.224,1.881v-8.943l-2.706.429V.495L-110.072,0A12.871,12.871,0,0,0-106.8.495C-102.284.495-99.115-3.036-99.115-7.623Zm-2.805.066c0,3.1-1.716,5.61-4.785,5.61a5.217,5.217,0,0,1-3.366-1.089v-8.613a5.5,5.5,0,0,1,3.663-1.452C-103.6-13.1-101.921-10.89-101.921-7.557Zm18.381-7.557h-2.871L-90.668-3.366l-4.389-11.748h-2.9L-92.087-.33l-.924,2.343c-1.023,2.64-1.749,3.267-2.9,3.267a5.767,5.767,0,0,1-2.409-.726l-.792,2.508a7.638,7.638,0,0,0,3.2.792c2.343,0,3.861-1.155,5.313-4.983L-89.579.165ZM-62.882,0h2.838l-.66-20.625h-3.663l-6.3,16.962-6.336-16.962h-3.729L-81.428,0h2.739l.231-17.193,6.3,16.9h2.805l6.27-16.863Zm20.559,0V-2.607H-52.586V-9.042h8.547v-2.607h-8.547v-6.369h10.263v-2.607H-55.391V0Zm16.434-17.16L-20.774,0h2.805l5.841-20.625h-2.739l-4.389,16.8-4.983-16.8h-3.234l-4.851,16.8-4.455-16.8h-2.937L-33.842,0H-31.1ZM4.7-23.166H2.722L-5.3,6.567h1.98Zm19.5,12.54c2.31-.858,3.531-2.409,3.531-4.521,0-3.234-2.211-5.478-7.194-5.478H13.711V0H20.74C26.053,0,28.4-2.343,28.4-5.841,28.4-8.151,26.944-9.933,24.205-10.626Zm.726-4.29c0,2.013-1.617,3.333-4.587,3.333H16.516v-6.468h4.257C23.479-18.051,24.931-16.9,24.931-14.916Zm.66,9.108c0,2.145-1.518,3.234-4.587,3.234H16.516V-9.042h4.059C23.479-9.042,25.591-8.184,25.591-5.808ZM39.881-3.432a4.793,4.793,0,0,1-3.465,1.617,2.388,2.388,0,0,1-2.673-2.343c0-1.848,1.65-2.772,6.138-3.366Zm.1,1.815c.4,1.32,1.485,2.178,3.927,1.98l.165-2.277c-1.32,0-1.485-.231-1.485-1.485V-9.735c.066-4.125-1.749-5.874-5.841-5.874A10.612,10.612,0,0,0,31.07-13.86l.528,2.442A9.556,9.556,0,0,1,36.482-13.1c2.442,0,3.4.99,3.4,3.432v.429c-7.062.33-9.009,2.706-9.009,5.412,0,2.442,1.98,4.323,4.818,4.323a5.382,5.382,0,0,0,4.158-2.112ZM60.67-7.623c0-4.554-2.475-7.986-6.732-7.986a6.08,6.08,0,0,0-4.224,1.881v-8.943l-2.706.429V.495L49.714,0a12.871,12.871,0,0,0,3.267.495C57.5.495,60.67-3.036,60.67-7.623Zm-2.805.066c0,3.1-1.716,5.61-4.785,5.61a5.217,5.217,0,0,1-3.366-1.089v-8.613A5.5,5.5,0,0,1,53.377-13.1C56.182-13.1,57.865-10.89,57.865-7.557Zm18.381-7.557H73.375L69.118-3.366,64.729-15.114h-2.9L67.7-.33l-.924,2.343c-1.023,2.64-1.749,3.267-2.9,3.267a5.767,5.767,0,0,1-2.409-.726L60.67,7.062a7.638,7.638,0,0,0,3.2.792c2.343,0,3.861-1.155,5.313-4.983L70.207.165ZM96.9,0h2.838l-.66-20.625H95.42l-6.3,16.962L82.781-20.625H79.051L78.358,0H81.1l.231-17.193,6.3,16.9h2.805l6.27-16.863Zm20.559,0V-2.607H107.2V-9.042h8.547v-2.607H107.2v-6.369h10.263v-2.607H104.4V0ZM133.9-17.16,139.012,0h2.805l5.841-20.625h-2.739l-4.389,16.8-4.983-16.8h-3.234l-4.851,16.8-4.455-16.8h-2.937L125.945,0h2.739Z" transform="translate(-8106 6621)" fill="url(#linear-gradient-3)"/>
  </g>
</svg>
